<mxfile host="app.diagrams.net" agent="Mozilla/5.0 (Windows NT 10.0; Win64; x64) AppleWebKit/537.36 (KHTML, like Gecko) Chrome/136.0.0.0 Safari/537.36" version="27.0.6">
  <diagram name="Page-1" id="5vLck0Yijhu53md24jYd">
    <mxGraphModel dx="1722" dy="919" grid="1" gridSize="10" guides="1" tooltips="1" connect="1" arrows="1" fold="1" page="1" pageScale="1" pageWidth="850" pageHeight="1100" math="0" shadow="0">
      <root>
        <mxCell id="0" />
        <mxCell id="1" parent="0" />
        <mxCell id="XadpPIteiNEk6jwh_vKh-1" value="" style="rounded=1;whiteSpace=wrap;html=1;fillColor=none;arcSize=3;" parent="1" vertex="1">
          <mxGeometry x="180" y="210" width="390" height="180" as="geometry" />
        </mxCell>
        <mxCell id="XadpPIteiNEk6jwh_vKh-3" value="&lt;font style=&quot;font-size: 10px;&quot;&gt;Пользователь&lt;/font&gt;" style="shape=umlActor;verticalLabelPosition=bottom;verticalAlign=top;html=1;" parent="1" vertex="1">
          <mxGeometry x="360" y="230" width="30" height="60" as="geometry" />
        </mxCell>
        <mxCell id="XadpPIteiNEk6jwh_vKh-6" value="" style="shape=image;verticalLabelPosition=bottom;labelBackgroundColor=default;verticalAlign=top;aspect=fixed;imageAspect=0;image=data:image/png,iVBORw0KGgoAAAANSUhEUgAAA4MAAAL0CAIAAAA5pXVgAAAAA3NCSVQICAjb4U/gAAAgAElEQVR4XuzdV7N1R3U1/r+MUEASCkhCCUWUhQKKIJIAEwpsQ0Fhu3xh4yv7wuULfwF/Bl/5zlWucrlsoLDJ0YiggFDOKOeIhDJIgPT+0Hj/693e+5zznOc55+yzw9gXu9bu1T179ujZs0fP7rX2bq+99tr/108RKAJFoAgUgSJQBIpAEZg6An8w9RpbYREoAkWgCBSBIlAEikAR+D0CZaK1gyJQBIpAESgCRaAIFIHtQaBMdHtwb61FoAgUgSJQBIpAESgCZaK1gSJQBIpAESgCRaAIFIHtQaBMdHtwb61FoAgUgSJQBIpAESgCZaK1gSJQBIpAESgCRaAIFIHtQaBMdHtwb61FoAgUgSJQBIpAESgCZaK1gSJQBIpAESgCRaAIFIHtQaBMdHtwb61FoAgUgSJQBIpAESgCZaK1gSJQBIpAESgCRaAIFIHtQaBMdHtwb61FoAgUgSJQBIpAESgCZaK1gSJQBIpAESgCRaAIFIHtQaBMdHtwb61FoAgUgSJQBIpAESgCZaK1gSJQBIpAESgCRaAIFIHtQaBMdHtwb61FoAgUgSJQBIpAESgCZaK1gSJQBIpAESgCRaAIFIHtQaBMdHtwb61FoAgUgSJQBIpAESgCZaK1gSJQBIpAESgCRaAIFIHtQWD3raj2d7/73W9+85tfv/5x/dprr21FLZVZBIpAESgCRaAIFIEiMCMI7Lbbbm94wxv22muvvffe+41vfOMf/MG6wp1bwkRfeeWVp5566p577nnooYeef/75V199dUYwqhpFoAgUgSJQBIpAESgCW4HA7rvvvu+++x5zzDHHHnvsW97ylj333HM9tey26QHLBx988NFHH3366afxYozYNz3Q5PVo0zxFoAgUgSJQBIpAESgCc4dA+ORvX/+4Puiggw4//PAjjzxyhw3ZzJioHfmXX375/vvvR0bFQU844QS8+MADD0RGy0R32BPNUASKQBEoAkWgCBSBOUUA+8QDn3nmGVviqKCIJEq6//7726wXK12jUZsZE33iiSfuuuuuJ598Uq1nnnmmCK3ArOpLQ9fogN4qAkWgCBSBIlAEisACICAK6ekgzwg9++yzN910k+tDDz30xBNPFB9do3VrsdQ1io3dQoR9nnvuuTvvvPOoo44SCj3kkEPWpsDrF96cRaAIFIEiUASKQBEoAjOOgD1wnz322EMg0sb4Aw88cPfdd9ujP+CAA9Z4emldjzXtsOUJyXo46bHHHnvrW996/PHH53joDgs2QxEoAkWgCBSBIlAEisAiIYCMJhT6+OOPv/DCC3bt12jdpjFRBwIcEj3ssMM8ut/t+DUQ760iUASKQBEoAkWgCCw2AqjgPvvsY4f8xRdfdHh0jcZu2u48zutoah7aLxNdA/HeKgJFoAgUgSJQBIrAAiMQHuipIY+te7MnMrpGYzcnJqoCAVEnVd/85jcLya5RX28VgSJQBIpAESgCRaAILDwCCOF+++3nuSUUcY3GbhoTXaOO3ioCRaAIFIEiUASKQBEoApMIlIlOYtKUIlAEikARKAJFoAgUgWkgUCY6DZRbRxEoAkWgCBSBIlAEisAkAmWik5g0pQgUgSJQBIpAESgCRWAaCJSJTgPl1lEEikARKAJFoAgUgSIwiUCZ6CQmTSkCRaAIFIEiUASKQBGYBgJlotNAuXUUgSJQBIpAESgCRaAITCJQJjqJSVOKQBEoAkWgCBSBIlAEpoFAmeg0UG4dRaAIFIEiUASKQBEoApMIlIlOYtKUIlAEikARKAJFoAgUgWkgUCY6DZRbRxEoAkWgCBSBIlAEisAkAmWik5g0pQgUgSJQBIpAESgCRWAaCJSJTgPl1lEEikARKAJFoAgUgSIwiUCZ6CQmTSkCRaAIFIEiUASKQBGYBgJlotNAuXUUgSJQBIpAESgCRaAITCJQJjqJSVOKQBEoAkWgCBSBIlAEpoFAmeg0UG4dRaAIFIEiUASKQBEoApMIlIlOYtKUIlAEikARKAJFoAgUgWkgUCY6DZRbRxEoAkWgCBSBIlAEisAkAmWik5g0pQgUgSJQBIpAESgCRWAaCJSJTgPl1lEEikARKAJFoAgUgSIwiUCZ6CQmTSkCRaAIFIEiUASKQBGYBgJlotNAuXUUgSJQBIpAESgCRaAITCKw+2RSU4pAESgCRSAI/O71z2uvvebnbrvt9oY3vMH3H/xB1/A1kCJQBIrA5iBQJro5OFZKESgC844Auunz29/+9uXXP7/5zW/8DBN99dVXEdCBieKjb3zjG/fcc8+99trLdYnpvHd99S8CRWAbESgT3UbwW3URKAKzhQDe+cwzz9x///2PPPLIU0899etf/xr73H333dFNZNRHBilo6CGHHHLkkUcee+yx++67L0o6W82oNkWgCBSB+UGgTHR++qqaFoEisAUIJBT67LPPPvroo2jor371K4xzv/3223///bMRn6inbCGjvnP9y9c/e++991ve8hasVHwUQ90CBSuyCBSBIrDICJSJLnLvtm1FoAisjQBaaRf+pZdeEgS98847n3766T322OOoo446+uijDz300De96U2TO+/Zvn/ssccefPDB++67j3ylcNaDDjoIfxUfdb12pb1bBIpAESgCAwJlojWGIlAElhcB++924a+77jpk9MADD7zooosEOJFRAU7fK3JKIVJ3jzjiCDlPPvlkxQVTf/zjH7/tbW877vVPI6PLa09teREoAjuPQJnozmPWEkWgCMw/Ak58vvjiiw8//PADDzygNW9961vtsB922GHimn6uyEHT6Dy3ZFPe581vfrPvcFbb+g6YCrIScsABB8w/Qm1BESgCRWAaCJSJTgPl1lEEisBMIYAvvvLKK48//vjdd9+NPl588cWePdoF+mjvXiknSk844YQrr7ySqOeee84p0n322cdzTmvQ2ZlCo8oUgSJQBLYRgb4VbxvBb9VFoAhsDwI25Z944okbbrhB9ZdccolTobjjRlRBSU877bR3vOMdTp06P3rXXXepYiMCW7YIFIEisCQINCa6JB3dZhaBIvB7BAQsfaOh9957L/rosSTRUNvrQpi7DFBin46ZkmDH/xe/+IUnmfx0opTkXRbbgkWgCBSBZUCgMdFl6OW2sQgUgf+LQF7A5Gzo7bfffvzxx5944okekN8IDR1F1k79hRdeKLzqSfwnn3wSKy3uRaAIFIEisDYCux4GWFtu7xaBIlAEZhABzxWhob4PP/xwb6ff4Kb8ig30+Lxo6x133OFuAqUrZmtiESgCRaAIQKAx0ZpBESgCy4KAgCgO6iklF/iiJ402d/fcNr0PgovmenTJe+9feOEFD+kvC75tZxEoAkVg5xEoE915zFqiCBSB+UQAAfUgkZio98+feuqp9uW3oh3E2qb3L6B5LspD+ltRS2UWgSJQBBYDgZnYnfefJcIG3quyGJi2FUuIgN3Y/Cfk5F/yLCEaM9tkf+bp/5CEQr00dOvesiQsiow6gerRpXvuuQcr9c7RmcVkyRXLE2wmIC89WHIo2vzlRGAWJq9tY6J4pz81ySdMNB5hOU2hrZ53BAxmH+TGv+/kLx836yGYeUdmpvS3XY6JHnzwwdjhlq4ZxFz95ZLqHnroITFRzq3vFp0pS8iDa45qOEShg8xBPjOlYZUpAtNBYBYmr+1kov7dxIEtL94LEEJKddbTsbzWsukIJKbibx69FejMM8/0hz3+fWfTa6nADSLgnzl9TjrppK1+kMg6JGS350Q32GVbVBwTzZtfb7zxRiaBhlo8qKtz0BYBXrEzi8AweflzOG9ENnnlf+amqfD2MFEv8/O+PQEDHPSd73yn+Ts7m/UC0+z71rWJCIjxG88vv/yyo4G33nor2/bXkVhp/4J8E0HeuCgxMB+781t0QnTQkCvj0/S+D6sQdQvR2XgTKmHjCOCgQqG33XabdYI1iaE6vFC2c9DG4a2E+UJgdPK65ZZbHGEyIjx2Oc1tvWkzUW02VT/66KNeceJE/1FHHXXGGWdo8DTbPF9WUm3nCIHnn3/ebqx/7vEtysLCfTCSOWrCYquKEfo4tTkdXojfOK2BifpMp8bF7r7Nah0aaoSKhoj9nHzyyaYh43SzhFdOEZg7BGwRDJOXv4jL5GW5PrXJa9pMVAs9uComqoX+HI8L4Ky7DJ07w63CKyJg6B5zzDFWkz/72c88qnLEEUcIiW11+G1FTZq4IgI5jG4rZjo+h3PDesNEV9SniduCwP3333/zzTd7jZezvHYku3GxLb3QSmcKAW9W9m9zJq+rrroqk5f44NQetZw2E7Utgon6PuWUU+xddpKeKVusMhtEwPpKDEz0y/SWU2gGc418g6huSvHRByLR0OkwUb2P5Ti24bMpraiQDSIgFGJH3sfunPNw5l0DdoMyW7wIzDsCOU2Uycu7kI0OPM10Zpt+Ok2b6vtETQa2xh577DFtExCd/qnY6WDaWpYZAfE2A1g01McOoPf4LDMaM9X26b+dI8bArfvMFBRLq4wJyJC0SvQ8mROiW/EPW0uLbRs+7wjEX2GfIimYqCf5ptaiqcZErUe5gOEg/3TCElODshUVgQEBz8Q4duPj+ZjCsrQICIVyejyez9KCMFMNNwE5G2bGdTCsJ3dnqmuqzIwgYPLycZZ6mpPXVGOiAgP8cnj31I5qzUjvVo2lQsABQfOcaY/BL1XDZ7mxw9KXI5pOfFTvOySaJ+hnGZnl0U3Xv/jiiyzBjlyXB8vT723p+hEwefmYvKZ5pmiqMdG8THg9EYIdTuGhs0Q1sLp+C2vOqSHAPn2mVl0r2iECcRT55mExkikQEXvBXhUSz75DDZthOghYHqRH1hihOm5sGmY5PhnXO7QcM10OBzMzF376WJDk3PB0mrlstcAZbXj9IMzvPzoL2g4+liHsrCVsy+Q1VSa6fkQ8uuWN91zGaqELh2pzFG+HTmH9lTZnESgCi42AmclHVMxbe6ZwRlBA1A5XngNYbGAXrHXequj5+mH2McuwFjbjaOlbXv+s3V797nEILyv07ViqjU4pp59+uud0vTRq7bK9u2sIgNqrIR298Cdqzz77rC0pf7f7kY98xKpj1wS21DQRmFEmauh6qRUnnvWNCzx99IUCXIMj56vx1Gki2LqKQBGYFwT88ZWPk/heaLClTFSERlwth5EEw7pgnhcLiZ5eNeqtwKhn4qYJiIqxYaKnnnrq2kzUOufxxx+/5pprnnzySQ/pMwOxOmLNYq7nC4e50BaqHq/5+esfUPsZnNeIZM1Fu5ZKyRllohn5ceVsy+LSysZbn5Kuh7LlMbqBMtwKPR12XrIzkk6Vx8/RnMmclIT0U1C6nyklJUKGgqO35MndQZSU5PTtWuahuJ+kRY1Ul+sISalJaUOR3ErmsVpSVxQeJIyqlHYNmidnhOQ7mYcqhsZGw0FUKhpaNPpzsrpB/phiaUKqiIQoNqQQNZqS/JO6pcahLWONmsw/2pbolhqH6iROdnc0dCtdmYKDgU3W3pSZRQCTQA74EyTDS3zSlVuhrVlQYIaDytuhay1bAfLWyUQlkRsvHM1TTXpTaNPHooI3OPvss1Ud5zM4vXgS6WJy/r3p+9//vmvPIHs06uCDDxY3YXKJnsQvDb5rcHorTivujk5Jk6UGnzbmDIeCA0qDwsPFUHVUSs6hRX4OjVpN56HIWO3SB7VHhUcr34NWg4TB4Q/5B/WSJxkG9QbdjOgf//jH/tnOnwO9/e1v91LMgw46yILTALd4GDSfbFdujbVxRc2j8OjcPap/7kb+qHqTo35QJthOQrQi4AMOLkYluB5uJX0M1dQiz2rQRfPJUtNPmVEmevzxx5szMFH4io9+9atfddxKij9F9QY4MFl3PvLII95OzN27xV/Yr0dVuQyO4KWXXnrPe96Tn9ZJwquciJcYi0y4Jtzrx1mqAwA+OsmmyQknnMCaeYp3vetd5BN+/fXXq1p1733ve6+77joFmfjRRx9tr816Vy3I8UUXXcSY+CxraIEWmnA36iXf4QHjgSheyV4PPeXnki644AIy0WvVGScXX3yx4j7kn3feeUrdfvvtrq2nTWPCNnyZdEXoqRZ7Rj4qUq8mcHPapdToHoSdIJXKbMMCgIRQyVLetZfWuhtGlVddGq6KW+WDSKtp4olvOUWgtVdDyNd8QGm4ca5GsBD+8MMPBxASZLj33ntJ0F4I0Dn/XDIWCtLqNEFZ13LqNeDT5/LLLzcq6OnfXynMp8BHcYCrha+58847qedCNip54AAIekHK6LBhCW5RgA0Ayl1tyQvniUpbIKxG12YaCmipzD/60Y/s7JhpWA7k/UzztRdQqcLuj7Jsj87nnnvu9Idra9wgAoak0BSfwNI2KGrt4oyTxTIzNmbgrJ25d2cQAa6AtRjpXmqjHzkHPpBTcnLMX9XzKpwPb6mjKZ+3gvMwMmOxHK9+55O5uHiPvGOYQAVNW4TIZraSzvea10wN1157bcguF8S9ewecbNJNQKrg/XhvlaqRTC5OdSeddJKqua+bbrrJ+oq7I1Nmxd/3vvfRYRRYrZCToza/qJ2XM6XybxwdsT/96U/JpB45Zl6K5W0+RgoN+VJUz6zkFmTkJJyTV5GpLc7ZRarTcJOCeZZ3vfvuu5WlfB7dM2eZYU0rYz1OAS43k5qGx6vTTUUUAALh/i4kk7t5QSIHrgrziPwA5/Z1VtquFTKoPTBmgg445gLznSYTLt1UbuqHpMw6lxx9BFUdB3yS9TtIM6mZiEEBATlNYWmCFikuT/64i3sxQyES/jxSt441009ldYEL5CEK5+++fMNNe53i0E0gVQWZuolK0DbjQN4tOWlOVddaTfOzzjpLhzKPyerUQuerr75aBggAxE89ayqnZBZak6WmnzKjTBT0PoEjW2kMbuBG0g0bnEZ/DGFRg0QRpumC6btmHEaa8WMwMA6jlw2xZsV1hulBX2JsycYubcew0QsvvBAVYyu4Ec7BKI0cEgx1dmBI6MvwMPqceeaZevfKK680Qlg/e2U9FECkWJVupiEayoXRXwY1GglkUk/V8rz73e9m8ZRkc+yDhurNkJbThSLEciLaoggmRLgUahjero1wWo0yUUII1AQXGqtepaIPZSSCQvOznIKVVvhpeo5/5NrcinDjiqG7VlC6UYcTU1WLuGPZOAUogY53U5HqJKraNZlwBlr60bDhZ3lbA4nO6Tg1aog85BMl3eg1+HE+g8e7JKjtrlGk42ius0BBDgQMJM33oSR41WJYStd9MvhWKm3hW/0RPAXSlkwkSmUaIJNKIPItBRpy8hdkqmL01b5MEUpqpNj0x2pr3DgCxmwemma0epM9jw6cjcuPBBZFPldgsJgvy0Q3C9hpyuGOwlpCF7hfDuGHP/whT8Kf8FGcDFfAw/B1WcDLgABJ1/XKciacGz+DO/KZjI0rY3ViHCaUeEstUlZdJiBOj7dXympcilrwJJwJMc1UpSADdotzk8K/cXcqMuOIBVCMY+dX3TUfeWP3GBM1VXFx+AodqConIfw/TeTnb9EgAjnwxHdMc5yh6vhD/lkVfC+FZaCbWrhBExlT58Z9tDFvryPZGU3OH2imBlVw7IAyLkwN8pBpqgXO0KGq4JZplZgLmbSlnuZDA4DmIAqQrPYArkZ4uoZ2+LGxHKhBAW0jXaVqpIMmA1Z+HedaA/l2t77+9a9/7nOfM0hp4qd5LWEOma+44gr9m5lFpQqSpl0gMgsAJxRFHq0DoEpd6KBMWIq41kwdNDSTtsqCWtuZCsApSbL5Gkrk099sDt6f/OQnqgZ4qoaGFpHGnOAAGRDB04XMKgK+CxXpFxdmOpJjXXQz7UI4gCvC5GDFWspEN+pSGE1CDsab7sxQ1Jcf+tCH+H0XFli66gMf+ACGoScuueQS9oEt6STpk9VnWCqr72XD+RiHfuIgZGZt/EvG4VhZmf/nf/7HiEVh3//+93/jG9/gL5iadZIav/SlL2V0GVGUpPP3vvc9w8BJat+ZBXklQjAw1sZEaG5VRJQoJpuzy8P9sT/+yE+uxMjEX9n0N7/5TfmZ4znnnGN4DIqpUUVahEMb8xAQVM4CVxNYrSGkXWQaw2zUULFC4ghoaHh8/OMfVwoVgwDzVe8kXNIBYvzTR2NVZ5xYhZNviH73u9/VNBVZRAIhxY1/VcBKdVonXSd+5zvfAbJKtcLAMOpkRvq1Ok45rJqD4E2UMsCM1UsvvVQbP/GJT3B2epMOwFTWGt3wkwFt9c0wPvrRj2oLSBPLTHRBTnVpPpXUq9U8vhYlekEB1+mRyYY3Za4R4IuNcQ7dnMFoeY+tYKJsj0FyGgadT6x6rnGr8hDg3EIfOQ2ujIMV9+Jj+SiumMfQ0Tyefg+rCE2UGYvCGhVnDBhDoiEf/vCHQyJxDv6HE+OR1DJYi/zhmiqVgfNnVCY40RYS+DQGzHPG5fKQrJo+LByjNX8xwrFe41EJ+cEPfoChmq2I5VT9DPvk9DhkLvQzn/mMeSFTj5mCzrLxn/ykuUCKeYoH1hBkTjSOK6aYb1MABVSteIDSIqq6VvD88883+X7hC18QuMGWPvWpT40OPa2ggAy+P/3pT5sdMDa1GKfmO1NqoiTigmZSxb/2ta+RgzWaZcxEef+lTqGDuzITpSM+9rGP0Vy6kU4HEJlZaKhHHLHQZaa5v/zLv5Se/k18REu1CDLQUCPh4Rv00SKTLyUpT6ZSJiDdpApm8MEPftCeJ0L5n//5n1JQTG0ZZaLyk0y+BjIS2Frn0JM+IdlgVJcZkGIsBPE1o5lhkQTt0vvqpYZ+VxDR19emaQhrQg6NWDNARkdEPeDQRF1IhRT6W4pcdtllJkfdZwKdkaE9ozHRHaKToBeuppsNdeao+9mHjrEvgHdiPMYP3I1M2XA1w0N/y8limIiBZBEzWpHu9GEQus1dfSnbkCFDa3JSkR4FfDNxvIdKLtgNX0AUE8lGBrsx3mTIATWSyQ9jNqK4MLSSSoY6+2M38lsg4l4MF2eSX13YksHmp2vGRAL/ourRhoDik5/8ZGiWcQKEUbVdw4QaPsYDyzY3+8bXDXsyFZTB8JMzK8JBuDxapF0+AUQzqW200DmmT5rmA9n4HFXMCIS/Gm3NcC6q0FI14sREqcuHqnrQUKQDCeAigY/m+2TjF3hhKdIBlRWnn/BRFqPFpyFmYOPu0uGcthhymkBgdIYhhVkLzX2nURDgkTMZpL1qYQYcolv6dOi1Uah7PV8IsBNdyYknqmFwMZtNj1kaI9ZjpkzyE4eYL5SqLQS4pmzFJOThGnHhczgZcQe+i9/gl/g0TpKv5t/85DTiHjlSwQXbX3wOHmnu54vklIcQhuEuw0OY+Dd+hpwwQgbDStMFysY3mox4dXREcaSTKzNP+fByvonlVzkoMuXnk+PoxvqRAiYLjt1+NAbprrFAGT7TLZVqBbXF5GiiigTSOEnEjsDEVoYpTNUA4falaDunqqypljc21aZqUxVemyAOr84zE64JZqUVNaSbqTAkSXsdY9A0EJlAJaJNFFOcbnHXquax1a4KBfOkvPzkUIPmMuhHY9wmtbnDlIf8AdAI1SjO308gwFzOAS6Tix5JVFW7tDSKEQgoORWMWMVdy0wxtaAZ5ik6w0ovwGdyPaAW/c4ASKCqvmBILkJY1cXS3NKbEKBYJmWlQkv0kRTFEQZFiNL1EjXfhxVpI2xdsxmlKACKbMSDjm6qIBaGY5P7mLVM+ee8MlHd7MMc2YEP1HSAn8ZAloaIP1NjoGyF78B+2KsOYC76g4ko4q5hPDokdBtTC0ExxgYz0tkGKgONMyJKRxrDQ2/pXdJ8kuIne/Vt7DHNxOHlpwBRfiYbE+Sk5JTHYKO8IcpoNCGrNIPB8GOCGkuBzGoMUUokKDtpT6yTmaJ01kYGCW0NJGLj6eSHmLZonYuQeOPNddqr+REeqjpUpDlsOtURG9yCGKyMDR8aagLXRkl5wDtAJCdNEgHNOSEDSb1qwafjf+lghacLNMG1KjSQqio1Msk3wAiUDjplJbqVWGZ8MdxUQVUeSrahLeQzjyjjmnxtgSo5vLMBDH8Fw0R/T4p3242d6BEfcjBXPFvK0JxezCkCepmRcPfpd2Zjkov5bbxFMXvmxLSEKAyEjcushG1BwKjXm7rShxfizfh8i2ETPPuJ4+VDMpUwqsEVcz7KcrmojyU35fkNbi1BAW6Q82FyfD6PJCcnxjGSrwghpgwyGSThFEjbuUrem6NjtFyTUoNrlc4xkqBentMt1fmeBI0CbnFl8qNKMlDAFEOsioilgOlGXSYLjtEt3pUa/DNW5KM4/VWtCS7Md4kXcNFD3CSbwqmdZJMdp4ptaxcNaWtoTM5Zye8uNEgwcFRBDS0i3E+3aEuUD5TMGvRRiijKk0lbdFOKyVEe3C6skbZ6BwfQNHOKvktDEihRnZbipmTCMHwAUD7UgIl+iW6EqCg9otXaQgeKqcsF0CxOoArDEG5tJ3nFlsosJ1E6GrzyU4z8dKtrwknzre3pStKoNEjTlhBrGmYapYlulV8KhbPt6UIKgcBUHX2kEEua9vqkabPwPa9MFIiMD9kykQRHnaRLpDMmQOsV1s8o+Q7rsFGsmWAol5zJPNxlu0LZjFgKkxq4i2GgIjFz7DbMid3IIFs6Hl+hT+ToaXZmYOTn70nN68bB6BmQa14mJsVEaMgl0Vw6ZeivojBORVz4SaBbqUstwjkRmAxaGiqW6oZvJpgnpZgyAmcoagWBvIlPQDCijLcMaQUNRcIHCWph0FGGYrRlzQrKwDdlhEjXluiZgkrRGcIrDkLoDa3jaEQX5OcIsmOlCghrkcX9cP5aRZE5FNQcCwzVaXj0GWv7ZFuUBf4gIf6al7FS1wWE8FCDLUVa9ss0UGNV5Du9MFlXU+YLAWZghLIBQReGyjB0PcvceCuMIGtLMk0M2MborLxx4ZUwTQSYBMPIFMA2RLj9tBw1m260sXwAACAASURBVHCDdofFSs0CGBj/yUHx0lGPdSml691NClE8vAxMjssNdciteDbXbplQTEB2kyWqEW/AUdzigrhH/pCn4hspwB2REwkcO2+JoTI8W7oqHW6tCNeoqRPFCasuk5dbgw+UmGmFGw/xoqGmSXfBE7oO/3aX2gzelDc42FRtOPzHf/wH3dSidQMgKyomUatBp4pk8NM1BTSN+4UMt68iSg5tDFaj04q7ZjqgJQ+VBq0IN9ua1IKqBkoBmu1TjaJnNNRTKiUZ1TZXRhkCZR7myqEJ6VOZR6HLNSHuTjYWL9QQs7PZVhcAP6w3OamdicYERKUkSolFpV+GFg2kAgIr1sXFOfDqm/UyHk1Y2zwmtZ1OyrwyUbiziaztGJbusbawOrEbwph0sI0MpoOGGiRWHjlCoTvlMXSlcwfSdfYo0MydUepyw2YYDzJY2jLuhMfCFwdS4sLHZoe4YEShUwxIx7MMHc9oaOLDs+TwimVigoIqoolELoYQmX0wyMGpueD1DBiWTRrLZrh/+Id/OBiiVmvvMAaigGxUVcopGcVtFHrAC+XSKLXIDzHbKDIAh5m6JQUyXInNAjNoxhvFpGSGViPdzN9M3+JMc3gZ1RECSWKzWJTilpkYeioaxdBPGJI5MNSgTfksl2VQiyJIoYosCTTZT6W4A6gOmHNJNNechEjHhooiPmu0JfmBT3lklMLxbi5GRUk08egsp5TEVpnKDj3pmCb9OYMIxCaZh8mA4TFmWwf8hpHFwjeisFHMTlgUA0ZcjIthnG5EbMtuCwL6zni3VcLjsRm2wSsyEolcH46if20H21PS42acgQdI51s4k8FfueD0FORLfVb0lhitaCtvg7QpLhufPGyyJabIOTu1ZWbhOXl1LhEyFMvuHH5DiJMnfKPDAJOgyaAJpozBA5smaK549o5wlMGNa47ZR8OVym4e4WaNTCLy05D7hRLdrOS5ykkmCgTjiyN1Xo4c2VCiYXab1BAy5o7BD/upanMBFm721Bc4t+4Ai7k7zZdBvXQYxCqlIRQLkyZtECiPsqHd9AemcQougPhJYHKC1KwEioTA6SmPjzyJgIxqLlGPg0v+2MBwrckregCJ5KvLvKYhQOYx+KLMd0rRkKpO1qpOoqi8nIroeqqqSBsjWQ+yBJnlZB6TkMKctZCvgwCYhgwEdzL/dqXMKxPFTgwJVph9bb3F7BgrlonrYJM6wEh2bsNqEtPyM1F9NmpgGPPuKiV9dGCwADYtyM8jsMsYlr4xvLFeBIgdZABkteoWM1K1nma1LJh8amQIueZWGNzvt+1/8Qt1WQa5awCEiRrbNKQwU0sglk3TUx6ZmRqv4Vqi9sZEOCmUN5SIfDXS32AYNSCWajPILeOWejJ4jorvYMeUYej8aY7YGgYO1KoF/WXo8KQSgwaOJgzmTnj8MrUpLz9TFhKQThqxdGbu0lWnpcDR8DHHRHMYCn/y49ljEtL2bJPuoKq6qO1C1QaVT8h3PDLYgyGxOsUJbtVpnarjbkabTweIKTjalnRlWEgyqwgaHKWcrAik6dlBFAPT3mH0aqNbJaOjUM/vdeyWu2CQwvB+shDWpX8nLWqNZioV02VIpgRmaaiy3hXXSGvI6a1ZQyCOXVdylZO6cVacjHmEAXCtfKwPFsVdMyF+yVTCZXGJMkhkHrwuH8hasAcpTEVOGeI2rf9ZY84Wh2pwOHhbqg414aZkYGD4BPV8TAHcqXoVQdE4Z+eyzFNewDKpM39oXjPBZX6RwXzk8RdUj+sjTY0h2YYA5V3TSimaq8IUoHYznUrpw1dDJkt0tfOlvDTFtFSTg0Y2lLl9NEiG6CmbisjngcOhoyoFyFEp9fhkVbg2MBUPvPqCAkpJl0F+oswyUlzLb1qRTjJsTR9uSdcWVbsVBUxbimPk7tJfA82V1hKak6oVoZU2Eh5mTwIKoeP0uEmBtqAIEXQdDWWggHplI830rTrF13AmalQXxcwy+kVfw02K/jWBwgrUNNQiogBLYWqHeKSxhHskA01nSPKsyET1LFSzNk5HD9BBddJItitlXpkoR68LBe3ZOiNg2b51pN1eIw0TBbo4qJ+GPbPw8HjMgjHFOFiSXh/FXQ/pUf2Nd/o2Skfvso/4HTYh+DHcykJZWEUiX6AutsKIXfswDtZphUpbAyx0UEUpbuYTTBW+NTzyeLsUqx9BOC0yHjTKLfoYMLR1V8q///u/k0wCmYyJkeFkiWJGLMvD1RgroqkuipHG7rU9GWjIARls2uIW4TwFNQi3VcEzkmZYgs7gtzJbwzqpxIGi+2SC1HjAqjWThjzI6Dj0UxN0mYn/v//7v3kKObVOFcgoKqw5muyhTvqoUW/6JkEDKaMU3ZBXavMdfL3+5SL5nTH1FOGwSPZQ6tAWRJ+c0bawBzqolCthLQxpjIlqkXFOjur0nbAZyXp2DTR6a44Q0PtMwrehrZf5DV3MEpj0TrXCgDXE8oYdpmvy4D12SkIzzx0CvBP36NUf3BED4Gw5EI6Xz+HE+DSP+8TB+rba4aY8hY1K+smVcSx5bQgPbPMnHNTsw/ZwHV7UPMLXDbAwUd6Vf0ZQJJqbwrr4Nw+5S+SsTHbeFbPGUplXpCHi4piZC3JoYvkktGF28JMD9NPUgE65MCgSSDNG1MLCCedyTTrcOD15TlMM1x2KY9rVrpA2mMCHVjRUlzfGwMcHOJpsglALV6/ho12vlFu26UhWluNNyCbNpxLFKINqJ3BDuIkgm3g0+cpXviInqOFDT1oBjZ9XhRlHNmKpp5nCRj4mKS5d84mVh/78vIshhqJrqKRTTFX8AwnWEriHVqSIzO6aVoSWoapPVQefeAOShzl3tJm5piFkoKG4Kd78K50+ZkNtZ1HmO9pSBg6mac3x0QXU0HFf/OIXVa0UWMSzKDZZhRRTuc7VF6CQmVEFulSxYpFtSXzDP/7jP268YiNH9wOLKPiOsqJR4XqIEbAYGYyKddZr6CaCrUuUyjwR1qgj9ZwMLhioW0yEJuiCpaEpgZlCnNGoOnEy14QwQTrIaRTpJx1sTmJq7NhBYCvL8CRyLFaMRj+xKJW6kKhfCdT3rJlWLjgm7iBrPj9VjYPSJ1BABkQ+5PMXJjy3DDmLOe6JhmQSqGoujIasTQppxGqCPEaskZ9Ws1F3NVlOA5URZ0Id8CSKn3LXhxCaay9AmDhKRzjQchdcWofSQQA+biU/4argNzXELeOQkoaxivSvTiSHBGPSqJBBZrVo4KAzmSH0A+1WqWuAa1T0j7VQjBDyYQttw5K2cfTgonMClopQT1+rQjpAkHgq8W6QVLWOgLkU13K6mGxLFjDWrBqbge1adfqRHLgppckGLQD1DtuQSDH9ohciU2JipWsbsG7iMQmPM107c+9OHwEWyyZ1rm5lmUwuQZEcj8ld3z5jusnJ+PUvusC5Mz/WG/7BwBLjn35zWuN6EOAT+Hmdzp1yIy5WLKVP+UBeOuvksTx6X3xBogt+iecxZTAh5sQM2EAYJ8vJ3MRjSMkbiPjzUW+ZecSkIMxh4pAzn0QNwz8EGtikurI4Vy/NeSeu2EVmFjqEXakUnULRVMevjmoeV8zI+bd4YArLI6cUvJPMzGU8PGQ0ClnMREas2jPbwpCSplEeHvVUFy+nICGao0YXdOCEgawimCjrlrZrpgsZDDqYaEI0pFXesimFnqoAnQnR7GC65K59QjBGmy9RB9EECGTKoNdcSzcB0T/S1KVFNCGTJra5NFm7Mjun4zSNYSiuLI+tReTE/2eqzbROJVBbecpvtpLNT/Lpn7arwkdB3YEgghcOQy+oPWEsXkIpyADWFKwVSAVN1GJqo5icqV2jXKsIdBDT4+4qhSKriGSinB6kmHR9QRP54UY9TZBBLZogMcjgyopoJt1Wo2GE4Nam+43v7fCT4ffUU++oQY5ez0FMVH9kMGTaiPZWG9yEXgE9DiGPRvpphWEIsQAfVsg4lNUTRrK7yuagiTwMlw2xAIlEMRc9rdeVYg1Ggq7SuzFleXQkX+BCQYlqJJYxudZhgoKcF038RHEYugwye7tYTEd/qMJdRuPbqNAELWJSOts3DROlV5BRYsmUJ1koETfKws6xASkWtSpShP7YmHE11rsqwufoY6aktuYQwr4JhE+MUhHZiDViyfGTYjwFcwnL1DrKRzgPpVHyaIvRAj1DQtvlZ+6sWaLqskyXh4mDfcwPKq5p6ZdEc+XUHDgYIVk/qAjmGdj8CJSSJ4ohxBwK/DNCMov4dpe2NHdLEcrkseUV2wL8DD9o631MlOXQwQVRekQp0rw0TncDWQroNJNDzOFjDVHjGOb9OacIZBTrUAYsBGLIsNIssbgFJsEG8kkDM/EzM+xTdMEi2TWjMhIJiZOZUyiq9oBAVo/xdZOwsAoeXqezFvbDn3CVfJfolMx8Y7aDMBv+lpvNcppR8bSxH3SE8fAwiiMZ/A+fhlhI4cQIUTVbYlTuSuGCmCUHyIcrogo5E4vl4VXBVunMUJVVHQY56aPIlM0LUClm3lSQ/+cDCUcolUUcNYo0wl14+zJnSCBPbjYkls5mRi4ReVIdX/2tb32L2pnLApR6OXPbgCTIRhOu1eym7fLz/4prCAz5+VFsM6PRh55Qko0CmaADoBQTtOYn0VxALNhBB3/jF6rwoWqqzgRkxndhgsaHDFWZaWVKHaoeKL5eg4l0FyQEcD2ogSGdFgwQM4FqiFmSJlRNfyHl6tUu+Eg0WcAEsKMNdK2NEs3IOhfOxIJL60Bhqk2IROsoDC6zpBS10xnaGpIpz3tGhW/FfdUls7vmSj2rdXQOWyU2zBghVouCFKYYIwSjgtpF4TH1tvHn7xc6G69em4V/wnx1iZavKFP72agjLDLYR1gxz2QiQ9EfqtCLulD/JY8eQsh8s1q39AGgdYYWMQ45pbjOOklxdxV0IZ2QmHWWWSEfaiFKn7EwF4RnPLAJAokKVvRBK+MyUotsUrROolpYlfQYqBrJ8Ul+wt3ynSJp0aAh63SLnIQkVUdJ2rKYmCBp7tKTNGXVpQhtx0AjPDKBMwiRzTU93U1+EoglQS1JIZx3A5Gc9NfwCFfKsJeHJqCTIRoq7qc8GihFdfJEZ4k0X1sx+qd1smlUVA3aqlBpUlTqggLx1OlrIPuEeqbjXA9tcU2f1dqimUNblKUDbVXHeKRTIED59jM4R0+oBgf5d8g5LCf+67/+i/PK6/THoOjP2UFAR/vE+Fmy6Q3DYBixE13vw6rlMXZi+S6YX6IL5gA2k8EbJzM7TasmYwjoXCepuBRLa/P9pPNM/vhzY1/OyQlb7/MDzINHisNnALxNDMZswmBkYCqZtvzkJzPpsCJuJGVd81TxP+4ODocOJMsTbpHISIqoWo3JbBbwiRD2GZfoZ1yfUlLGmi//MDW4xYHHsyFq//Iv/4IkYWnIoircYtiDPavdh2QKDB6YGv/0T/+k4X/1V3811IUGCKd9+ctfJs2DSqiPW5l/4zaNLHLirodSSOQ///M/U0Y8iM/EidWSCFGaoPZMfEPzaUIsmQAPXPJofpRPL6Ssu3Hv7gJKh4ZhuyslsLuWJ1PY5EScqUqpzN00UXVE0VnZMXxko9ik5agrtRCogQrq4qia1mXalS1o6y/NJA1Qsg2kAubhJ1EsE5+c6VylpEQxtVA10SXXusy3nOolk92OWUh+ovXOM1huicismGH9idi50ynyI9yjC4AxCXMQE4V1IoJjqgM6WK8BymquJEV08GhPjNWiz0YlExXTYQ3WYaO3pBg5PitqwoAGux8ypEh+jjk7NrQGy4m7WbGiUeErVirDWKPG5KwmnFPzGTLHeY2WXVvn9ShmDToqUNeMgbxaX8s5ufonap1tGWrh9UYVGFzkaOJqqI7B2J/zhUCGtmFo8simLWMT8kQmMu+aOIWR+ApWmtnF+HXBeCyqDY21h9V8oVFtITDm8cYwCYsa89JjRVab49eYkjK/pC4WNWpULHM10jymGyFrZDaZruarUzvLTwhtTOyK7hTjMQp44ET1UsSQAYWhQQ3VwWFsZlxtopQZsJnuJ4NZKyowKLn2XY1acY5QPGM/csYUWw0oSo5NFoqvrcCgp+pWM4x1zncRtaJuFFtxhtJ8HTTWobP2cw6Y6KxBVn2KQBFYSATME6Z/XjuO25zqIzghvO3RAROV3VJzgFnH7LuQCLRRy4kAe0YfccedMmzjxUgRXRvl0KHCQs6o1RD52yGq4ovGl7IUGJW2w4LNsBgIlIkuRj+2FUWgCGwyAmZEYQa8U+An30IOqKr5dZNrqrgisK0I2En//Oc/z87x0fWbtwHi1KnV2ih/RSiHs4lht+tpGdrqL9oJNMRWixquR07zzCkCZaJz2nFVuwgUga1FwLwYMmqiFbPxbZ/LBXq6tRVXehGYLgK2myd3nHeogtHh4Z6xbDlXsOKBujUECsdOPt+zRv7eWjAE6lIXrEPbnCJQBIpAESgCRaAIzA0CZaJz01VVtAgUgSJQBIpAESgCC4ZAmeiCdWibUwSKQBEoAkWgCBSBuUGgTHRuuqqKFoEiUASKQBEoAkVgwRAoE12wDm1zikARKAJFoAgUgSIwNwiUic5NV1XRIlAEikARKAJFoAgsGAJlogvWoW1OESgCRaAIFIEiUATmBoFpv0/UX6A+9thj/tZ5+LPXuYGqihaBnUHA/wv7F+CdKdG8RaAITAMB/4X96KOPeuflav8hPA0lWkcRmFUEnnvuOf8tN03tps1E/R9DZuj8ffM0m9q6isA0EXjllVf8D940a2xdRaAIrAcBE61p6JlnntmpP7dcj+TmKQILgIDJS9Bwmg2ZNhP1DyVHHnmkv3O46KKLptnO1lUEpozAE088cemll0650lZXBIrADhE45phj3vKWtxx66KH+EGiHmZuhCCwbAjauf/CDH0yz1dNmovkfZ38se8ghh0yzna2rCEwZAQHR9f+D85R1a3VFYJkR2GuvvfzR+cEHH+ximXFo24vAigjYmp/y5DVtJqrZyKjPlNu5ItxNLAJbh0D/nXzrsK3kIrARBPxheqehjQDYsouNgNFhjEyzjX12fppot64iUASKQBEoAkWgCBSB/4fANsREC38RKAJFYCMIvPzyy88+++zU3r/x5JNPvvDCC7/85S+99MPT1tOJdnumc7/99tsISi1bBIpAEZgLBMpE56KbqmQRKAL/DwGvx3rggQem9nTn008/jYbuvffe999/v2cup8NEDzvssDLRGn0RKALLgECZ6DL0cttYBBYKAS+Dc6Z+ai/JEoLFer3ZBAOeGhOdWusWyjLamCJQBOYQgTLROey0qlwElhsBr4H0Fp7f/e5304FBENRe+f777+9pa1VPJya6zz77TKd1raUIFIEisL0IlIluL/6tvQgUgZ1GwLb1qaeeutPFdrWAt+vdddddXkJ5+umnT+2c6K4q23JFoAgUgTlDoM/Oz1mHVd0iUASKQBEoAkWgCCwMAmWiC9OVbUgRKAJFoAgUgSJQBOYMgTLROeuwqlsEikARKAJFoAgUgYVBoEx0YbqyDSkCRaAIFIEiUASKwJwhUCY6Zx1WdYtAESgCRaAIFIEisDAIlIkuTFe2IUWgCBSBIlAEikARmDMEykTnrMOqbhEoAkWgCBSBIlAEFgaBMtGF6co2pAgUgSJQBIpAESgCc4ZAmeicdVjVLQJFoAgUgSJQBIrAwiDQ/1hamK5sQ4pAESgCRWBzEHjllVeef/75xx9//IknnnjmmWf89O+y/uh1r7322nfffY844ohDDz3UX85uTmWVUgSWG4Ey0eXu/7a+CBSBIlAEJhD49a9//cADD9xwww233XYbMvrSSy9hom94wxv22Wefgw466B2vf/zr7O67746eTpTe5oTXXnvtN7/5zauvvkoPOu+2224u6C99VDPpuSunu25pyxvf+Mbk3+Y2tPplQqBMdJl6u20tAkWgCBSBdSAgDnrVVVfdf//9KNrFF1/85je/GUXD5LDSBx988LrrrnvhhRcw0cMOO8z3OuRNNQs90ehf/vKXaj3kkEOwZ8RUi1588cVRPQR3DzzwQGRauna5dcABBxx33HFSpqpuK1t6BGpwS28CBaAIFIEiUAT+NwKI5s0337zHHnuccMIJ55xzjjgoJip2+NBDDyFqP/vZz/BRHzT05Zdf/vnPf+4W/ucjoCjx5JNPfvLJJ++9994hDCkbCaF6Qo84LqaIIL7pTW8Sf1XcXr9N//33318U9re//a2cfip13333UU06jogvEqug67e+9a2PPfbYI4888tRTTyHK8pC25557Sj/++OOdK1C7QwVnnHHGkUce6cJPmdVCfz8R08MPP9xdGpJ5/fXXI6zHHHPMsccee8cdd8hJYCgpKKKMAwlOLEDAN4IOnF/96ld77733UUcd9fTTT0tURAo1iBJtdZLhlFNOefbZZ++5557TTjtN1TMYP67hzwICZaKz0AvVoQgUgSJQBGYIAYwKfzrvvPPe+c53olOoVZRzgZ/dfvvt9utxsre97W2Y1he+8AV8Ds3CIF1gfiKRuN3XvvY1pbIDji8inXjeZz/7WRK+9a1vka8WdPMXv/gFMoq8XnLJJb7dIlylH/jABzC8b37zm2SedNJJRx99tCJIMKr6qU99SkTT4YGf/OQnt956K7qsdlxQFRdccIGcZCK76CZlfKiBN99yyy1nn302gignIShjmChqe9NNN9EEo5V4+esfvBnLVDU5J554osDwRRddhM7SB82VLjMqjKNTG3mFBnoqBXPFaNXiFhzuvPPOL37xi3/zN3/j5wx1cFWZJQTKRGepN6pLESgCRaAIzAACiJ34IrbnMxrJE+8UAhQdFJ5E4K6++mrECwF973vfi0S6+OlPfyqgiNj5RuZs3yORmCLmh5MJcNoKFzeVAb079dRT3/72tz/66KOYnAwuCFln67FVRZBaRBD7FDTFL9FExBEJxkHXKWc0G+J7xRVX2Nm3a/9Hf/RHZD733HNSSEO+HY2966670OtPfvKTODoWfumll6KeEk8//fR3v/vdCqKwSLAMGo7IhonugiYtslQIzC4TtX2QoW7FORy1trhk3IbHbJ7OWSrTaWOLQBEoAguMgOkGlfQZfYLHlrRYoNCju7bO0T7hTInCkGeeeSYmKqZoL3vgr8oKH5rCXKC2yuKOQqE4XzblEVlFZEDgssG9TkhNkciubX3b8QTSU4oPacKfeKp6fbBbNVJMUDbPMA3yMWnnCjTk4YcfzukCLPnuu+/2bZK1n46PKiUCitqqK/LVZfdfbNUsLKdQKIHYtsyEaLhEzDvnTUPi1Y6taiNNMoPTuTv16+zoZcg2u0yUNV977bXXXHNN9kHyZJ+Avx0EGwof+tCHZvCc+DJYTNtYBIpAESgCQQCPNDfhbcgorokO2sL2cVcc0RQmnoJiihQicAcffPD5559vkxqrw/9wPgHFyEFq0VDEcf3Aon1qxyZ9Y4oKpjiSJ5CJ/CXlxtc/riVSb1S+ECbdpMiccA8WSxrdTK9hiq6xZ01LSEgTcFAk1USsYFoamXlAapCviLL5icJ+//vfN31DKYdTySkTHe2LJb+eUSZqmeVEyw9/+EPWbN/BSGDBGXjOVnukkU0zbhsZRrJF21gvGgBGu1LWZ3PRwXyEtbUGWjQbonTmmDiyeJM0ARQWnTkJDgRMXboDQMk/F82skisiwJL1JpMWLVgxQxOLQBFYAwEjyERgBNk0XyPbTt3ijdEy7DAMbCgrxfQkTKjS+F6DNxSQi5YN9ZSCqIWKUUmI1NDm5HE1e/donGyKCBwKLkay6oRInQ3dKSVlNgXYGcfqUrsUOOS4p2uJmJ+Jw7WoJB1G5Zsl6SDFHIqVyhydfQ8tynVuySk9gdWko9RkuhYf9T0qfCgi0YzsEIInlpTFv83gABFGRZpHi/R6aRGYUSZqQ8EpbEMa17zwwgsNeBSNESNnlndO2/gY3kYRAmd/AU8dRo5sVn4GZ9xTNikMTtxON9tVcXLFHoGB56cLa0EfpXwbKga2oWXrRO1oH1HJYOTYfyGTDj7GcI6BG8O0JdayWKID3da+vA8SnJ2RLDF5HHJ4Ih/ppKVSOpDDB3ETClqJagutVOEMEK3o4Jvy8miUAU8ltVAPJu4SBQTSjHb+iIYcKAXoo9XxFGokM2tQDkIR7klFg91n74bPBVdIv+r4Lx84E0I3zZeNI8aDidJAtaiOU1ajKijgJ/UgzBcTRb4UulFVER8NJBm8dPBT03yIIpyGeQiAKHim09WodXF2tnvIATg91SiPu4orKDPwCRzzhrM8sOPTtYVJAMThszLRWe6v6jazCPADYnv8DLfJFfAno85t19Tmx7g+3ttDQuYF1/xMXLoZR0VGKwcoRb2cUnwgd+QkKKoqfQguOk+JmPKiJi/SpBNFK97VvEAyl8iv+oxu9JHAH3K80T+02Hd+mhHcynY/NXIoEw722X3H34YLYnsek6IYJTlSYgdAVO2sKrdJZxv60ikGOpMLlTJDkcaZK26ukVNxOmg+UXBWSo08v7nGjLMa1DKYrCmpoDcScHdqNAeVia6G2LKlzygTxXWMWwPY6zPERMMwjAF8hYMwTqyAUUnDw8C2wDKkM6+7GzLk2T0TvM19KzDZOAJ80cg0HuzsG0L/9m//poiRn9EequfU+Z/92Z+R6YHEb3/72zLHTRjzlPnrv/5rVZPp6UUPEv7pn/4pc3F44Etf+pKhbs9C8a9//esU+8hHPmLhayR/5Stf4bb4rL//+79X0ZVXXmlNrF60w/COW/nzP/9zno56Wq06K8VwMs9FIluWkrK5S6xWGMwqdW0ku6aYW//6r/9KOE/BAdHQaP/Yxz7mkU/5PYZp5JNglcxZKAsEMH7mM58Zddb8jqP3tniIRenk51/e9a53WQace+65P/7xj9HBz3/+82ohzT4LDZ2110wTgDPyx6WU1gAAIABJREFUoAayZmqCvvjwhz+MWOflI9yfUjyO6qiHTOtZ8MJTfrD7WG8QrlMo7ylLvg+eukkpKIFXpdT+u7/7Oz6XMl7mh8BpBZ+uuxX0kOl73vMe8ueIiUIMzuzHsgqA73vf+7jmZXNAbW8R2DgCPCoPxtOaF7gCLnTj/37EnYpQ8rSXXXYZIsWXSuGazA4eNlKdFEEEt3ghDoqXo4YMdvM4eX6JZ07TkGN+z3inIXfnQrpJzTV/RVvMleZcATI3OAHZeFeOLkK4ej6ZP8xPTp5rlT/ZTJSmg0wxGK3ZJ7XIrHaukqsxm5iSRtHWIjORSVMTwlC5UA6cR0IWs87XUrqRJr6QIAW1zaqcsykAPmJG0k24o0x0zA9DSQYaKitzQEiNG+/9SlgABGaUiRpvxgY6gpmNrW7RDgZtTFqTZS7XDVJ8jCIDw7AxhFi5YcxBGABiaTglYsSJcBNnnXWWMWlgG5YGj4M7MuNAqBiPYNlKiHGLKuV1GIaicwIWf/yIdC7GgPed7leXn4aWCykuSHZNQ86CMr7Jp6oqSOAitctDiER5XvJ73/ueb6PaT/pk8GeIuo7j8NOFDJGTbMmJ1fEjmmNpy6MZ8NgkosaP8FPECliCxZOMvjk1zYctJce8gOZwKFwY/ko9F3kmlHwMW9UpQhoMMUhMVAfxR2DxjbPCWU85DqVqIVs+GuxAwKcBKEPckOIAga0UPldbPJipiOr4fT+J9TNI6kG9Rhm100GTfcuAVZsG9A5ICaS5xs7RaGQMmXjMWC60GjjDzDFHDdkUVQ0fC5icpUlcf1PELo8QY9nQMEy4gmU+Pc+KuBE+CkPCzPgxpIqn2rXVKeL10Y9+VNABLXPck1MlJ9s4TIsD56/4Mf6c0ZoyktNYpgDvxCFzVva1rMmtM7lBExbfa2FPK97YCUs/ravJdyuhBNQwdstJKsv78cwJZPJ7Lnxz4xJNVfQRp9BqPlDIg1tWu4LIJfV43ZwBpTMQuBcXPqPjwk/Ku+s7KBmGyipIpldTsSi+1yxAZ3WZaMwpMghMyIOjU0NZTHcwPD+VInmAnVaMU0xE61zQhCg4QHh5BmlbujYCM8pEQ/gMLSN2rAGGjdHC+RohbmWAWfaJqxkMWKChaLi65RsTki6QJs5n2FukGlS5a5wYM0QhpigU8mTkG+QchzEsBU/Knq+KZCbWqFv//imKxiXFC6QJ/BF9RBl5SfRXIrHf+MY3JIZ0apSqKSl4aZxzN0b+0HwtxbdkJlMT/JQ/fForjOpsFbmmpMZybXISyC9wi77pw4MMHHoUWM4CMgryjzw4+XDW5EQZ6SkDcNQuG/ruLp0BwgVLR4K1S3WwgqRSauSz0Ho10gHBtRiAgHACf6o7YJutGW1EPbFJKRoeMqqlapfOTauLC1M2iKmFApYoPqpTl1saO2YnM/hTfwFfl0EADlj7d77zHYlwWGanDJPscuhKhsEeXLCEstLVbDjLyKwPDS7m5OMnD7DMTJTX4m18+F5OSRjSYpgb5z3GwhmrATuazpFy1JlfeLkgzIviZIimoCPhXJYiusN6km/E3vw0lnk/7k7XKBhXjFMyaR1kxa4UC/fOI3EB7lQeEkRY7NQry91ZxkvRoXwF35taSM7MxUuTrIHahc/RUyzDfMFzGjLK8sZ0M4/IFlep+eSAQgpv42diMa5poka+VO0q0rQESjSceyfTXUI0B79XowxcvbmS10UryUF8kXIS1M78sgCg5MBEaajVAMxiCW0lyrwMzPV0RPMsAwIzykQDfcjWZDdIlxhDN1RQovw0EsYyuxsyxOgNbCPB95DHKOJWEuHjJkKDMno5Ah7Ni9NMk+QjRobTpCZrpChutZo4H68hZzyLweyTgrQilvzs7NCWQxEl1TT1GuqjlcpmxZ99agIzjC3K5cGeQ2uU4vjk5DswNi3SRpp8+ctflkLsaPMnlZeHPwIIt2iHHc4gjROnoc0jouIBuSd31UVn3kdFUsjnXpFsF4RMskOo8kcIsabx3YrQgRBtwTvRynSB4sRitJrDn2YVESZKGUEIwArEOuqgiOI+5GjvZItmKkWjtEJnCZA4UmJyCqWYKSW3RRk4CJlAhvGwQHObD7uaXIhui3ozWCnEDJnwGLYEupwOwgNmUNspqwQW5vSDH/wA4/mTP/kTTjiL3l1QA+NkkNxmJiOuiUvkuFjmQKQwvD/+4z9ONEEV7obqIbJIoZ7KME9Zt3g510w9b32KVtyXW+GFdI6jzkw35tm4RG/x5Ej5WLrpdwcSBk9CK0LIt/j3khkSVEeyDM47ERtWKt21zAl2yElUvL1vimGKw2Qx6Ca/xnLI/DxvRnO3UqNvlSqFaBJuVhqmYzgIgqaZASHN3IXuaJFFRWBGmagxhq4hPSEZo+gjH+gaK8eWmPVwy3U+o5mNE1Pa4IYMHq7Bqm4YFTLkM4gyiqwF1WsAG1dGlBrtok5qsppNGMAmiYxzxYfZdPBHY2oPcmgis3WzUa06QkZzussFWHrKP3g9Ppdjwu1oazWMWGe7HD7K8ok8Kf2RSL4gZVdTW36lKODbWhzbUyM/5eMWWokEU8xqW0OgRHg+A5jJZuHuQtkVK1JWz3JnxA6unHME1EDQEWJ0U5wMb9M0m0GD5jBB4xTUHECxEBEFiw3VjWK1YtXblQgr/QVP1DOPLOg1EZT1W9R2aT7Nes2s8AGUAI/uZgNGrlAKk/aRotOHuW2ais1CXa+Tmd9vmEDJRgH7sRIzFiytjRFDwKDzWXudOQsNmY4OcAgUQOMWuESUlHtkVDurgJnIZ+1S3JfPZJ44z8n0pHCeg8cby7O2o2YGvD3vkflitRDJZO2Dv51UiTKjzZwsOxRJY1cLvRuhdBuTv4a0SU2aspwIzCgTNbpMP3yuyJlv1h9mw7+Y0XlehMlWwg7Jh4FhMuOGDAaEzBj2wXJQUmVNeyiXdA5LigicsZoQo3T81crPShHxxfZsE49WpyxRjGbw/iRIybepQmYV0XPgZJQhX34VYSfZqPUtg/SwN/Qa/eUUtBpZGa1RNstNQVCJeKEwrQtQmI1gYt1JWwzPA1VuxekognYj1kImEODg1mA/MmsUabwMhoe8ap3dIh2hIigJiForY6KkZevfrcx/4Ip/5PS1XX/BfEVvBRDzgVlBv8ThJhqqiFYHTOlYJgTATh+ubXDZYaLCCRbxDhLgLgJCTt+OAjVTI1n/AlMHURKHFrrGsMc0HMwvFjVT+k9BGaYFJQOHFRllPqmUpVmEMBU2nFUWM8hiiXnP8tpjU0AL+wypAlFIp4WZIWZv1NpY4lBRxtrglDZFgTkSAgpAJUo3qjbX7Yi/b/MIjyFgzJlACbZz1LoxVbFGHpLH40iXdm02v91XzVdEYEaZKBaIcpmT7EcbbKIjJiHugyN2tsYHF+FWjMkVW5VEd/Ee3IsEoUH8CbNxHhHLyZOVaA2WJtGQRgI4LJE2T9LIaVJUIwny4HaT7CEhHBUNz8qoCDHy7RbOgRo6WzO6DMUy1YtgqYg3NKPIrzgShv6aaUijsHkXJ+NofBDWoYF+Yn6goBUECHGLHHmUgpgPmXzuwH25ZgSI8ryw53uQUQCuiBjh7tJcY9FNF848aYvqlFVEpTKgj5AEGiZKbdteOsUuGJLqmRvUQahGTEszUYdJJqojUFvCkWz4OE1F8le/+lU46O6hQ3WHZUbehwW00V5WnSZrrxlFwzVWWZOQJss2g3wU4M71ew+DroFnTnqNdYEWuYWtgmXF3lnsRPag7ZMs3JLG6EsMRnfbhWR+RgqzGcbIAiOTxSoLzxa8B2KMu6xjeSfcfbLtrGs5TQgg/OFqy2yuDIyGIRPi4QHLlU2iNy8pvOsHP/hBvp07XS0gOi9tqZ5FIAisxeS2ESOkCgEyi5ulPNuBGmbxxxFb/vImgiV4nkSf1fioEUsI7+yxR4QPIROdQmKG/Aif8YwlEOLCnJdDMOgXXijc+KMf/QgTUhbRcVeYUIYEY3AvLzMCEbFU4ul4NzSLhmGWZk3MLHvcUT4n2e2m4am+uU5l5dEQqiLEpMlp0vUhxPUotXIt0a3RbUpsz09zFdae8Bt3jMmRr9XajhpSzBuCBHfdGkjqWOcSIoNGmfBoQpRpj1ZEKQIcoGkRBgAQKRihb9cIKAaJDqpLA9FQajsC4SBBqqB2mu8n/U0GUgR1POMPYdcq0in6FM8OHUdDRX9xYh1EvlKyhWhaHqgOQcnEzDwI545prrOw213YgNsiOweROY/JhdavtgZQu2ymUmamH7dImVkWy3IszyaZqGE1hP0YAJuEISNkdT4slkmsZs9b1N7EKbdI+JhY7TUcuAgDxPgykHfIMg3w5TQhdsKEDKIVu0Z6xhfnkD0Za78Vc85FIn84PMM0FwpXySKwQwRmlIniNCgXAiT4l5dZmKjMRrgRIuLZPYRG1E3zsBCZkS3TElKCuyBnIY4IpQ1rhIYEdNZdOVFYjMfcT5o9DszG6W8e3LWH6AmXjpNhctnm5rxMfpixWcFMIL960SwZvNqDAuGO5khTo2gNBYT38Cqb7BSIZA1xF6nCjIk1rwjNUpJDscUskfKhkgkBksnd0FO7CPRTOg25UaV8qBHlMeOEV0UQLf1pK0W9GDBSiJ8pQhNvP1UK81OQ1/atmaPGobr8FwD1lFKjqjUkdJ8QyIuGwoEcKtGHENmknHfeeY6QKmielg2M4sqKJ6BFzzRfdfrUOXoXJlcnJk0P1KCwKKyHQIkVatWhENYRQtcKAl+jJKpIcdckaJriKs2pXwig9d6HQtvZYaKayczopnPZpKYNBzPGhmWyQWPFiOkOx/C8ZzBGtH01cpClFwyBw6oN4eRPTGhqbWfqzFulvqdTKUDYDGQS/mRCGUp0cGvFmCgDW04T4tPWMCH9lamBEzbWVtzHn06ftpYiUARWRGBGmShd8RLUR2xMPC++A2vhSkKDhp1fd1ETP7OZjgNhQpw1koczoS94GD8V6olvoVDIyhBdwA7/4R/+AW0iOUJQXjwSGfJAIjVMgWrMpnA4HFqmRiplTkq0xvvYVSr/xz/+cbSJQDzSJKp2OshsBnU3W/Y5TqogfZLTtbfEm11Uh8zRPBNPGCHl3VJKo0Ii7c74SRMSqKEWk5MLxSVqC7IuJbSVPuGddPCGPMrIAIdRgyAHq4MGzkqO/KoGFDVcABlTNBEqRabaCYmqdPPT1n+mxsBIB8Kp6rSoMKpbab5EkvH1v/iLvxj6VGZiKeAuBdxKvZ/97GdpkvCwYwAoe04meGm/fxBQPFWo0SQUsjvUMtq0bbwGnZg3EFgU9iymbgUiSjqmkrbrdJ3IdLdR2+2qOjHjnEueRMZYy3Y8449hsGemBTSmOB2dVRT75AFi21Ool9vhOjTWwGThdl1sVnBcFl0WcuDKEBjVJMvCKeg2a1Wg7PoFLKspZlnLTRlfrMhI5FVWy9n0IlAEpo/A7DJRRAeZ81kbFNxlNMOYi0GkVmMnKBGiw92Lkg5byegdp2bCW61U6hLGG61UERUJAUrElkbvEuUzZKYezrFiixLiHc1pEloxp8Th8f9k4GdXyzmarrFjtQx3wztHVR0tONbesdqR6RVrxxGRV5/hbgjxGCZjGoprJkVYdPTWoPlq1a2owzYmaqyPTrSa0mSGqgnsWYReAHtUMeAzDECtbXXb2JYtrZqdOJmQZRUE9K9P6KZhleWodPhAKahuqT6TwnUQTbgLpJluFJ7Ms+kpHGCWwSSrOsdgcsQIJTU6bMvYqBEEhV6WwQb4cppQjiRN8ku9xiFzj7yKxTnQLCqweR266f1VgUWgCOwyArPLRHe5SespaD4T5DCjbFZYhSgCObiQrfXo0DxLgkCCx1YgglvmQu+LxSTEkrGHEIglwWHtZmbl6ZyGdQ7q4IQM4i6CtS3Uc1RVLJCXwIzFIMUj9SPCt3ZbNv0uEISBfbIes8mQ95c55+NgqHPnwoF1PgPs4IKGXgOXl2jasbE1YakjBX3f9N6pwCJQBDaIwJIyUQEG/y9v8rNoHt2nzra19J2CFQf1ZmMTlYlzjUDmTsls5sVDgF1hop/4xCecDLZF6Jyrp8oQncVr6S60yIkLJ0PyQJLgFtaVCOguiNrcInbk0RcPTRrgtr9xms2VvwvSGBI/g6zzYzbuHdR2gpZ6dT4BU2DYWReHOnwcjLF44KIbI9gFS2uRIjAdBHaOck1HpynUgn16QGeyIivpXdi4MTFweZPSmlIERhFgWraYLX7wUdGaRNeE2cyRDnis+AzKMgBo+ed4DJKXM9yzFtvTQeKOqIyjO07gYH4433Q26FfrfbE9ET6fHF7yZKHtaQ9NMq3ViixJOuOxmOHbHS/GQR0rws43a+NrSTBsM4vA9BFYUiY6faBbYxEIAuZF0T5hUXzUA3bezO8xJs+jIKPLCZGTl8Ph4BlEwKFeH+TGG2Ed08T5REm3l4mOoYQl++zwSP0MYrvpKmHntuM9YSkm2iDopsNbgUVgixAoE90iYCu2CKyMwDBB4qMORHongJgWrjP2HNjKhRcxdWYZg7WBQCPq6ahAXiLmhKiecsbXc1Sz0xUzC+CUIfJ3J46E2p5yaKFx0CmD3+qKwEYQKBPdCHotWwR2HQFxtZxLtk3vs5xPPe86fFtcEt30WLq3/DrIa5Eg4ujwAM7n8SBLCIsHrHRnD5RvscrLKz7nXuzFO/SiU0pDl9cU2vL5RGBKL+SbT3CqdRGYBgJCbranu7s6DazXXYfXGjgV6rWdesdRCuzTiUPBNhcYqj+JcGB03cKacWsRsCkvFGp5YGnXCPHWYl3pRWALECgT3QJQK7II7AwCQjhm0AZydgazLc/rBUlejSTGJlYt/Kl3fBxp9T8FyGj+oaAv4dryblhfBdinESQa6qJMdH2YNVcRmCEEykRnqDOqShEoAtuOgD8nE+/0fJI3xntTEiYaikMxDwZ5zsz/FLjlmXovlt92batAESgCRWDeESgTnfcerP5FoAhsJgJoqL8e8HdKef/r2J+EIaOeM/NWURv099xzz2ZWXFlFoAgUgaVEoEx0Kbu9jS4CRWACAQ8neVDJ3xfdeOONduQFRB0SHX0syc6vPXpvP3Urf7n09NNPe6nThKQmFIEiUASKwHoRKBNdL1LNVwSKwGIjgIkKiNp5v//++z1A5jGyFZ+O9+iSfzNHUrOJ72VPCva/shbbNtq6IlAEtg6BMtGtw7aSi0ARmCcEsEkb7v5lwFPY/rlXWHS1x188H+OVoijpz372M2HReWpkdS0CRaAIzBgCZaIz1iFVpwgUge1AwG671zM5IepfPU855RRb8Gv876g9elRVHhf+eMkL8BsT3Y5Oa51FoAgsAgJ9s/0i9GLbUASKwAYRsNWOUHqHqDfYn3TSSSvuyw9V5I1O/o/ANr2H6IVOsdK+zHKDXdDiRaAILCcCjYkuZ7+31UWgCPwvBIQ2bbWLdKKhiOZ60MFEzzzzTG99sqHvWftXXnllPaWapwgUgSJQBEYRWJfDLWRFoAgUgUVFwAvq835QfzGPXPqL+dWOh44h4BX3mKsXjsp/xx13iKcuKkRtVxEoAkVg6xDo7vzWYVvJRaAIzDoCzncKanpYHhlFQ33222+/dSqdlzp5xF7+a665RsGw0nUS2XXW0mxFoAgUgcVGoDHRxe7ftq4IFIG1EEBDPaiEiXqT6Pnnn+/lTWvlnriHdCoiMoqGeojePzMROJGrCUWgCBSBIrAqAmWiq0LTG0WgCCw8At5j79+SbND7D0//Mu/NTTvVZEzUHr1Iqnfdh9E6LYrU7pSQZi4CRaAILDMCZaLL3PttexFYdgQeeeSR66+/3h94HnPMMR5U2rWNdQ/OX3DBBaKh9913nxfd47XLDmvbXwSKQBFYNwI9J7puqJqxCBSBBUIgf9f5y1/+0ntDMVE77LtGQ0GCwnqFk/fhE3XDDTd4+v7oo49eIKiWsSkPPfTQd7/73fyz69vf/nYLDEc4vF2BqVh1SGc5t956q8fUHA6++OKL137t1zIi2DYXgXUjUCa6bqiasQgUgUVBwINK3mCPW3he/rDDDrO97t87d7lxKCwOesQRR2C3t99++wEHHIDX2rVf59ugdrneFtw6BFDMyy+/3OpCP4qXsxOHgH/0ox85hmGl4e+1nOu47bbb/BXC4Ycffuyxx1qK7LnnnrqeJQiKv/zyy95Q60IKq5BZurMfeR6O7ZHPCIciW9eQSi4Cs49Amejs91E1LAJFYJMRcJQTUfj5z38uoHXeeed5m/3GKyAKw8BERcu8JB8xxTM2LrYSZgcBZjP5Z1reuoCzIpoM4MILL3zTm97krDADwFyff/55KezhuuuuQ0NFyr2AlpAnn3xSeBVPHYrMThurSRGYPgJlotPHvDUWgSKwzQgIZQmIClDZbPWNRmxcIUI8R/+Od7zDi+69XjT/utSw6MaBnXEJiYjfc889NvT955YQKYrJwKxzBD7Zg5cqWJ8ws+F5ONzUa7+sW0RYzznnHOR1xttY9YrAliJQJrql8FZ4ESgCs4WAiJTdUmTRI/N2XfEG+6qbpaItflu3gmSIiG9nBzey6b9ZWlXOliLAfmzWI53ZwRdf1+8PP/ywh+EERxmbdD/RTWFyIVU//UMs2qqInH2+bUt7p8LnAoE+Oz8X3VQli0AR2BwEMAMcUZgKSxDBEhPdHLmvS8lZQOxWQNQhQvxjE4VX1GwisMcee9hkR0apZwViR55p2ZoXDhfyFAe1+JGCmPpHWXnuvfdeNNRbwxSc3OufzTZWqyKwpQjMaEzUMBaxsHAc+yvnPKD6zne+c5efct1SNCu8CBSBWUYgESkcUSDqxBNP9DTJJgZENTwbtZioNzrdfPPNjgN6HEowrA9Wz7JVbFA3jzTpcWdAPV9v5vJvsVip93mhpxLdxUR92IBoqG16u/Z2562CcNYNVt3iRWAxEJhRJiqWcMUVVxi0UB59mMCoxk0xUeliG545SDeYV8wBhroFqLBE1qAymA/MPZkeckZHESnymB6sWeX0kGP+FkUGcpKBWHlUl4lKpT7Jloqkq46EqOGCWBlcSM/dTTl8thh21lYUgVlAwGC3JYoleNj5lFNO2dn32K+zCZ7E50m4r+eee86TK16YXya6TujmMZvn0rwqwUkPoZO77rpL74uIu8Y1PXo/PLWGnpogbrzxxrvvvttkcdxxx6Gt89je6lwENh2BGWWi2onwGcNOc19yySVDs/G8gZjaX7v22muxPU7fNdZoMerJRAMeO/Q4gt0QMQlzj00QWyFuKa4Id+DBgnPPPRcZdWac7+A1JCK4Zg6vuUZGiSVHEYtdXsNmihitvRXZSFOR2cW3StVy0003hSLb9aMer8QB5Q8AN73DKrAIFIFdRsASl2cQChWv2qwHlVZUhh84++yz7cPyJ5xPH0lZEaVFSmRRphW7875NNCaOE044QUw0TNSE4pAoM2B+ZhOTi2xmjUVCoG0pAruMwEwzUaPX4tJ4XrF5YhtopcHsg4zmzcNinDbdPCXg/dI5pJWwpfiEPKYHTyrYGbFs9UhjXreBYsqJYipr98QjkLimn/ZQcFC1cCVXX321SUVF+LFsyKtazDScC3rqfRzmNqXcIopA2y7k59VxKyrfxCJQBKaJgOFvW8Pwt1wUjrKM3Nx9+bG28Aacg7ry9JKYKFc2zfa2rk1BwBQgMGFS8O3fXMkU2hDgEOwQ/hitAhMVgMAvTSI6Xe/nYEbymIbEJkwQ5hF2yPZYSHbSNkXPCikCc43A7DJRLsC4Nf5xwUCcTXb0lFv3LX7pJFbGv8cOeAdvTuEmZEYT/fsFT2HHBPvkF5wMI41r4AJEQInFXBFWF7ZI7KARLl2limOQYqWKSCTWz6uuusocdtFFFyGv9PFyOF6J0/FRCutFl+3FmN6sd616ic3Jobk2jipfBBYGAdM/P5AHlTxHYuRuadP4KHEv3sm6l4fhryxW+ROfLa23wjcRAUzRrOGl9Dw8seILUkwxPLxPjnVlynBXdMN0YyIQm9DpdvP0/qAMA8BESTChWJMIk7tVJrqJnVVRc43A7DJRLgDb858WOS1q0HLuoXf+e80gD4k844wz3v/+96OAhjeCiBeKZaKbPILIh/lGKbFM61Quw0LWO1by4jdxTX4BrfQTJT355JMTIxE78dO1iUSl3BAOioDyLB/4wAewUvOZiKmP2KejZjLwSp/73Ofe/e53W+YKoCLB5h5Eea4to8oXgUVCwDi1s8EV8BhT2xUVGEM9f/rTn1rrOpmq3h4YnRejMgVYPJg4HOuMzny+SUGHJsUMZbLAR4fVhWnC3KSI9NNOO80JrhQkysSBp5pxyEzMQil8lD2YZeYFk+pZBLYIgdllohpsiPpknGdzDSvFHSV61CDcFNfk7jFRa00PIji1yTWgg+7igpyCoY6zkoaGWpg6uJNARRa1MuO7CO7pp5/OXyiCd6pCImpr8lDEGQABFRfIq3rdEk9NiIVMFZlgOB3EVy1EoaFDdHaLuq1ii0ARWD8CaCj/IFJlIWoL1YpxOrFJa1rehifJeXQuIsGw9WvenNuFAMpoEyxzx9o62JFjWqYPZiZ/eKcI6PAqWTPUu971LgSUGbzvfe9jEqYtdz2ZYFrpH3GtDW/vLgMCs8tEDVEb64KO3IGeMMLtrH3ve9+zHpWet2MY4Rnt4p0Yp49lK1/v7qWXXnrLLbdgljKbeGSQE4/kDswHROGs2C2voSL00bFOteCaPvgul8FfnHXWWfJ4il9IQ+jUwwcmsGzH2ItRkWWxVTLCOjyRQAcClRp2bZbBjNrGIjCbCGQYWl76GP55rnlqqnIXKj311FMtTS1o8Y8E1aamQCvaZQRENz796U+vpzgaKgjC0kwTduQwS7OMSWcoa8PNJz+dDBnSGcZ65DdPEVh4BGaXiQZ6C9PEGnE7wUgc0YziAuO002EfPDxVCqpC/9kcAAAgAElEQVQaPurpRdthiKaNkve+9724pmspAzV0WtQq9s477yRBuAINHQ70uPWe97zHI/P4rr28n/zkJ0qZTlBeRfK4vTAqgSYVikkk2TRDgSicWgRKF9502sAiMPsIWCvyFfk/GwtLA3zKOlua8hJODfFLmIr9ExRnyjq0ui1FwNxk881KAx91LQ5i6hlloltae4UXgQVAYNaZqE3wkDzTiQssENXL5juCiPAhoPZEXKOVMohNyokpSrRjziP4KY8iwpw+poSERhwqtclOmhOldlJIxj5zEshPQVOZ7bObSLBhu/Aki326VksqEm0V/kyU1N6fj4Juqc6poHqiBRgebcK8I4AiWLv6Nuo5hGHDdGrt4iJUioxyKVyEhTEvMRw6mpoarWjrENCn9sdEu/Wy0IZ9vJwA2boaK7kILBgCs85EvRTp8ssvBzrW6FEhQVAD3oyCF7qwpY47Wok65emuKef3T7MfeGD2x6XYK3HoUzQi76VHT0VVOQubdCimvXshCmGSPNX4xS9+EZ31QIMU0wbJXExOenlIX0F7LoTjmpdddhkFPCPpYSkpHtV36lQG8VSJygp74KkLZittThGYOwQ4AadrjOic59muzQobL1zNt7/9bV7Fsyw5wzN3YFbhFREwE+lTBDQbaFlmTOcg8or6NLEIzB0Cs8tEjWRhRdTQwc3MH77tr3kC0UFvbFJ0UwpeKJbpECdaaZP94osv9o13uuv4DspICNbIU3iRGzrrgXc0FKdEHzHXHDnFJu3i4aDyiIPay/MTBz3vvPMc6zGFEGI333udoomQp3M/NustheNxSPZ+e8TXBpxZxy0z39xZQxUuAguDgCHMA/ADtjsMeaMS/9sufqBq/iRPT3v9MO8xnAhaGMCXtiGMSuzDZ2kRaMOLwAYRmFEmapWJyaGJtsUtNPG/EMrENjj0zChuSRe5NN+gm4oIjpp1bMaJTYqVCogSJULplg16AZLgFYEIqGioj0kCecVEXYSwEmsj3oHRHDB3Fx9NbNUtAlWUV+5nHYySyqDSHGwVrJ3+PuAGTaHFi8DCIGBUYqJO6digyBg3MLexdRwO/8NxcS+W1lSympWyXcx4G6Fo1UWgCBSBMQRmlIk638lrm0vyABCluewsPUUXhja46+zmBRdcIIWvxwXD/5wJs1HuYSYSpGfB6gUudufzyLwAp41+p3kUz0s00FlPIEnxuo1hk2V4v4ay7uaJ+Kgh/6AGlURPxWvzeIQaR+/W5opAEZgyAoaw0WqrRECUK9heGpq28xK2Ymzy2FqxcrZ2taAtE52yYbS6IlAEZhCBGWWi4o4+a+OVsIdsop55eGiggC6Q0bHiaKWtfA8NmJ/sy+Os+K5d+7yAyZSAPvpMFiRnh/ogwflvz+H9TXRYW//eLQJFYIsQEAp1dNugtgmOhg5Lyi2qbj1iKYOM0sdOi2MDgqOuf7+87r8urQe+5ikCRWBxEZhjtpSH2e3F445Y4MBH1+isREqEJWz6O6rldW7ZtV+jyA5vqVe4lDKZVEw2YbQ9NrRD6JqhCGw6Asa40S3o6AlCC1RhSKvE2RmMTgRxO55bshjGR4VsNx2BCiwCRaAIzBcCMxoTXQ+I+N/f/u3fmmywwHXONGirN4yef/75IpfCnJtylFOEw0ECE8x6dG6eIlAEthQBJ2Q8vOhEOJ539tlnO28zU0FHy1TLZo9POVPunzJG/xNyS2Gp8CJQBIrAzCIwx0xUqMML53cKWdOA41k+O1Vq7czo7KYw2rVr6d0iUATWg4Bwo5dpIKNejmHlyUusp9TU8ji0Y9vEVgzGLGrrqKhFLCV7mGdqXdCKikARmDUE5nh3ftagrD5FoAhsLwL25Z298dIMF54gnIUHlSYBQTrzn23eyOE8q/CtLZrJbE0pAkWgCCwJAmWiS9LRbWYRWHwEHA/1Tl9Bx/y//A6fetxGRGjopR9it17igTdvoyatuggUgSKwvQiUiW4v/q29CBSBTUDAZrenf7wZw19XeCbdg0po6CxveTvd7ny5h/oFcb1azvcmoFARRaAIFIE5RKBMdA47rSoXgSLwvxGwwY3MiYna70ZDPag04wjhoMKiXnHv8LqDrfboPfXvM+NqV70iUASKwKYjUCa66ZBWYBEoAtNG4Ne//vWNN974q1/9yvFQjyTO1PPya2DhBSCeXhLHFc0V0y0TXQOr3ioCRWBRESgTXdSebbuKwLIg4N99RUOROfFF/8HrXRbzwkQ9U+UsgXcS+19ifNQzTMvSZ21nESgCReD/R6BMtLZQBIrAvCKQHW2vDn3ooYdcI3Ze1TkL/6i0TkCdZBXBPeOMM1566aWbbrpJTLdh0XVC12xFoAgsDAJlogvTlW1IEVg6BPA2J0QfffRR/+3pz3s9AzR3EHiZqIOtwqKeoPfokuDo3DWhCheBIlAENoLAHL/ZfiPNbtkiUAQWAAHb2f6sSEzUv6yJhh500EFz16j83YZX3AuIPvjgg/nZ/6Ofu36swkWgCOwyAo2J7jJ0LVgEisA2I/DCCy/4z0x81D8qCSt6k+g2K7Sr1R977LFiuvfee6+wqChv9+h3FciWKwJFYP4QKBOdvz6rxkWgCEDAa+E9qOR73333xeRsc8/Lg0qT3edsq0OunqP3EoCbb77ZM1iTeZpSBIpAEVhIBMpEF7Jb26gisMgI5EElNNQJ0b333ttbOfNizvlts9MF+PTxxx+vCV4vil73j5fmtzereREoAjuFQJnoTsHVzEWgCMwKAp5S8jnttNNm/z3264FMTNcrqPbbbz8PLSHZ/del9YDWPEWgCCwAAvN6rGoBoG8TikAR2DUEHA/12iYb2R5R8k9F/jlz1+TMVClvdPIPpUcccYRHlzBsJw3m8QGsmYK0yhSBIjAXCDQmOhfdVCWLQBH4vwh4oOfZZ5+9/fbbcTWvbRJE9Lz5wqDjIXp79Br4+OOP26P/7W9/uzBNa0OKQBEoAisiUCa6IixNLAJFYEYR8BJ4fy7/2GOPecTHI/Nz9B779QBqj/7AAw887LDD/PnnLbfc0j369YDWPEWgCMw1AtuwO//qq6/2HSVzbTRVfocI5JGaHWZrhl1AIG/c9LC8/8lcjH35URDs0WuUNzo5e6Cl9ut3AaIW2TgC1gBe7zr63Jh3hFn2WCc4ELJO+YqLbXvfrfC2FZQIt/4988wzvft2nRKarQgsAwJTZaJ20zwiiokOL8yb37euLINxtI27jIApJ7OOiWeXhbTgigiIGtrCRgvsy6+YYd4TsU88WyvqHrexKx2QuOqqq0SmDWELS31hYcD2jjvuOLZntbDDMyHWEjiowDZG++STTxKImOpcAe8y0W3s2VY9gwhMlYkautaUZmgDMmN7BhGpSkVg4wiIf3glpBcMNaa1cTAnJfAkXttkWTt5qylFYFMQ8FScF7sioP4xgUABFMxSgBOPxCwvvvjiHbLJu+66C5f9+c9/Tghz9bLYffbZZ//9919/SHVTGlIhRWD2EZgqE7W4NIWIZBjVHn01OBdvc232u7waTgEBf0Fp0hK6c5ZxCtXNbxVQytvp7ZOMtiLhQMGnk08+eRJDHHSBaWhDobNgzyImophoqDcYIJ3szX69RPvswpx22M1l/hOLquzTQ2YyuIV9Wnx6NayYyz333OPVsNinDzm29Z0nOfLII5FRB53dslI1J4qbmhBNhaiqbDn3bFw88MADuK+QjYqQV2r4SBReld+byw499FB0OdFWGchXEbHy58W0XgdGQzrTx3kPa2N1KSLQOww3mb07bHKIzUIXVIflQWCqTBSshqtRbRzedtttZ5xxhkErpZ53eQxusVtq2jBJcP0PP/ywv20855xzLLcWu8kbbJ2Z8sYbbzS/wm0gl4HRZGl6NvuaudXiZ46Ycxfm71G/4dYYkU2GFInbGWOuKZID6wSivIMXkqgH067UlSMWrnPLt8+ghpx+Eph0P+XPh8LReUBJqWgiXZHRtgxC3JJ/qJqoMfmjmOdu2qiIz+jdXm8QAbaHqF1wwQUCKIim3fkbbrjB03I4ojH+rW99i/yTTjoJidSbhvx3vvMdrO6oo47yLdqCvJ599tkIIhaoLKLpFvJn+vvKV75ipWoGRFiVRSXf//73q4vH8O+1GO33v/99xXW9gtZjp59+Opm33nrrNddcY1PxIx/5COqJhl599dUyn3XWWV6sS/IVV1yBdzpCMOjjpWBeMYEBU09xyoeMkszSsOHPfvazZaIbtJMW3yAC02aiBp5xe8cdd1hWGmA8vjG8wTa0eBGYEQR49qeeeoq7t9YytQiBmIRmRLfZVMMxBtOqKZlbMF9GSYkwFFfGq3BEUyZHcd9998FWOAc9NVuLCZl3k98Ua9YfbSDkTcbiQzpCugleAGk0A+GYRJ5M10dqxxJUJI8iyAE2gDJKVNA8HaqqdjKFmuijlC62rqYGORQQQpNBKfSFhgoS5V+g8tQLyogThIuohRAvDRUAk5OqHKOyWIIiGA9D0kxUA4FALChG2zR/tBXqwpCoinYIg7keI9yjmXu9awjoFz2ll/WLfXldz1x1HDI6CJRoRrv++uvFMnE7Pc7A3A13ZDx6X/fpUBLOPfdc+wCXXnqpNz8IVeo4Bo8dfuMb30BGsV63mJlOl8EQEMi0xa+LkdHUOLq8IZa5yumWdHbIDOhsUChl1NCcwqShv5dddpkX1rJb+iPH2Y4Y1l27hk9LFYGNIzBtJspRGo3ct9FlJGSqGJbyXdBvvEcrYVsQCIkxW7Bqc4MZiJGjHT0nunZ3hIliY2joKaecksxhaWZ0Uzj2JmJqXjdrug4rdQ1qVA9dww/MxMJCJuDQ1uxpeujHNIwZYKW42qCGSVpxRXACDoccLMHdPInvlo8eNKn7uEsO3WhIK9O8DzXcIscEH9+liFmfED9pSFuZ8VEMFYNkEqpACCgmiIVr0tO1Cx+SxclCQ/FvwslRLzmh2sgoKDRE1UgDF+qbTAyVgSlICGmUkbI22r27swjAVtwE+LoM1LkYmGgmLNalW/Wdj37ROz66Pv3OrnRT1iHsxMlRC4+EVK2mGAkyqtPZ6g9/+ENLpgsvvFB3S9f7OVHKEty1pGF1k/oTZQgwGLfkTKV+KhJWihbnLqsmRHWiP+TbjtA6ysd3TUpuShGYGgLTZqIZujnjcuWVVxq6lm58q4E68NGpNb4VFYHNQiBRCt92k22TibGhF5slfCHlZP7DRE2lpmo7JEMzTZyJC6JWJm/E7tprr/WkCNJmBrV8NcuaRM877zwBHpwSV5BiFhenRALMuKZw8lFYK14xJ+uBYbo1Vd90001KqcIt+U3PpGEMZmhOSQbsE8dNaFakU7fSUC22PulJKwK9Wl9BdAGNEMt01xxPQ6X4NDqLYOEuimOleAyB5Ei3u0pPdkJ5YSqiPvzhD9PZ8zHkS1e7/Iiyj9iVDBymDMr66aNGNILyMkNPesKxABya2VX9powaJiQgqjv0u4+pyri2BBosysylx5kTs7TqSABbR4txMl06fPSjH2WZLOHyyy9nXTbTdVZ0s1g99dRT7bwzQnLs17NJEj70oQ+plG0YCD562bda1tOi9DsFQjTf8Y53aEIKSlQL5QVQDRCsuhx0PZA2zxQQmDYTTZOMKw40h2AMCe470aN6zyl0eavYCgSEFvADnIC7H2jBVlS0MDLBhSYiWCbpcLuhaZnITZPCnMDkK7gIh24xxf/D3n3+Slal5983OeccG2hyjk3OQxgGbOPx2IMlayxZliVbfm/5D7FfjEa2ZGlsDTOY4AHGDDDk0E03oclNzqEb6CaneT7mtvavnqo6xeGEql1V135xtGvtte51r2vtU/tb9wob+aEBz2lRKMgo3oMCFURvJ554IuYDiIgB9klkAfMBRH9riFxZ5ybVGZnRWb52MKhSntDQAc66qhZ1qUiG+o5CljzEGYjBtD/GuS0nQPGV5QRTAkRfZc6Fw9ms8G19y/EEvgAOTFAj6X6rqEVxbrApg7o0RCtQgp8xFKgxVuJwTEPKpnCaiiAO+3x2zhPFAbpzJ81MAMYn5lYZYUOEw3GkvnMD6Cl3AuIUvNTRjVduUePy+ktQ34+TSndj1EyJ5qHmttEpbtqKUErX3X6u1E2ulHQdrbv9IBFiZ6rp1lliKCPMup/NvXZjlMHGT3epn3PLly/3P+JuQaLM1n/KCBVO1VGAAsP+tvKf5kvWE8jPfdX7x/AvXeMXvvpDorkpx1QBBAAOsEgF84pU8FMNsI5poxbVbUxGJQ9m3wkeh41Q2IuGnsee/Q7PYzkpCd1qImlFHH2HIAOXPFD5CfUEDqusbxWUBlV1ipSCPN8tCFVAqGYHYURVu+pp7StI2KlimTIwpaIaqIECPOGPSnmrixVkXL0ugU6OSVcRyPCXERUVamiXzIrLxiz3EKRsxl4xgY+uOmdTEc3RENlqYNeXJGs08RcNK+iveonQZCAakka35ZIYGE+YKhrWokXtvikx7m7x28CIOal1LmokeBP+JALB6a/7/LypLtbvdbPVLdEI5Y6SrmdlqIJS5AGF9bOhLrkfjADUjx+VugfcflVkNprXvYSMWVNckaY6305uMAMCbl3/I24keWZjM3miwGIrMGwS1R7/AEIad911l+iCn5v+JepfdLGbGvtRYFEV8I1vrA00WLsgugaArD8Iic6kue8BLOiqgU4HzKqcIkzoE8B5jiJReTwvjWPKUxnqyeqj7w2gRmc/ZR2krggi4gQHekFZV3/+85+zgNsYsQ0ktmCHfbVAN3Y8ng30m1SnCNRDG43P6iok5RVrmOA3v/kN1OMba4KXDsulDaQiRVWgCg2BLAjVCTecC32xyVS1l6sVv+xUplxlxHejGmXmMwumJKqa/fqdw5TQLNLFLsCCKenCpWpBSPLzDTmJtIVEZ7rx5pxe8rph6ieQv0wVXOpoXePWMgQvUe+gPUFuHdrQnl8vzusOKR98SwhPiuV3usSsW9FPFGP0vk/0LDCVbfZuu6vNAUDPbp4K6ldZNyEPtcKSKXMGRF7dV81UgdnbT84osOAKDJtE/TcadzB8gEF96fu+9o/tn3nBGxaDUWAkCgiAeX6YAO0rXmADUngmjcSTllcKIoGd56Kno0dmM9yJJmGZ7wS052dq8aVHe/Mt4dnsa4TOaLKCmphMFBOASpdY9C9MBQ0NmNZCKL8Q7L/TPHdFJVWtgyrEBUZ9KSE8tTQ/jMtDRgCxJzo4wJ3G+uXxsBdbqnmo0JAD55xzDsjQIhNGZVCEHaVgYo2x8kcVbProqt7hkm8/pappWsRI593CQ4lKsckNtdAB9DjIpaC7SxWKaCMq1XaBVcFgkG2PvJbfAGPhnlux5lS4qdxdbhijeR5bbtrSX7fqRNMx3UL1G8lfmf0S0Avyg0InurJuP78TEGHFzplatWpVdaI4KwtK1R2oLiDrEvt+ILmLdL3MOrd0EwJ3u3LP7SGbDO49FlTEMbeKijiprPyqM5O1pkdLN8PYHVi/5caiF+LkxCswVBL1D+MfzI9+svrq7Hz8TLzQaeCUKIBXLHb2YABJGAUehUT7dj0m8xD1fAVbDkJVNrp5cEr3wJaOwHxpiPzBLPlFjGgLxYQkQZh0giMDj3DnCno811MWdFZfYDKJYE6K5zr+Y8rTGrqxhgbggqe+PHyoSK2Huo81ecDT3XNdbFWRWmLCn4rFKgWXeWVA3xea7zfMARH4jBQxAWsO59CkQqo+ahfHhMfYZ7NyVrwNT/tWdF6EzSCX2MeXtWDLJW10lRFlOemjhmALQ8MwxUdt1MC+midx9gr4IaFzcaH7jaQKUtuNIV1f+x93D7hL9aP7zdC8m1A2vYnwdLd+lMdtA2RZkKITXXU3ulel188Pd4XQjP5ywojAKptus+p0d6y7un546PrKWZXqa+m84oCbgUE3dmGuO0FQXKxHERlULY/HrlCrW/f000+vySccYMqtWNlmr0xyRoEFV2CoJMp7X8T+x3yzm3rv32DB2xODUaANCkATGGG2FpbydGmDS23zwUPRV4HHpAd5PZXLQ89XD2YPSBDmGUlAz2OPcymevop4phbPefT66LHt0V4/cT3yPezFO31UCg2wKdrEIOJEEtjRig2DkkrpF3V50kvngIIVVmS/gkywEm1AQEghoIX8uCQR7SESmTGHqvkAQWwjJbHglauOioxWNm6wWaCsIjRTzWfBDxXNLBBXC5+VVQtrAKKmHmqpWKyvTXaKREGSImzykP/+kog+PCFpg/Vt6/Qx8kc3ATt3iH6ks786y61VIXycp4/kITWw88olvSazm0qKnG4bf93bgpE1RF7TOU455RQZarTd/DQfdbqbQX6TeeTR6QbW3U7g0n3uBrO+TV2MuCXqRvVTxz2jFD39UlK13z9A033lN4nI/fnnn193Ec9xKpvufM6wr0b3mNteWZfqRhqjfomrE6nAUFnQ/5VvTP9Cviv9l06koGlUFKBARcV83QtfRZC+CnimOprwYZPHV4TDM96j1BeFx6rn67PPPuth7LerJyu2UxB0ktejVPjH8xWNQU/pnrL1nGbBo9rjHJx5EjsMoWKLmsCH5yBCBR1hBLBgqvaEQpaQwiUWzj777Iot4Q/WPM4ZdEl1HOOJX9S+1opEuefLDS/Kqd8LAvjjYc+4bzxU7S+mxASokf8FK0qpGmeot3iiEESYrcBXLeYyqa7CVwSpmCh9gEhFvAiolLZb6C1/X82TOHsF9PgZZ5zhVlSkSJTsfo24LXUf/aWbduxvRe5drSL6yFUd4X4oJNXRLCilQ6ug+8cdIr/wqnQ9WJjIuE7Ug/ra/cAUO7LVryaX6r+msxX1K8s/iFrcDwKr6nXLlWMmoSrFfhVhzf1ZUdLawEEVmVI8+7siORdJgaGSaP1293+SaOgidWfMtkQBTyAPLc8A93xLXGqbGzU+7tHr0ViAVR5KB4uevh7wHpm1Xt7j1lF0iDs9jwWBPNQ9sAsiDW76VvGkZ83jFhYIS9cvAY98NhkUdpIoIiUdU9ZIq0QGoZtK9ReIFBMtxpVZ1EpZoFk7ejIFTXjlSY8dxUoV55ilJ4oUcXJDfjdAPeNrIQvOYIcRvlWL8G4lVvOZ0nyBWw3hBme0i1ec1Gq1INGa5qEU+nReATnZQHmFx4iJKgA3WdrW3WPnj7vLT5QBbutQ91tnhq4iMkjR6b1GCmp1pbvI0ZnB3dWb2GuhSXEnuyfV5Z9CWb+1mktuEjdD37Lyd+bsmyeJUWBoCgyVRLXKt+rQ2paKokAUaK0CcOq8886Dax6fnT9N4Rfw8lj1sCznfQR5Fdep/NIRmDwKYjsf8aUYD4ZzDtFkFs78JhL6v5vmKOXZr6ICRI9nsaj6kcCC9KpLHtP4PKGVci6zSwziCWOaTWxJveVGWVOvMGcVUcrVZrhfWyBmxWhltk1pw9xgUfOLHtSCIHGJ/OUwO1rEq9NOO401GZoBd+vhtJ3brrImA8fqe7WaWYK0tt/jGAUwIsyt6RbzF8TdIvTul9v8TcVCFBiJAsMmUY3sHV8YScsnrFKzxMRyDFD2DcLR3IiPR5TBPsEbJ8Y0/TVGaRa8Ur7LsvPLAt4Sucm/VUxk5ujNJrDn6EyHXA2VNum4rTOPG7grpbfITGWbdL3GSJcdV2FfDXf2eiulN3+TrbMtjNfIbF3tan6hLYbuqqLioJ2J8nRm683Q18kktkoB4fYf//jHfsDM3ys3gyi7iaF+2s3fWixEgZEoMAISHUk7J75Sg5W33357vZm6M8IkWCLKImpy5ZVX+t3srccWVfjOMrFdNpPV7r777loCLHiTCUMTf5+kgVEgCoxcAST6p3/6pwvihp83Dt/nC2ItRqLASBQIiY5E9kWpVFhIgMQYTU2kE4OBoSKg0LOWQXTVavMayzbtfAlMTWwfEPVZFHdjNApEgSgQBaJAFJh6BUKik3ML1Jwzk+rMQDL256ORekP2llnU9LWmqWa4W1QhjGo7GwOIZqcZu+8dGZwcadKSKBAFokAUiAJRoJUKhERb2S1zdUoQ1Bph+8vASjPPMKh1tb3GpFulC0NxqtXBDitze7MlJQpEgSgQBaJAFIgCi6pASHRR5W2pcUuUvHTYzi+mui9btiy7D7a0n+JWFIgCUSAKRIFJV+B/3waWY9oUsIbJqnnbaDupN4JMmwJpbxSIAlEgCkSBKNAGBUKibeiFYfuAPg3Hm0hqjN72T+aMDtuD1BcFokAUiAJRIApEgT/4g5DoNN4FtVO33eysZHrmmWdee+21aVQhbY4CUSAKRIEoEAVGrUDmiY66B0ZRf8VEvW9QTNTbt73qwzsJ7QDVd6fxUTiYOqNAFIgCUSAKRIGpUCAx0ano5r6N9EJkq+zB6MqVKx977LENGzb0zZbEKBAFokAUiAJRIAoskgIh0UUSdjRmv9NLJm1o7w2fNh+1bmnFihXr168fjdOpNQpEgSgQBaJAFJhWBTI6PyE9b8DdTqL+dm1Q7+3bht2959Ml516/JIOc9Sptg/KnnnrqmjVrvIppQoRIM6JAFIgCUSAKRIHxUSAkOj59NdBTrGmDetHNXXfdtckoROqjZUmHHHII+vQi0KVLl0q06X0B67bbbnvmmWfaUlRBy5gG1pCLUSAKRIEoEAWiQBRYYAVCogss6KjMWXUk6ql2gU8nWLNe/olQMah0QVCX6t1LjZMgFYyOyufUGwWiQBSIAlEgCky5AiHRCbkBRDR7g5p4dOedd56QFqYZUSAKRIEoEAWiwMQpkBVLE9elaVAUiAJRIApEgSgQBcZEgZDomHRU3IwCUSAKRIEoEAWiwMQpEBKduC5Ng6JAFIgCUSAKRIEoMCYKhETHpKPiZhSIAlEgCkSBKBAFJk6BkOjEdWkaFAWiQBSIAlEgCkSBMVEgJDomHRU3o0AUiAJRIApEgSgwcQqERCeuS9OgKBAFokAUiAJRIAqMiQIh0XHXuqkAACAASURBVDHpqLgZBaJAFIgCUSAKRIGJUyAkOnFdmgZFgSgQBaJAFIgCUWBMFBj2O5Z+//vff/755x999NEHH3wwJhLFzSgwFwU+/PDDr7/+ei4lUyYKRIHWKPDee+898MADGzZs8GLkZcuWea9ya1wbsSO+3x5++OFXX331iy++2HfffTfbbLM1a9b46xXTxxxzTO87/0bsbqpvsQLDJlH3Lgz98ssvX3rppRbLEteiwHwV8ADzBT1fKykfBaLA6BT45JNP3njjjfvuu2/t2rUYdO+9995yyy232Wab0XnUrprXr1+PRN999136YNDnn3+eSltsscVXX33VLkfjTbsVGDaJukHdsp9++mm7ZYl3UWC+Coj9f/bZZ/O1kvJRIAqMTgFPq+eee+7ZZ59dt26dcbynn35aZHTp0qWj86hdNR9wwAG+5QSMMagw00477XTggQcecsgheL1djsabdiswbBLdZJNNdt11V7fpSSed1G5l4l0UmJcCHl0rVqyYl4kUjgJRYKQKING33noLfW6++eY77LDDm2+++c477xSJCge69OKLL/oLxUQEd9xxxyVLloibesw99NBDG2200VZbbfX666+//fbbMh966KEHHXSQDOyAWuPaQokff/yx9knZZ599jjvuODGaV1555YUXXnj//ff9lN1666333HNP1RnvFp199NFHmTLtxyS37bffXpETTjjBILhShsUV5EmjFof333//U089dfny5cK6qt5vv/08fCsD4+W8iObhhx++1157MQi45VTR8ccf7xl911137bbbbsjSVWHOKig/HDewKfHEE098/PHHDW9q1LHHHmuok+fAnRqQtBdGldVqX4wGi1zlDw+1gqSMvPzyy5rGCM+1F+PKoHUAl5hIlyb0FHN1ifOEFdgiRWeTzznnHOLzilDcUJYFtZx88snEVLVGsVOlVCS8bV6BLtOczhtNR995553VO9LlZIercmraM888w1tacWDTTTd1e1CAt7vvvvuTTz6pdlUrxVuJBPTXEJlbZfXq1dLdGBtvvDGbXHLP8Io/PGeZMu4KjdWhLmkL0DcnhAUFzRIhlE5xw7BAbWZl4IOelcetwkhnQ8blfAQkSl8ddtRRR42LRvEzCsxBgddee82TYw4FUyQKRIGWKFAk6jEPxcATZsIfAMVHQPPEE08U9GAL0FPciRs84/AfqoB3ssEmYFSj2KBBcUbuueceeFoTeFjGQzvvvDOCYbNQD2q4ipD8dbBz9913+1sjLRyoIhgIx+A/3zbwiBEfWVYc2p5yyimPPfYYmxLhS0OiEEpbHnnkEb+W5eQ5gwBITlWoFF3deuut6BktQZ+GRHESmiSLJzgS5Spow7JIF576yIjGnnvuuZ09WGOhrpIFBGuOFAVJwTi6uv/++31hwlDs5apWqKJmmlJP05CZq0WW8EsDa/qTbEiOzhwGYUceeSSSBpEyyE9tDVcRoAeREl3SQPm5p9f8ftBGZrtIlM3bbruNhfJBTn0k1kt8mVeuXAlG2UGT1JMiv3qduB+0RX5lVQGX/YWwvAWpN910U91LRNBSPXLwwQdXdzspdldEvxCKwuzgV+1SEeOrVq2ig58fWk1tBlXKAdb4SUC6hURb8tURN6JAFIgCUSAKLIACMAg1HnHEEZ7x2EJEDfNhBWSDLRASohIOPP/88wWoMB+wwzRIVN1IRRFMJownCPof//EfMEU8D8SwCdcs6xEwkxN5AA6zUZEZ1ANnZ555pvgWFsSLgEMiikJsopUVkZXICK467bTTigKRjeDfRRddxCUwxH61H9jNNB0Ox1SEslcpRtT4rfOL8JBApuKqI8tTTz2lpbi2yyBUuuOOO8RcOXn55ZejW0L5KB24k5QyRx99NMaC1yKggPjee+8lLOT61a9+xaDzs88+26USmao//OEP1YLtqATaZKADoSjDjbPOOou8EPCWW27RNTqOUFAP6wu4nn766cpyGDeLJTeA3rit47QLenIJDvoVgfL1EVmkI1H8973vfQ8++vjb3/5WX2g4FizqvfTSS90eXNU09tEwqVUtM8/dIUxpGn90mXM9i0cFaN0qbjnKY2VNUMQ9JpLqNmCBcc7TAZJSj4zuE7qpyM8D8HrGGWf0duVYpAw7JjoWosTJKBAFokAUmGYFMBZSQRhIzuMfHcIIMTZwgEtqZA8rIBI8gSAxlsChPHABT0AZcaxmvL4AyF/kV6P58gAdMTwiY1aHugywCtEBEYk+ygwiVQ2w+MMa9AFY2AiXyMZDeYRFnYMk8TDjjYpwiT/VfTDIJUzJbX7yClUXLIoIyskyhKpAY2ePK6gU+wVJFRztuiUE6hzFapzBWEo5urJRA2yp4rDDDgPxTGFE/McTDnCYEUQltiq0KXgJs6gE/lyClcbWJeoFUd7CeippqVrQm9o1R9tl0EHgHq+LEdKEWRb0kaoppi4pjXu8ksiCUr23euVk3CU5SaEWfzXTJa1QiyYASm0hEZF1BDd0paqxo+5mmeBqpDzsVhf0pJKbRAfxR1mdXpMNXBIlZV9Ov1gYx6O6G+WDaT4o6J5RhZ9GiislJ2FVxL5K3au9DRmLlD4dMBZ+x8koEAWiQBSIAoukAKYUi0IMnu4gANB42GMa3IaQEKHoXQ3pwjgT+IAILMAcxZRK4S3YhBsctbeRq8xiOygDrYpC+M8O1ChaRbdCbqoQTmOZEXTiIwaCpIrgFUXwh1gauOQPa8xyEn6piBtdmvBNtpqLKUNNZuVhTZRUr0uKMNLJkSBMpbUuHlGhIgDETq/gHMBPcopKqr2Xh5jFgi4BODznqOZrEWuu8gRjQUk6E02r65dABYkRGxH4g88cnQ4UKUpxUk6qAowqSJwKbTLuhJNVUBWcUakoJhJ1tZl70NU0V5ucpOBG9a/8XK14Nj+dC8QSGUn7aABdbwqFgtGaNlD9zgfkrcnuh3Jb1XBTd1QwFVly3i0nPyVhKx3EesV9xdHde/SH4ErJpjnaqAplnXOVA71dMy4pIdFx6an4GQWiQBSIAkNSwGMeC6JGx3XXXVfTAUEMtoAaVgI1fgA4KfCr2SS7oEeRzmCbIBb+gAtFDPWxjMjpkN7QEu5BtNANi8gjHZ10FSlrdYljsgko9g3v8U0r8BOzAmywCQjWIhjFuV31+ouWOvUtEFS1UpoJiIFsVwcoAr8E5HiLsVBmL4kqooH8d5SfuBNRlSkNcbXO+c+3Gi5Xb5OhIc6u2js/8gSx+VVg0kJxLX6FaF3+8BbtKajhitCkq9WNTYxeOat1cmo+r6q/mmwaJbExoh8VdKja3VJX9abi2gVnu5ogEVmam+Eu8ltCT0nRO5TUrWqswCq5/PiR7qMZww41so9uVVH3yQBxWn4pJNryDop7USAKRIEoMFQFMIqImjFicSnP/kIiMOSRL/JXwUXAISIF/gCcwJXgmSAlL5GBIpAIABUGOXFUxBSIgAYfQV7DLnUVKVZ4UjoaM/qsOvxXQS/80VVEKUWQCgdckpm3hXpdYikLcdgs3jWgLL/QI5ecwDVxVmW7Vt8zAoYE/OSEQfiVJ7J1wSgPNVYi+1rX1wHSabXqUKDWOSGX6QfSDcqTF6VhPp6osRiOnZppQGEZFNFMQExzf8Uju4KjvJVBWFEGJwKNIpTcZk0KtxtNVIH8NEo6ZbgE/vreXkpplJxcNaO0fmnAxGpCFXEb6GUN4aR7BjvqF1WbSuF+UEWFwGnuknp7SVSiub+mwNKEwnymueC3nG42RioEqzpGfBQWpZUTIVKx+QqjashsYL1vM9uQGBJtQy/EhygQBaJAFGiLAgDCACuwMFZ+3nnnYZeKbMEO8TaE6ioaMIURdyID2eApIgENhtqBhaXxIA8GwQtIAXdq7BtsoS6JjppQqM1OZGZK7A3woTrRL0d95IZzDhgBB0MSFVGcTXwJQdRSQIl+fOwVUaJoJWqRX6liL23BTPAI9yBpf3/3u99hnU6ggWKQyOROiTUrkRtdJKp2syQt0keHBWS9DiBgDnCSEZ4jOfE/67SY4pVSQFMEGq2iT8yHwJwDeumGs/3FcxqulMVMZLckqJdEsaCmaVczB1dFlkbV7wEtdQJSoS09BU31YDlP/16fpZCrZu5ynmULg9wJSFR79aa+4Lm/7hayOHdXaKMTi4oAIgtuFbXIo+GKuFWKYv3lCVeZ1UA3jL9uDMhbv2ToUAFsU0Rc0iI5xaQVcYnbNHGnUc9Vvcaa6jTQwcm+zWlzYp+7ts3uxrcoEAWiQBSIAouqAHqAF57xnvQiT0Cq+AzriFrhGM9+A6NoAz/J7KNAHaDBN7WShnv4DzdYA463YBCORHUM4kVBRMSJ/BSXE9lgC8txoCF2gVyAlR3oI0V4z1pvHOOjNeBwhz9oTHXWg/NTcVzCK8iIHZtV841E6ATegTn+gDmOsYmPHZxpRsl7JWXKpFXwh4E0nBTsc6kzZwVczWvUtIoK99oBamrEl8agtZQR1mRDYISlM7yz+huHYT5GUJe1XEAQYAmaYnGe+OtAdcTpOxjNlOaoy68CPxhIpMlMsaODIB0G9ZEpAUj6S9Qu5Nd0WZfn/LEgXfN1sYNxzlg+pfvEj//93/+dG3qBZeKLnupl3cc+JyvKW1Vfc801GkV8f7nkLoLjMjjnp82wtBrHuxncJPYB4A+RmbVwXh7L7QVZ5TdhlDMAlIb6Tr+TtHqce2q3Z4KbzYL63i5oeUpItOUdFPeiQBSIAlFgqAoIQXn2CxPiIfzRWbew1oUXXijs5MBw8KICnJgJmKKxmn+pCCaQASNiCNksgoZrkKUWrAiSyYBj8BNeUReOxB/AoqjFJek8EbBUKSKBuYpUKA5UoTdoCEFQHc4TI6xlPdDQVQZlYBzZiNQ6x6/sc7smF8qmaWw2I9cFpjLLI5E/qM6hCQzKiZVRlBoryMo4isKR6qqonpxSxAUbmyWd/JSRrlGkcKIWPquCRC5hZa0WKUTh2sia6jCi4qbkKg65lNUEImt1rRVzFcAJWtOHqlwlvo6T2SWmGGRKFUBcWRlEr+GjzDLQgfM1ON51e6nazlzqJalLivgVARB5pWo7TwF6HaG9JK37hCfuAU2T4q9ztRCfM35C6ErV+VszPeoe4B4x/cbghhQNdy85qX6kIYn4rEU6l262lNLXfGNWNreEugCoyRUsV0Sckl1tGYuPIdGx6KY4GQWiQBSIAkNSAOs4+lYGehx1CW3AAuExUIIbRMUgAp6TIgOwwAcQEEyANvHLGrF1qaCkInYICXmgGUCGeECMSBhOhRRADWSIwymCii6++OIqUhYU4QlGRLpQBqww5RKOdMmBnKRc8M3R1RbGRdT4D18c3KuAYmE0f3guFIdyFOQ/mJPIQw7wRGLNOr3iiis6LXeK05muCIZjEz/RCoFpKTSvfQCIBtC1GrRhO0ZQXaO/ppFL8FIgUNOAIDQnctn3ssbO9zWqhSBcrTkMqoNxOsIJBNRZflrI0KVG70f+/M3f/E1veqXYtJVZ4/5AkHHV+UgQV2kOH7WR8oS105MwsKkaijQdVEawrPbyCmI6SORgTWPdS056b0JGqqyOw+XitTTRHGFaPaVD3QmF7zN53tr0kGhruyaORYEoEAWiQHsVQG/QDWsiEhgBjwBEp7sADqNUAKwztorJ8BbqgiCMVNkaJffXJYjmEmvNMHRTBMapwiVhRZk5wLKTJgyJRQCQPDIUm/YqKD8wAk9Vi5ycVy+KkhlasY+AXfWRh+xIkQcXFgU2LNhrfKYUfrJJK/iFbivcWJk1E3gBKZeo0TX4To1aJ6RUr8hd1akFqjYq0Y3zBGFZq+fgdt/miFWLjLJJHMqopbL5AQANm9ob6q1VR0WrlVP40+h/TRsw66BedgWUNRaM9q20SVQpyxqlIpqoXe8je4SqosFl23k1JNrOfolXUSAKRIEo0GoFAAGc6iSqclc66IEFGAhCNaHQpjFwYSZiwGF9w1oM9k3vdaBmDgwWDr50knFlRledpUBnr5FOOO69OjgFBc4EgswSqm/xmUTum1li3+YDxJnyzy0dK3fhctkBiF0xV/4IlMoMFjvdKEQWAjc3tKaNmrxh/kPD+gMcqxusq1EqGlCk5ZdCoi3voLgXBaJAFIgC46QAAIUFFVAcJ7/j6yIo4PeDcG8XnqrHTxE3iRVUYNTPD9FQ00CFOVHmInjRdpMh0Rb1kLV+Zm27L924QvS1ks78DwsnZ/pJZ9aO+SLuZrOeFTT7xwwb025a1Kq4EgWiQBSYJgWEG72UvJYH9UZMp0mJtPUPPMpN8EWizQh+iQI9xUpNSKiZD6gUs840m2LidWwvifo3xlhm/tY2bNUTpmX4JaFHjSN0rc6bgK7SXvRplV/tfLZq1apaXyli39s6eYT0zXo2xaTyu6dNPCJLSLRXrqREgSgQBYajgKFY00OHU1dqabkC+LLvtApLr5odAFrehCG4114SFeGzwZh9v0QKTbihBQw1P1d00Mxcy/qs4xuCQMOswsR2U5XNGkGWtiWzKRrg1ti+M4pEQ+1U9+CDD9peDporWBOGuqbMD9P/1BUFokAUiAJRIApEge+kQEtJ1CZbANTGvyKjVttZHijUZ9oNOLOfljeuAi/IVW+e+E4NHpwZ3hUI1jo79fb9NdPXiLLcMxOcbwqyU7uaAUSICRbNBelbsEnUQCF6k0VM6/arWiknivcWtHcuVEXqzNrGVo3yOzfZmSaDa3HVaL59RvxVI8w1RpAfZ98qWjJEgSgQBaJAFIgCC67At7DRgtc3S4MwzmawhqqNcSAt8ybNvBEQ9V4EbxEwmdJuYbY/MLe3tjpz1dg0tDJREqHCVoeoqvdP+GjuRe3aBexQl7JG/Hki0eEqO3XgM+8wqC0YWGbNcjaBSUVs3FVbJNQiOAzHvnQnckJAJGp/L+Bodwy74IJF+3txqd6Qy1vMxyu82IQt+cwTB9a0vtJUBDXWvmtWSvqo0uLFLt0Yt7+a0Xnb9pqGwqXa+cJ5CcUZxjtLaSDMRbfmAKD5xx9/vKY9cL5em4a5xWLRM2tcZZD92p5Xwb5x2Vn2ZrJFgSgQBaJAFIgCUaCvAi0l0Xq1l8iipWRmSRYGYSaUhiZrzBoC3njjjf6K53nLArqyNa5IIdY0oi2Siil/9atf2RtCcXCJ6kDhVVdd5fVl3nhLDgHXCgqiLgf4E4uFv3hOXdjRwLc5l3/0R3+kiAMm1kt4bVeGQUVtoSdeFJL84Q9/6EQe3hbYYTh5+ADjZLjlllsQHmu24W02y1AFT4Q28etPfvIThI2/GTfxAFD+5je/wYvokAhdMUu8WPseE4qTWoGnoaQXSGB31m677TaC1Cq8Am4ioGpvBzHhAc2ruiKpmmxmqsObfIH4tddea1c5zeTA7bffjrYVscFygqZ9/3+SGAWiQBSIAlEgCsxHgZaSqEAgcMRD6ArAVQtxFQyFRJARzNkVtt7WIMoI+1AUpBPwc1Uwz3KfWvoDK20nKwNMFCmEjwxCPcSpCgCHDlEXsDPtUr04TIrgJVOKWA9U4U91cQP58QGZuapGLOtAdfVKNycikVJkdqIgs8W7FaQEdhKbDsPHalSqYFER+Z1zzInAsOpkrhhtZzdjXOFepuhTb8WwtqngGF9y3kciiLO6qgpvsOW2E8YRqgPT43LMas1TEbDYM+pl1kxcskjkOaz3semC+dxqKRsFokAUiAJRIApEgS4FWkqiwM7Rd1C4a+dYeArIkJ/YnkMsE2xBOqAJxYCaaZe1lhzPwUp5fPQmCVcBHz475ZRToCp0u/nmm7GXwKGrEI0DgqzylGQsIzwfGXEJ9iFF2AfamJIH7CqONUGnOGWFLWutVVlQSnFwKVEpQUrk19UfNUmAM4bOVcHnmlrQlU0tKtVMTCwKa7i/YqsmqnLekH1NP9Au7wHjidhqY6EoWSk6gHgH+gTolV7qgWOtY1x0GbBmaD5fHFEgCkSBKBAFosBiKNBSEq2x8ooUfmuzhSfvuOMOICX+B6rkh3rifzCuc7nPqaeeaphbxFSEDyz2mpVfmNOQtOBo8R9qRGNNTmbxH0DElE5kdrWZ9FkzNU3fhHFqkQcv+tsU55s3epnqWjNNa6ZBrxtgVMwSPkJALjFIh65sFVhlR8BS0FeRmjmqCgwKiGsOqAy86iorBX0yLq4sp48aqyL0LBCrjRiU/2xqnUkOznudTEoUiAJRIApEgSgQBeavQDemzN/igliolT2YD1B2GRQvBHMoCoDCJsAE+KCbQCDQvOeee3CbRCFMjFUhxrIAtgQR/S3McqnLsoLq7Vx7bo6pcXymKqcMdY5BuVGU2djBc2oUJRWIdaIuf7FdU4v4qwVD6BBHcl6cEig3c0abKmpMn3Fj68jSKHmvpJpQcUo2a+jcR0ysrIMsijMON/sOrFd8lxEkWv4rwlU++1hFoHCFjWmiab0+JCUKRIEoEAWiQBSIAvNUoKUkiqLwnHHwCvIVU2oqzDKv8ZprrjG4DJiKRPETLly2bBkSNT0ULyIng/ig0/C3qw5lTRtlTbpgZF+0kgj+2MFeakRpDlNInTcqA03nfKgJo7itCVg64Y+4rJmm/Edyxso7g6+g02sVzHMVvrWsnj+c6SJRDazZnC4VtvbtYB462OEh6OSGE+1tJidUPLgzoNtpRy2UUYTPcnJb24GpdCfirGwKkT7zzDOaD8cbFu/rTBKjQBSIAlEgCkSBKDA3BVpKojZFMuiMhJClholTAi/YhE3NaESBTegOZYIn0xkhYDOOjJxYMEINGRkBW8oawZdy2mmnFXh16aUIKBSFVYW3a4o1IkXzRDFl59sy5FFLrV5So0hkYS5rMK4WJHFVJFWlSLSrFlBrGZbgpbAut3uBGIZabm+uqkr7hjPLIDrkWOGscy4ZxMfZ4JU/LGjjTJM7VcpPK+jlgftK4U5GBJXNKyj70k2fhdGqgOYzmZrbPZdSUSAKRIEoEAWiQBQoBVpKosBI5BJdGcUGbQbfizKt+BHMq000wSKo8tGsR8uScGETnoR6Qo9YEFYiURMftbZATdQTKTb42NwH7MNHQ+EyA1DIaG2T6gBfkwf+WgMkTGjzJvnFDiusWBlcrb1L/VWq6I2HNfztL2vYVEFAzAGe8FzZBknlcSBaK9Y1Xx6Z5ekNSXLDyDtW5q1ZrWpE5+xYrsQl/ovdMtL3LlcvTCcL6uWn2KfGCtZKb1ZQ0d96pltvvZV96K8ubNrXWhKjQBSIAlEgCkSBKDBnBVpKorin0NP+muZTWggPywAZ+MOLuNMIuPilPOjTEvsTTzxRtBJ3SnGAVCQnpog+RfXMd0R4tsc3fA+wMKIdoFhDYM3Iu8R6vbtg4Q033IBiGbG1p/CkPCCvMovUQl7v2JRfpNasgLLDvnq5rVSDnorwQbri/spczYHCgpfiuHgRnvLfoRSglIIIobZNSWGrj5C6NyRZk1nFLG3PJAKq+3EnDLXACIZi9zPOOMPHui1YLueLaEmHQa2dUramH9DEEnuEzU8+yMaawDAGZQrpVtPmfJOlYBSIAlEgCkSBKBAF+irw/6Y59r08y0TchlpqTqRh5ZmicUJuZk8iGxnsRT/YOJsozTh47S4kUoiocJ4JlJippoGK2LEpEXXBNWtuhAmBFM6Tx6XaDqmWFqE66aqWwSVBREDmHFkCQfaFKoVga3ckgOuSkGFNlGRHuhTBQnApdFrUyI5K2UeoLEiXvw5u10J7eMrbcrWajAsrbuqvZqoU6ok7ymN8XHM4yQj3fCSCSxU97VTMCDvOhuO1KErzC3DVS2Rcrl7tVUQKRkeZjODazmYaoFd1KeOvnOLQ9ZGFepcVs2KonbHhwR2Xq6WAQL7XBPgxc/bZZ0eTKBAF2qCA72Tv9fAd7hvbb37f/G3wKj5EgVYpAAOuu+46b+ER0pqnY6jGJElGUIRo4EzWWhoT5S5cA1LFUjN5L7zXecnXSm0dWongbCZ+Qnu+iTrLFnfK34QSO68COEeTMpOgnUPYXc4PGN02c7Qsc6nTK0TomKntvkz7uoogxXE7S2lUpw71sW9Z94qjKYuAZ6o96VEgCkSBKBAFokAUmL8C2Z1n/hrGQhSIAlEgCkSBKBAFosBcFAiJzkW1lIkCUSAKRIEoEAWiQBSYvwIh0flrGAtRIApEgSgQBaJAFIgCc1EgJDoX1VImCkSBKBAFokAUiAJRYP4KhETnr2EsRIEoEAWiQBSIAlEgCsxFgZDoXFRLmSgQBaJAFIgCUSAKRIH5KxASnb+GsRAFokAUiAJRIApEgSgwFwVConNRLWWiQBSIAlEgCkSBKBAF5q9Ae3e2n3/bYiEKRIEoEAWiwBwU8H5pb7/zsr16H17zXmimvJqu3vzntX9eFOI9KXOwnyJRIAo0CoREczNEgSgQBaJAFPj/KeANyVdffbV3Ke+7775XXnml9zw3lyXeeOON3iztFcp//Md/3Pliv4gYBaLAHBQIic5BtBSJAlEgCkSBSVYAbr7wwgsbNmwQHEWlm2++eb17ef369T7CUIdA6ccffzzJKqRtUWAoCoREhyJzKokCUSAKRIGxUsAovKOQFIYWia5du/app5766KOPmqZ88cUXn376qfgoMAWsX375pRTHFlts4SOQZURmH431V04fJSriRP4yZay/ikgpI/I3lxjfaqut5HEJ/rJs2oBavvrqK9lckrPqlSJbFaxLm2yyiXolMqKUDHKy49zUAh5K4Y9slaFqqTZKZNzVzz//XBEGuV3OK+6jc8UbNZw0FcnQmZ7zKDCTAiHRmZRJehSIAlEgCky1Arvsssvuu+/+5ptv7rfffgcddBAtTB596aWXTA8FYevWrZPi480337zbbrvJcMwxx/i4evXqZ555Ztk3x/333684ODvvvPOw3e23377ddtsp9d577+20007SX375ZZAH72DoGWeccfLJJ4u5gt0nnniiyE9mOHjYsBGMogAAIABJREFUYYdddtllAPSVV1755S9/edJJJx155JHyvPbaa0DwkksuYerZZ59dtWrVu+++Kz+DPGThiiuu2HPPPW+66aZtt932wAMP5OFbb73Fw6efftq8gu9973vLly8X/TXzVRsPPvjgI444QnG1/OIXv8CvEv/wD/9QSx9++GFeMbjNNtsQgfMc8FHB119/vWibq07QbVXE56m+e9L4WSsQEp21VMkYBaJAFIgC06TAzt8cb7zxhlAo4IOSqAu3Ia0dd9yxSPTDDz9EdeKUUnAYEn3wwQeN3WM4oKbsiy++KH3//fc31v/kk0+ecMIJRY2QTpxVxBGDMoVZ4aPq5AeyVYsMyjpHgQcccAAjqgOgsiHaFStWgEWgCTr5BmGfe+4554ceeiiDb7/9tpQzzzyTkTVr1nBPES6B1wceeICHeJpx2fiMjCvUqqxzNXLDVASULGiKbmEum0yxQw1G5JdZCh9YcJX/e+yxR/kGmqfpTklb56VASHRe8qVwFIgCUSAKTKoCIn+OlStXwixMJrqJzxxihziys9U1II5WwR8wrUHzJoPR8KJV6aKShq0fffRRkUXQ9md/9mdIVBXXXnsthBVbhX1YEPAJZx5++OGK/Nu//Rs2vfXWWy+66KKqSAbQyYgM0Fa8kzUwuvXWW0v5y7/8y4ceeui+++7DwY0PjYcSsWynhwblFdRG4dICX5wqHtxEOkGn4+ijjz722GNFUkEzV0VJ+YN0VXH99dcLx6LPCy644NRTT53U+yHtWiQFQqKLJGzMRoEoEAWiwNgrIM4nbInSHnvsMfwnQGi8HnIB0662yfPb3/5WzHLJkiXG3MUmmwwikeAPXKI09Ck46pJoovOaLQolTznlFCnCkCKOrlYtZUG6IW/2RR9rSij76NZIOgwVoK3pnsrW1M+ZRFfvHXfcgXRNJOj0sKZ7Co7CbudO1LX33nurokxxZunSpeyjW9DMAihvJg/MVF3So8AsFcjO9rMUKtmiQBSIAlFguhSAZeKFtnCCgMbHhSHBmX2davlRpxYijkBNJBILinp2bTJak0oZgZ7NsLU8DjzHpqmZ++yzj9FzpGuNFMvYtDYxZVm2WqffrA0S/oSV4rLYEeC6ioxBMOOFqr39xI645iOPPMLIcccdp2zDykWiIqAymH4grIu5C3/LDs+1jm/qhaF8Zq0TtXurS0oUmL0CIdHZa5WcUSAKRIEoMF0KgE4TNGtmp9mWMM7QvLHsXg6Da6ZXmihpwLpr7J5kGBHqiXd2BlML/vCfxF6DA4SGm/AUFBqU5xI7cJYDaumC4E4jajGhE2JaGmWSaOcltRuOR7TmngJuZl2tAX0nJokKpjoRGRXWFYg1C3aAe7kUBb6TAiHR7yRXMkeBKBAFosC0KIDPxDj32msvMUvBQjMsYZ+P8LRLAsPZgNJwuasVy+wkSyn4VZjT0LZwo7IgTwizONJHZmvIHiAiQtW98847YpAusSMeiTKFP5t6TSe1UAmJgmNTSFUtg2XsELnW5vf2kLpk4IbgK3+Y7WJfDK12AVFlnZg20JAo9xwcAOWHHHIIxwpVe2tJShSYgwKZJzoH0VIkCkSBKBAFpkIBUUbYV3stQTc0ieTEPrswDiyiwOOPPx6JNtMrG4GQn2XmwNFsURskNSPjYJQpsGtqJpRUlnEfrUwXPUWZopjinSZlsmBTJAPxtc0nl0Aha9YYWTmEYhGkzNI7XwfV2UPqArI8tAC/Jqd2XgWdCFiK8KdsSLRz/J1LEk0bAKA80VjnxuhV6uD2VNwKaeSiKRASXTRpYzgKRIEoEAXGXAEEZmKoQwwSkFnr41x8tItE0adhcbuBAkFw2dVo9CaUCBOtdrfyCeTBODlR5g033FDkKhEjmmOK7cQ4DZFbTS84Kl080op1C9XFO01XZVxZ8VduoNW77rrr3nvvZYoDakGofSVXCzeQKNjFxE28szL7yDiWFdxlxHKlTlo1oI9NzTF1EMEaKbJAZyu0IOlVV13Vt8YkRoFZKhASnaVQyRYFokAUiALTogDu/NGPfmSBESarrZH8xYXifwV84MyuRqZLIjYvpq/B61o8BBPtzQT4zOa0BT2woxo70v/kT/5EkLU2KFXQmnSIabAbAtYIvnCppffqQnvNJkrqNXSuRnk49ud//ufma/LttNNOM9ouIAqLoSTHsCxS9JFjSqFSkVQFL7/8crVgTTQsgxQ+G21nEPtiaw5wRo3+Co7WED8jUmS2iT23saxmcltD5Ifd/NQuRrSCZZc4MC23SNq5cAqERBdOy1iKAlEgCkSBiVAAbF188cVNU9Cho/kI0TqX7NhEs7PRCK8pC9E6L+FIH4VF7S2PF9HkhRdeKD5aY+5oz4EC8a6dO/sKCfguvfTSumTr0L55UKmKHCeeeGJlOOecczpzmmNw/vnnV4ppA52XhFp7bXIJGfemNynI2DEgQy5FgQEKhEQHiJNLUSAKRIEoEAUWS4Ea4sd5govqqEVCvZM4F6v62I0C7VAgJNqOfogXUSAKRIEoMB0KGAH3wndTLWus3DC6YzqanlZGgT4KhET7iJKkKBAFokAUiAKLpIBJn5dccskiGY/ZKDB2CmQ/0bHrsjgcBaJAFIgCUSAKRIEJUaClMVFLC+2gZnsI4xdWI5q+XdNoqG77CRue1dZoppBb5Wfy9YT0RpoRBaJAFIgCUSAKRIFpUqClJOqNZPfff7/Nfu1hZkWejS2QqMnddpSww/D1119v41+rDi+77DL7aLhUb4BwtTazMOfGRhXmfftYb1FzLtFHqxT99VEGpXysS646Z8Fh9aI8vbsTuzFsVyGnS5XTEsWmuJTOIjUV3VVFHNN0U6Wt30EB90ndlpkr9h1US9YoEAWiQBSYFAXaS0ggDxF6l4Ndgu1bRnCoh019FBNFjUi0esH+Fy+++KI9fr2UAgsCU/PB7ZEmg4/eomu7NSm2PfPRtsA2DbZB2rJly5R6/vnn7bhhCzQZWBaIFW1VHfvLly/v7WXbqtklzu7ElRNi1oZzorNqUVcVAaC1K4eQre3cZtpquNd+UqZQATe5XazdV7XDyxQqkCZHgSgQBaLA1CrQahItnoN03sBrdzcj9UjU6Hz1VgUdPcUBqDdMIMhKAazeUQFk7SdsZB+2es8vZESc4qM17u/cqya8dW3VqlW2ZMOLLnl7L04FlN6iIWIqp4rqBbvNLht88AoKb1fjlSCWurxsDdHKICeWBbuqRsMMml1Q72GD1Pz3d2rvszS8VwF3iJvW3etHlLvULRcS7VUpKVEgCkSBKDDZCrSXROmOLMGcp7XBertdmC0KSSGg6KaT4k4gaLz+lltusc+wgKVgJxx8/PHHAaUn/RlnnAEoP/jgAyHSGgb1F7zW2DqoBZG4U11eXAZDgamTiqGafloO4Fp5BE1lE0NFogKiXkoh0smUl63BCFwLRmGoFNTrXKxUtttuu43/PgrBhkQn+39plq2r+9Zft5lb1y0nIOptznUfztJIskWBKFAK1Bd757srO8+jUhSIAu1XoNUkSj7BS4egJvQUMTI9FIkKdiLUEhdlOqCeCaPnnXeewJL8vokQqiLyOK8vJtlQZnFAV8cwC0kFNRWXx1Xc6aUUEBMi+GiuKpQUo0WWTz75JGjwAgzvooCeXrAGlMVT+SAnIxDWmy3McOUDy174Bkk7p5C2/7aIh4ungDvB/BA3zOrVq80AcW8Lrpsf4j5ZvEpjOQpMqgKGtowqeDr48V9fwpPa0rQrCkyqAmNAopYrGcEUmBQT9Y2DFL12TBjJeiO9Akw91+URKK23jUmRTfBSeFIGj/kalPfId4IsCxabHsWp8gudYkoUqxRaRZMOKKm4nIbvzQR1Lt4plCVA27ztTQjWkD3qbeCYHXP+fC1K56p6QXB5O6m3Udr1rQq4qdwDbr+6OZ9++mk/acCogjYX9MI9v4K+1UgyRIEo0KWAp4PhLF/4wge+lg09mRzl8D1cS0UTIs09EwVarkDbSdRETz9277nnHuFJ53jRVwzO8xcREhdcVmCyWZ/uxJeRJUcVhhTIBIIPPfRQfR8BAiyLLDs7RswSFnj/rzyCowP6rJbbs99wAzxFnKrjiYLOHWVB1XXuUt9Y7ICKcmnCFHAD+AnkkXn77bfffPPN5ofkx8mEdXGaMxIFfLsaerLXimGo4447TgjA1CkhAD/whEiDoSPplFQaBb6TAq0mUQ9vC32MxeNINOnrBozCUD98kWiFPBEh9ASdnutFe058rD1x6mvIN5SRdN9KeLFWLDUaySmcKRubAqvYcbB8ZZYdR+VUqa/C2q2JHekcgKoitRV/lehjvhAHCzvBV90eZiTXDBB3smgoJJ3g9qZpUWDICvgS9k3uX0yUQSjUN7kFA6a7GCjzzQ9JPUc8BWqAa8i+pbooEAW+VYFWkyjvDZGLiQJQA+WGNf3etU5IRBOAFndCUt84RsaN0ciDSj31DYjX95E8uFAGpdhBAEixpn6WNL6/mIWhMszmBzRTvuZgsVrUyFoN+hvWV9ziJGYlyuBbzyXgy1WX8iX4rffihGVw7wl8utnM3xAKtbLNlBIY6t7oaqlb1O8Wt1Nt1zBhOqQ5UWBRFajBMVU4ac6rRt/5/qd8vTvx1KiN//yvCQ3496wnyKL6FuNRIArMRoG2k6g2gEujLb5i/OQ94YQT/MDtbJhfug7P+yeeeAImYj7Pe3OGfOmYzSmniFSNm7vai4MumfButdMFF1wweFy+KmWWA5YoCYLWKnv1AlybhvoVbim04XjpNm/y9cfnlStXWtGvSGYBzuZ2nKQ8nnPuLuhpYoldxvx08bPH0dtG94/5IY888kjnb6TebEmJAlGgV4H6/d+bLsV4l8kwniA1lnXSSScZYZPft3HmxvRVLIlRYCQKtJpEfX3UqLcReQ9pz3WRS+eUMtoC+Fw1Sx19iif5CEB96Xiuy2NbJXRoTNxP4QJQmR1SIKlQqxPsiHH9tRZKpFM2plQhztp0hu8sFhRRVqKVJf6CBnMDLDcR9IKep59+OgtCoWw6+Ck6y2GRWhh6yimn+MvCSDo4lY5KAXeCu9Ht4dZyQ7oZ3BV9nXHjyeOHk7uxb4YkRoEoMJMCtd6079UabTBG7zHhX8x3u6CAf0z/lfV93rdUEqNAFBiyAi0lUSzowVzTfbCgrxKgaUjFPPSKdDpBkyDSRwPx4k/GQA3EiDkZKPfgt4+SSwWvYpMy12RNV0ksjMqsIRvAKgUBFKE6QQ8mA1Q3cEMeKUKh9c1ltx2VqkX4k1k2xT45g1ZxBiM88ZfxGieyoakq8o6lId/WbaiuSNRN6J7Bmh5+nouG5nvDom6w+lEkYNMGz+NDFBgjBXpnXfv69dXt38r3s/+7o446yrYq9VwQEfAP6JFRUYkxamZcjQITrEBLSfTggw8GhSKOvjh8oSBRqGddpJhldUa9kNO3jO8a3ymCjr5rfMUAQU9930QoVk5lsWAtIaq5QSjTR3l8VfmGsjOoc19MitinCXcy0tTCDaAp2Alkm5vAOZscYKegkxuOJuIFW88999yiUmZrctIE30Np2gAFPP+smXBr4VF3l7HC3smgbmD3j7uufiYNsJZLUSAKdCng27srxYiZJ4K/hqr83/nrS9j3vEeAoXkxi2gYBaJAqxRoKYnCxM4h8kK9TuHEkDo/4s5Czy5xPeOFPzsTmWo+dpXyjdb1pdblRhVEt102O+1D4aJPZcGoSz52eZWP06NA/Sjyg8pcEXeXH0LmMZvxLKZemz+Qwn3iRnVf5VaZnhsjLV0oBSr0IHKBOH0z1xiXwISQgX83DOp7vvnaF0Ctr+WFqj12okAUmL8CLSXR+Tds+Bb84PY96GsOJTuHHdhi+G6kxrYp4JbwsDRM76FonrHZzN7waYtcK+TMHukdW2yb//EnCrRZAb/f0KeX3vn6NS9LENRk0AHBgja3Jb5FgelUIKi0YP1uCsEPfvADQ/l+f/sVDj4WzHQMTYQCAp8i5aI1qNTUYS/8tKzeKxUmonFpRBQYjQKioX72G3bw13evvwIBo3EltUaBKDAnBUKic5KtXyFfhVkg30+YpP2fArWGyXzQGi60nhePCufY4Cnh89wlUWBuCgh/1ndv/onmJmBKRYGRKxASHXkXxIGpU0Bw1HIKi/DqBTCCo/YTTRB96u6DNHghFOhdRbAQVmMjCkSB4SkQEh2e1qkpCnQpIEpqCzDzR+3uZL1F9IkCUSAKRIEoMG0KhESnrcfT3rYoUGt4jS0arBcizcL5tnRM/IgCUSAKRIEhKhASHaLYqSoK9FPA/LZMcesnTNKiQBSIAlFg8hX43zdY5ogCUSAKRIEoEAWiQBSIAsNXIDHR4WueGqNAFIgCUaDVCtjr1+zt9957z3ub7c3HV9Np6rV/Nsy3EVvnu1da3ZI4FwVar0BItPVdFAejQBSIAlFguAoA0Mcff/zBBx/01ztCVW53C++C9v7nE0444cILL7SF/nA9Sm1RYGIVCIlObNemYVEgCkSBKDA3BURD77zzzo8//th70RyWFcLQV1999Y033vCONC/SEzQ9+OCD52Z8XEp5L/E777zT6W29Fs4GrvZFthey9wh8+umnNPGaaxItWbJkDq8VaGrxcix72xEZ+jOoinpf67jINU8/7eXnYMQC1j333LN5I7RVrQ5S2P5vnlW0tnhItLVdE8eiQBSIAlFgNAoYkRcWBVtHH330OeecgwMg1wsvvOA9vY4nnngCJ3lfmhF82OSSsfvaDcMIvn0wkIQX+cLZTz75BEDY9LReeQ/UcAbMeuutt2QzxK8KtMeOE5UypcGMOERhy6YUJ9Y1fvXVV9J9hMjM2gNO+kcffbR27Vo2GfcRMTNib7jalwMmMq4ukKcKZWX2Ng11+chPzax5CFCyqlALxLSvnJxPP/00+1W7soyDUVUreOSRR6p03bp1jz32mEtSvG2VZYLUi69U8frrr2u4hhSh1jyHpkelc0wVL730EinUzmfKFIT5AVDVrV+/nksyVPMpQEM/Bjj2/vvv85+3TEmXX79wo/emoQPHhLRl1gT4669+8YYRHsJfeN0oLI/m+Kj7XGK5/GdfExiRIt1dwY1tt91WOmfefvttTsqp31kjL0n1lI8EdK5T5OGwhtRmKewX1jNVP3JY4zyv6OCN0Np++OGH+0hYORlRo4boMpYZJEXpIEWGRgee0GFctqkOifbesUmJAlEgCkSBqVbAA/7SSy+FC07wCi0QxkEHHVQQALAcOAySrl69Gki5WmyBDxS56qqrXnnllbvvvhu8whrRPmAB4Jx8//vfxzFXX3016jrssMNg7h133PHAAw84wShKqQtKOmAHm2pxOCn2wi4yPPfcc2r8p3/6J+l8uOWWW8AQeFIFNOTPxRdfvGzZMvZdYhwVqfess85S9uGHH77xxhtlO++883784x8Dwfvvv5+rhxxyCJfUyw0o+ZOf/IRNFPXUU09hMrUrqy0OhKSZSFQKDHr++ee5wR+Adeuttz7yyCN/+7d/Kz6Kon75y19iPnRFE76x3HlXMWXGLW8hL95SXV0FeYxAZwDH24ceekgtuJ9v6vXXi7VPPvlk7wThtgzqAmHIEq4df/zxf/3Xf91ZS53/7ne/Q8x/93d/p2kc+8UvfqFHKHbllVeKRP7Lv/wL+9pIXgfW/Iu/+Atuc/6nP/0pyzqOHfax7z/8wz/II/3000/nxjHHHCPRLI7rr7+eETnV5VY599xzwbQb4LbbbkOE3mNy0UUXCbRzWBP0iG511c+Jk0466YwzzkCiLrFWPzZUB1uXL18ON7HyXXfd5bcBIyeeeKJ3ROtTL4u+4IILSLFmzZp77733vvvu89I+PvNWrwnY04EsvVK0MCUk2sJOiUtRIApEgSgwSgU80T31wRNo8Jgv/uMQFoFTFcVEEh75DgSGPGAcJvMR6IAJYIHh0APUgAjS4SMYwhwITASLcaADTQAHUENIeEX0C+cJCkLe4447bu+991aL+QCwSRGmVCQsxxpPQDAj4BWpCICdeuqpPFQLg+gKz4FLzqgF6ilSgvJfinQnjPvLIAeQpeq09/bbb0dIQAdgaRrjvBIbxpq8YlyeEgQ7ugp9WJbTX8ioIgZ5hZCAo3Ol8BNE8xGxsYBcUZq5tmhbflhPMabKGUXkZNAlbddGXMWC6pjFZHyjIYbmIVAjlL9cgtS6Rn9pOMbtvIEqcMgm8MXu5TP7pGYWQTLCGfb1EX1KZFcpSXO9xhouJK+y0FzQUUOIfNRRR+kaHcSaVrjkYzWEvDKTWqLMHHZQD8IiUQ6TVGb+mHwsJyfVSwdFeMXb0sG5lgr3ysxDCO7W0lL5lXLX6V8G9ZH7TSlU6peGWc5+iqDtTh3aeR4SbWe/xKsoEAWiQBQYmQJAB5apHpRAE9jXuAILamxUClCAAoZWhbKQFjJAAJUTl4AYeIe3UCYwcok1/MG4PJiDWWDkEhCpkCSCQTPKordjjz0W5aAZpbCaeplCG1CGKbwCyGRGLbhZTFFUVWaBPbCiODZy1aGgdNmUcsJntUt3XiciZ6KAnISzzMJEnjNSGeRBokANCSEzSCRUqRXQCmBpgoY4qVa75MRfOVesWCGcDNDZxJ3IvpqsdWqkjPilzOAMivGKwz6Cqob7+ayNCFvU8LTTTnMVfANNlK9GBKZpfOO5v0pBNP6IFwLTLhLlkiarhZiAskbPqaQKFC5+idiK/FzCvurSUi7xWcxV/LhSRGGdkEKLXEWiOl2l1ShxXNZKjeJpnSW/Q0X1Ymea6Gtdpnb+UInU7iJqlwOE5QCbjQ5loWTH926GYlZF1KJFPrr96KAfZVYR/VeuXFkTMKp4m/+GRNvcO/EtCkSBKBAFRqkAbvCAr7Hp8gMfCBlWCBBJwCwkWkPzXY7iA9AjfMUIDEI2nfP2msjZKaecIkgmIDegnYJn+LVmJTKChACTqjmjFg7UrlJgpeAPShZxghUpqBqGmgbAbSeIsyhHfqZwD7b7r//6r4IhdCWxyxl52FEpNzRW/v/+7/9WHEIhqoZEleKenGoBkVhTnlr25GSmaYtwjaR8ZhlcgtGqHWZpnRpxm+J8qPMCa3q6CgehmIIUxvGq5gwjvWKSC7wKOaN/HCynelEmLiSLsXXxWpahM8p0Ve0ONRK/y5qOUIq1MlixcJFvR03nYBlKcolQTVu4V1L/7Gc/I4VKuaSx+FVOl/xlig5qJKw7pKtefcp5DRTsfPTRR6u/mCWCowoqoiBBNIGRXh1amBISbWGnxKUoEAWiQBQYpQIoB0EiPEwm3FjcySFgIYYHyBw+IgmXcFIviaIEtIH5GKmWiNvBF6RS1oCCdNBQS4gQTyfPdTYehBXGMSiPwwlwUYVDTueVx3mdNJecsCyYylXzC6EVb7G1mJlL0EeADTVqpkQ0jF1gXC/BNA6oy6H5mqM6LCizlHJYNilmdrIpyljLjJpLjZOdrXOuRSU1AuMSB0QQpVfrqpS/VXXVVc5zQ3M4X/oDbqr6WFzeWYviFBAspIAhbAVRnUQn8qtUGNWhav5DZ33k3MFU9VSnNSSKBauZOBgdionCbp3rEpBFh8bx3S1NTLR6RI26Q/yyoNxHsiNRtTiXKIrJQhG5Ip3BeBk4L0WkXEVAv/ThPJsAmhQFzezzmZ3BP2+6emGEH0OiIxQ/VUeBKBAFokAbFQBS1p0Y6/TUrwUxvMQBCBWmYJda3INm0ACSgAJdzSjKMSRtcic+KLwDbXCnYoS4AXmoSJSOwb5GGptoQ1l4VAdrnAFw6i1mQjwFPXUC1xo4BltmOkJPo8BKaREwRVE891EQjj+CeTZJ1V5EhXVQ1Ey9UkSlFUbMtVEcDrp1MjQIM5WTQWTGt97AXq9l+kB2TIbDSMorcVnZ6FOxSRCpXq3WuqJk6dquaeiTwsSUobIp1UtgRaIaSwozDdQilKuI2DAP1ajtFPOrwPi7q2phTXVM9Xau/pKuiDxItAKf5b/MprTCRE1gvGBRW/SIZvoIEK1zqiiv4gW7SNQlMjKid9xdvPJbiMONXJyse0CTTWylgCLa5YRunHGjVvCeWTcMHdTSq3YLU0KiLeyUuBQFokAUiAKjVAAf1Og59ASLFddEbADOpEYQBhwFRyEIvKiPGK7TY0RSy3GgjwU32M4AtCKdewwBGlQkKmn6Y62JmanNEIQnXIJ9jhqYxivgybmYHGQBMYqrCAOJmYFFmCJFLaacKuuAhkqJ51VM11Up/moFVMJhFrvUtgAzeVJFMBP7+AnxVC1NfgZFNEVMze/ULtYGmOq8xGdMieGaRPZRF7Q1dRJ1UdssSb3AeE0M5bDGygO51FvrgVyied9KkaVIrekQ+tFwtl62XF2HslM4SxwAV5poBW11feFdr0H1onY/JCigW9GhzIpDcGFROCidS+atKkthV7WielBnIUjzAfxCIKZgOSXVKwOs9JFXXTVCXhb8kFBvo7my2stV94AT/rNAQ6LVzNFet1uYEhJtYafEpSgQBaJAFBilAhgIzYAVDCSyBRoqqAYvYCXUAByWvQNESFFTA7vcxQF4AiKgDZDKlL/AEfBhjspc0w3ZFK2sSYqosbfZqlYdl1AmZmIH3kFh9uUHyhCTff4oW5MROemqUmpUsMZ8kTFTaMZRI7mcKY5BORgUPYtxVinMB2t6nZHCCACiCcuKdJKo6lhGe0bAa+1OExTsa6ozkSmCsMwBxvmmdSZ0aq9RdbVoKRgtYAXTPCcaPx14VEUglSzFlF3VlYC8gnHyqKUCiqrQiXBQLxdYq1orrNmnNnL1M6MQn0GlEHxND+CPLobjWJNLFchUVrZvxvl3Lgea4XWyiBPrF65yWEQWm5IdfWoImwyWkozUAH3p3MgrJuqSJWvkreLVC1bLMYJcOew2UC8dVMelmRj6W/tiyBlCokMWPNVFgSgQBaJA2xXAaoKUhkdxBm6AKVgBcCALHZt2AAAgAElEQVQJbCQuZUG9PYOEvnBPgyYIBivgA/RgqBTEWLFkcTRugFnGT8UmwQE89VFOgCgFN+BdwTkkhCoKL2Qos6VUURpPMKjMKNMiJ1DCJRjKgg04+SMzzyGIAWITA3xEWlJwmLqQEA9xmI/+FvZpEQtihEK28iA8rAb+NFyQzwp07KVU8RCX8BPK4WrBU1GjRHlU55LoIFIvequrnW0piQo0q2lSZKigrBRFELN2SVS7cxoK8vGQMtymmEAyoSpz7Y6kgxSkMJ/tIdB7e3EYOCpYMekSmbeswU3CCirXNAOCUMwYvW5SnU5swtiMoMbCTVXATTmV0h3ay2ZvvaWASxXpBNPaa7FRvQ5A72iIicilgI+NVgpSXikpivuroFpkVqn2ukQceYz16x2MrgnuNP1CB7+jzjzzzMbVXsdalbLR7H+vDPAbqvuPJbE89T6Avpn1t98HtmDQl7UnQt9sSYwCE6CAH7vXXnutr7mzzz57ApqTJkSBCVAAYME1PIHVBJaaEerepnmo1VTC2mpHzMnDviAMLjhgCnSDMoCgYloecAKWDQoIfMqjRumsFViAP/lrHiSwYAdy4UhPT8aLDp0rKFCKJ2Rg5z//8z89YZ17vHLbJedMObAITBHIVKSWwzOrgbLJo12iffLDYgPNnIEpHOC2wVzZQKf0OsBANVBja0ambFIEWQVHQaFzbZEZuUIcVahapeJwzBbqOec/RFMEPDlXvCLH/FEFYCIRNTS8Yq7Ymm7aUpFaDVGFUlRlgTM+KsKl6gJ22Jdf6xSkHh+qg3SoSxzr7VBfyJpfBZmFIghSR1CAwrW0yEdVaDUNiaZGTSad/AXi6pJTSg2Cm3vgdvLuADvMw9+au9lVNeexsuIc1iI+NNMk5CSgdNb81RY5SwdtlK2kBtDkVbW/fBPW5V4toleQ/+zISXk6aIKP+oKYzbqoXjUGp7hnrrvuOgg+eMbIYCN1VeeifOfun/pp1LdUH4Tvmy+JUSAKRIEoEAWmRIFChMKdvk0GUo7OS3ilcw6oS0WEfYvXC4rqErZwNNnwiqO3FIwD0H7cwhoHTgJtCAx+Ydbe/JWiSJ10mRX7rHT465ipeFc68HV0NhOSgp4mm0udV7sq5XaRU6dZKZ2JQNnRmWGAe7N3vsuxLlqdaR5CV/PhVG1TChlNGBA2BricF6qUDq97ZSROpz7fjNv/38B9V2bg6GgSu3TovCSPW6sT7Lpq6XWj5Skh0ZZ3UNyLAlEgCkSBKBAFWqQADP3nf/5nEV+obc8BWN/1s6RFvo6DKyHRceil+BgFokAUiAJTqYA4ogl/poQK0wq/1TAxJUTgjNV2ziWdSnlG02jzg//+7//eCL5AuPCqgGjTL6NxaMxrbSmJ1lwKszfEnCuUbVaEaROmm9R0ZgMEJnCMufhxPwpEgSgQBaLAIAWwppVGvTmkj8t6lF7nxz1lphkU496uUfnfUhI1xdVCQtzpbbw1Z9a0DMvNTNo1PcK8YMeAuSOjUjP1RoEoEAWiQBSIAlEgCsxegf97Q9fsCwwnp1nY1rVZdWVFmLVgALS2hzVB2xRys7Px6HA8SS1RIApEgSgQBaJAFIgCi6RAS2OiWmto3j4O9oywQtBOsDbKskjNzm0WqZmWYbcCeCpD5y5UxuvFzA1YgNfao0FZQxjSkSuENZPDEH/ZLEGN9btqxwTLD1Evswyaely7ewjEyuxcBjllqJeAyVNboInL1tZUfbunRk/UazaPDNi69ubA2T6aX8KO4lrKuI+W75l14FJtYyEk7BIj5cAsF/f19SSJUSAKRIEoEAWiQBRooQLtJdFGLDQpIAoKAajB+tp7ApV6o4AR/No9qzLD0B/96EeyYb7bbrvtySefNN8UaNr+wPxim2OZ8W33L/uoWfKGAkEeQrV9ht1ubWbrktd24b/LL7/c6D9s9coKKXaIVS+a9C5d++vatQtK2mEBFl900UU8ueGGG/p2LbjEzeo12VwGe3TZm9e7NLjHuMguO5wx6xmAmgl02mmn2S4OlWqaXVdtEVcTol3igH2M+9aSxCgQBaJAFIgCUSAKjKkCbSdR2Gd6qB0T6IsXMSW8c14v4YVxFSKV4j1X4qZCjBLrXa5g0Zse7EMrPnrHHXeILAp2CjfCUCwIBDGf/F5NUaFH+8q6ynKFVO0kDEOl1DwBid4ei2ttz4YjMS5exL7NBmlYWYotvmrfL6UEUJGrXXDr5mDf/FeVAlChWYQNgm17rnae2wVd1BNGQ1v75XKbcZFX/igFmpmVUuHVMb3b4nYUiAJRIApEgSgQBToVaOk8US6KWUI0U0UFPo3O40gk2uwzjAtBJNQDc3AT/yFUo+cgD2giSCeQ0WsPbCBcL9eCqpCUWQegFNEU7ESrgpR4URUCkLURgxPxy9tvv71ejcAZL3gwGQBKGqZXl1e98cRVwVqZRT29Ws3+Gqo2Xi8CKkV006p/cU0Fi0rVji/tBlBrrTAurPz+979/xRVXsIk+vbGDTf5oiPCtuCzngSyzYNRV7c3tGwWiQBSIAlEgCkSBiVGgvTFRvAjywJ/YISwTDjRI3Wxage2QqEFtuCldTLHpEgPxEFB4Uh5j3CCSHVeLQSub85qs6YRNhyqaS8WCArFIsSaMokwBS9lMJBXOxMEOKf7yAUdyEnSygGWVgrlQVdUyw2LzBNhHt/W2MWFOiTI0Uz+x6VlnnVUEbCDe5mS4s0Kz5sIKiDpcheYTc+elIVEgCkSBKBAFokAUaC+J6hsD2ZjSS7rqpfbigvW+V5dq1RHmq8VGQK3ZV1YEUYwT6kG3el1sQWdnZ7skCCpFYLLWHileFrCpsijQuD9k9FE2QIkI8S4WxKZyylDw6i835MSpZUQKPDXOXq825irPXXUCMSUKecrJt3KPfTFaMMq4mKjZBZjVYQ4rU4XR8gdD8+8aBaJAFIgCUSAKTJgC7R2dB5c1KVOMUPjQML31Q+KOoo8VLsWXEFCeIsimY2DfzTffbHYpqsOyXVcrGyOAVcAVX1ZAVArUk5lxMVH8t2zZMhxc/AdbV6xYcffdd8NE9YJX7jkpTu17TxiFNxX1kEMOcdXEADFOmc0HkFgv1a1IZ5VVr4/OIa+FUw5hVPFXJFqAO6CivrUnMQpEgSgQBaJAFIgC7Veg1TFR8mFQI92mXa5cuRKfCTSKIworojTsiPZ87FJZxNE6p2OPPda8UgvtBTKldCGp2KTZmYKO0PbGG28UGVWEwTLlRL121DfFs0KnLGBWUVIL2K1wl806esgrMjqgj/kGPVetWiWnKKnipn7WcL9SmuCo4qBWxJSTPmJumSGs8XqBUmxqNmoCogN0zqUoEAWiQBSIAlFgTBVoO4kKeYogWiEkhFmr48UjwRm+NAuz7xb3FQTFdtb3KGUputinRNNG0WQhnauK40gMKlHosUKSGFQpNZoSYK26eGRnMFJ+7FhUWsP68FHkVbwTMpaFzvsA6Zq0WiuNlLWGyVE7hspW00DFbp2LgPLThFeI7ISThvs5JjSLlZ3ToZbbj+l9FrejQBSIAu1RIKNM7emLeNIqBfxrDP+/o70kWgPW/oIwAUJrfSCdyCUQhKEWJOE8vNjsagQEa+KmFLs1Wahu0T14NeFSaLP4FZgWdKK6e+65h9xoz1XLoRSBpzKAS8FUwUsGlXIoIkQq3VX7Q/GEG8oqglwN5csjUCoCKt5ZA/d1Y4FOJGqXKEQrBWUi0bpUuIxi7XuKO0VehUIVNxG2ls/zHKrCZelqYZafNWe0VXdtnIkCUSAKjJEChp58ew+eWzVGzYmrUWBhFQiJ/j890aeRd38xYqXCOGP0optAzYoi4UOQZ5Mj8cviM+xo1B6GGpcHjpBR2BIC2qbel47x8QYrLYRnjXGIaRMoe9ora/071qzD9NBa1X7uueeefPLJBbtAEGuqix2D/iAYiT722GOMMwVbOfOP//iP5g+Ij9Y4e3mOL7UCldbmTZUov7VW/MTTQp4Mmg5rKF+eSy65xAotJKoivl122WVgGjorWKi9sLddrEWBKBAFpkQB38y+242PeZQ0D5cpaXuaGQVmowDIcRQgzSb/guRpaUwUkAFNLQR81c4aowdk4pEgFYniNl8l4ExMUX7C+ZYBfMAR4TkXPQV8Rvad14uXRBmLESv47BztIUVgWtvRd2kKbZuUYlMOQE8OcKwWHhmvVylIlYhNm/xCp1BYZgjrr0mizdUKiKoa8qpCyLNmkZY/heCawFtXTZPVTN+bpg00AeAF6fsYiQJRIApMlQK+dX3bI1GznjxBPDt6Z1VNlSBpbBToUsDYrwOcNDMJhyBRS0kUgXVSICGAYLFgM4OheM6lmo7ZKZZQqK3mO1PIOk81hTCFLbuM9KY0GQRurTSCj0bnTRU4//zzO2OistX4vmVJTUOasjjbMdPHeTYkxaNAFIgC06mAgIUggi1QTMc3Ajb8+XDTKXtaPUYKmCvov0PsbP7UNPtWt5REe+GsSRlwqWl2b57ZKzJTzu9q0xRPEwn8NRnAhAGj/139Wl+CzH5XyzN5mPQoEAWiQBQYoEAtJzDKZMzKDC7fzwbfJCYyOkC0XJoSBYziwlDDzv4dLAc3PDu0hreURIfW/sWrSAzViL+/vvWsQ8KjTaxbBwPTrtH8xfMklqNAFIgCUYACfvabBGWAXkDUsJX1puZ3GVUzR0u4tDJEqCgwVQqYPeiovYaQKAyt5S7NjpNDUCMkulgim59qHZLAp3713de52MivcLM/6ztxsaqP3SgQBaJAFOingIlStRG1lay//vWvDUSKGsBTeTNC1U+wpE2yAtYnGRwwZcVWQujTzEa7FZlRPcw2h0QXS+1aqt/X+oBLffMnMQpEgSgQBRZKAaEBcVBDVdaA1ppRMaE33nhjoezHThQYLwX8APN7zAIbo7g2FKrxgWE2ISQ6TLVTVxSIAlEgCoxeAYNUNjOx/4ktSjBobXWSBUyj75h4MHQF/C8YIjAs4N/BL7SRzJkOiQ6921NhFIgCUSAKtEABD10jVCbxewznjcot6JC4MBoF/CPgUWMFo5qdEhIdTcen1igQBaJAFBitAv+7cck3r/EbrRupPQpMuQIbT3n70/woEAWiQBSIAlEgCkSBUSkQEh2V8qk3CkSBKBAFokAUiALTrkBIdNrvgLQ/CkSBKBAFokAUiAKjUiAkOirlU28UiAJRIApEgSgQBaZdgZDotN8BaX8UiAJRIApEgSgQBUalQEh0VMqn3igQBaJAFIgCUSAKTLsCIdFpvwPS/igQBaJAFIgCUSAKjEqBkOiolE+9USAKRIEoEAWiQBSYdgVCotN+B6T9USAKRIEoEAWiQBQYlQIh0VEpn3qjQBSIAlEgCkSBKDDtCoREp/0OSPujQBSIAlEgCkSBKDAqBUKio1I+9UaBKBAFokAUiAJRYNoVCIlO+x2Q9keBKBAFokAUiAJRYFQKhERHpXzqjQJRIApEgSgQBaLAtCsQEp32OyDtjwJRIApEgSgQBaLAqBQIiY5K+dQbBaJAFIgCUSAKRIFpVyAkOu13QNofBaJAFIgCUSAKRIFRKRASHZXyqTcKRIEoEAWiQBSIAtOuQEh02u+AtD8KRIEoEAWiQBSIAqNSYNNRVTy43tdff/2NN97YsGHD9ttvv+eee+6yyy5bbLFFFXn//fdfffVVfzfZZJO9997bpW233XawtVyNAlEgCkSBKBAFokAUaKECLSXRl19++d5770Wc+++//0knnbTVVls1JPrOO+/cfffdL7zwgsQzzzzzqKOOCom28MaKS1EgCkSBKBAFokAU+FYF2js6v/HGG0PMTz/9FJX627REoPTZZ5996623Pvroo9///vff2sJkiAJRIApEgSgQBaJAFGinAi2NiRILiW666abr169/6aWXPvnkEylff/21Qfk333wThkrZcccdS1OJTz75pJF6AVQpG220URGqIf7nnnvuyCOP3HLLLd9++23BVCc+4tp3332X2V133dXQv/xsSjnmmGNU6lylZgUcdthhLrWz2+JVFIgCUSAKRIEoEAUmQIH2xkSJCyhRppgo7oShX331lfF6Hz/88MMvv/yyCYgC05///OerVq3q6o/HH3/8X//1XxHn2rVrly9ffvXVV990002ff/456FyxYsVPf/rTW265xdVXXnnl1ltv/dnPfoZcYeidd94pp78T0LtpQhSIAlEgCkSBKBAF2qxAq0mUcMKiDqFNDApGwSIMPeSQQ7rmhqLS3pF6KYr0VV+6yCic7Xs1iVEgCkSBKBAFokAUiAJDUKC9o/PV+G222cYaeQC60047WbQkhGl66NKlSw2gd6HnunXrAKvh9c0331xOw+ss9OJpoykMnYlT5TEbdc2aNarGwQxuvfXWFkg5z3j9EG7KVBEFokAUiAJRIApMiQJtJ9Gdd94ZUxper8XyWBNcWjJv0dIXX3zR2UnAUcpmm21m/qjZn+aDzqcLDdP/z//8DwYVfLVR1JIlS9h0jk3nYzZlo0AUiAJRIApEgSgQBRoFWj06Dzph6B577GFmp+mh/gpJ7r777ihTeldEUzTUVWPupof++te/XrlyJZqcc08zJQIKbdV78803m1dqf9OM5s9ZzxSMAlEgCkSBKBAFokCvAq0mUe7usMMO++yzDy784IMPrEwyRC42uddeeznpaoyc++23nxX0n3322RNPPCGG+t577/U2eJYphuNZU7Ww6DPPPPPiiy+Ky1oyNcviyRYFokAUiAJRIApEgSjwrQq0fXRe7POAAw4wOC7AadGSgXIY2rdVBx544HnnnSeM+vHHH2NHPNq5C2nfIgMSRV7PPfdcGSzJf+CBB2qF04BZpwNM5VIUiAJRIApEgSgQBaJAXwXaS6Kwz2HM3SagwpO2c7JuSZByt91269uSp556Sn6bNJlLClgPPfRQ8Co42pmZhWuuucaeUK+99lrtCXXPPfeoQgC1y6acN954o+F4g/LColDYMimTUPtWncQoEAWiQBSIAlEgCkSBOSjQUhK1ZF5UEoOKieI/YVGL5YU5Db7bjl47RUYN2ddV2expjy8xqL/I0itAkagFRpYxGWeXs1YymWm6evVqHwGr6afsIE5/Uanq5LHonn1G7BX1/PPPq9Glgw8+2C73aJjlOUicIlEgCkSBKBAFokAUiAJ9FWgpiYK/fffdFwWaDyokCQRFJXEhuMSdWvKDH/xAwBKwYkczRP/qr/7KADrErL9WuEvElIbsLaUXT7UJlPfXKyKPQ/SUcWRZcKmUWkRSoa38FirVcqhmOH677bYLhva9gZIYBaJAFIgCUSAKRIE5K9BSEgWgnWuSxDUdnY20u1PnRxHNXgnAJVSVjl8POuig3gydKeBVNkUcg3PmahSIAlEgCkSBKBAFosCCKNBSEl2QtjVGIKZjYW3GWhSIAlEgCkSBKBAFosA8FcjEx3kKmOJRIApEgSgQBaJAFIgCc1QgJDpH4VIsCkSBKBAFokAUiAJRYJ4KhETnKWCKR4EoEAWiQBSIAlEgCsxRgZDoHIVLsSgQBaJAFIgCUSAKRIF5KhASnaeAKR4FokAUiAJRIApEgSgwRwVConMULsWiQBSIAlEgCkSBKBAF5qlASHSeAqZ4FIgCUSAKRIEoEAWiwBwVCInOUbgUiwJRIApEgSgQBaJAFJinAiHReQqY4lEgCkSBKBAFokAUiAJzVCAkOkfhUiwKRIEoEAWiQBSIAlFgngoMm0Q32mijr7855ul3ikeBNivw+2+ONnsY36JAFIgCUSAKtEGBoZIoDN1kk01Com3o+PiwqArkJl9UeWM8CkSBKBAFJkaBoZLopptuutlmm3lIf/HNkcjoxNxGaUiXAhs2bFi/fv2222671VZbRZwoEAWiQBSIAlFgJgWGSqICokh0yy23/Oqrr959993PP/98JreSHgXGVIEal1+7dq07fNddd91uu+3GtCFxOwpEgSgQBaLAEBQYKolqDxJdsmTJxhtvvGLFivfee28ILUwVUWCYCiDRL7/88pVvjgMPPHCPPfYYZu2pKwpEgSgQBaLAeCmw6ZDdRaL777+/mOjzzz+/Zs2aTz/9dJ999jFqj02H7EmqiwILrsAnn3yybt26l19+2ei8gOhuu+229dZbL3gtMRgFokAUiAJRYGIUGDaJgk5RIg/sN99887XXXkOim2+++RZbbCF9YjRNQ6ZTAdFQc0Pd1atXr953332XLl26/fbbu72nU420OgpEgSgQBaLAbBQYDf+B0dNPP93wJR695ZZbak29WaROZuN08kSBtikgzG9Q3g1sYujxxx+/11577bLLLkYA2uZn/IkCUSAKRIEo0CoFRkOiFhRXrEg0tBYwESUY2qo7I858JwVqoRL03HHHHffbbz/RUDf2d7KQzFEgCkSBKBAFplCB0ZAooUVARUYdxxxzjB2dxJNElaawA9LkyVDARGcY6q7OjOfJ6NC0IgpEgSgQBYajwMhItLN59fzOO2mG0+WpZTEUENGvYzGMx2YUiAJRIApEgUlVoBUkmjDSpN5eaVcUiAJRIApEgSgQBQYokL2TBoiTS1EgCkSBKBAFokAUiAKLqEBIdBHFjekoEAWiQBSIAlEgCkSBAQqERAeIk0tRIApEgSgQBaJAFIgCi6hASHQRxY3pKBAFokAUiAJRIApEgQEKhEQHiJNLUSAKRIEoEAWiQBSIAouoQEh0EcWN6SgQBaJAFIgCUSAKRIEBCoREB4iTS1EgCkSBKBAFokAUiAKLqEBIdBHFjekoEAWiQBSIAlEgCkSBAQosGInW7vTe2/n1118PqC+XokAUiAJRIApEgSgQBSZeAUDoXe5eQDj4BUYLRqJbbrmll3Z+8MEHn3/++cSLmwZGgSgQBaJAFIgCUSAKDFDgs88+W79+/aabbgoRB2RbGBIFvDvssMPmm2/+9ttvf/rpp94gn5fIDxA9l6JAFIgCUSAKRIEoMKkKFAd+8skna9euhaHbb7/9gJYuDImKuyJRlW3YsOHDDz/8+OOPQ6IDRM+lKBAFokAUiAJRIApMqgLG5aEgIPzoo4+22Wab7bbbbkBLF4ZEVWBoHvMedNBBr7/++lNPPfXVV18NqDWXokAUiAJRIApEgSgQBSZSARM1V69e/e677y5ZsmTbbbeFiAOauemAa7O/ZHReZmHRI4444uWXXwajoqS77rrrjjvuuNVWW7laGWZvMDmjQBSIAlEgCkSBKBAFxkUBg+FCoUbk33//fXM133zzTQSIRAVEB0PgRgs+jL5ixYo1a9ZYurR06VIh0p122slk1cFOjIvK8TMKRIEoMBsF6ns133uz0Sp5okAUmAwFfO/ZQGndunXPPffcSy+9JBZ52GGHHXfccd/auoUnUSzMDyFZJ6YIcItz+Ub+1p5IhigQBSZDgc6d7AbvXTIZ7U0rokAUiAIUAHu+8TbbbDNBUBhqYFws0mj5t4qz8CSqSuv2LV1644033nnnHXHa7DD6rd2QDFEgCkyMAr79fO9pjnn6jolpVxoSBaJAFBisgPmgRuR33333PffcE4/aUmlw/rq6KCQ6m4qTJwpEgSgwkQoYlnrrrbc0bZ9vjolsYxoVBaJAFFgoBRZmxdJCeRM7USAKRIFxVwCGPvHEE1ohHhASHffejP9RIAostgIh0cVWOPajQBSYFgVqM+dXX3314Ycf1uY99tjj2GOPzeYh09L9aWcUiAJzUiAkOifZUigKRIEo0KMAErWV8gsvvHD//fe7aFc7H02cypLNHqmSEAWiQBT4PwUWbGf7KBoFokAUmHIFvOvYSk3vWf7ym8P+IUbq7fA85bKk+VEgCkSBAQqERAeIk0tRIApEge+gABI1NI9Eq4xtlV977bWQ6HdQMFmjQBSYPgVCotPX52lxFIgCi6OAzZtefPFFAFrm33vvvVdeecWudotTW6xGgSgQBSZBgZDoJPRi2hAFosDIFbBxMvR88MEHve64nPHq44ceekiINHsqj7x34kAUiAKtVSAk2tquiWNRIAqMkwJG4b1bbvXq1f6W37WdEzzNAP04dWR8jQJRYLgKhESHq3dqiwJRYEIVQJxr1661WL6zfT6+/fbbzczRCW16mhUFokAUmLsCIdG5a5eSUSAKRIFGAaHQN998s2sg/osvvjBYj1AjVBSIAlEgCvRVICTaV5YkRoEoEAVmq0BtaG//Ju/5tHlTZzHj8tYwGaavPLO1mHxRIApEgalRICQ6NV2dhkaBKLBoCgBNb/hctWqVIGhnJR9//PHy5cufeeYZGRat8hiOAlEgCoyxAiHRMe68uB4FokAbFBD4tIm9+aCminaNzpsnamj+nXfesbVTF6S2wfP4EAWiQBQYuQIh0ZF3QRyIAlFgvBWwYygMta39TM0QGQWjIdGZ9El6FIgC06zARhkzmubuT9ujQBSYvwIQE4baPXTdunWsmTBaS5R2/+aQsttuu+27775bbrnlpptuOv/qYiEKRIEoMEkKhEQnqTfTligQBUagQNfv+eeee85LPvmx5Juj06GNNtpoBP6lyigQBaJAixXI6HyLOyeuRYEoEAWiQBSIAlFgohXIUNFEd28aFwWiwOIr0BXp9LFSmpPFdyE1RIEoEAXGVYHERMe15+J3FIgCUSAKRIEoEAXGXYGQ6Lj3YPyPAlEgCkSBKBAFosC4KhASHdeei99RIApEgSgQBaJAFBh3BUKi496D8T8KRIEoEAWiQBSIAuOqQEh0XHsufkeBKBAFokAUiAJRYNwVCImOew/G/ygQBaJAFIgCUSAKjKsCIdFx7bn4HQWiQBSIAlEgCkSBcVcgJDruPRj/o0AUiAJRIApEgSgwrgr8f+2d6XNd532YRRIg9o0LFhLcCVLiroUStVuObDmOXLuJkpnYE3fsdiZNZtL+Ff3QfunkQ/vNk6YzbtpUTTO1HMu2RFMSKZESRYr7vgAkQQLEQhL7yj7AKxkxHp0AACAASURBVN/AAAQC5L0X59zz3IGvL87ynt/7vEfEc3/vcjTRuLaccUtAAhKQgAQkIIG4E9BE496Cxi8BCUhAAhKQgATiSkATjWvLGbcEJCABCUhAAhKIOwFNNO4taPwSkIAEJCABCUggrgQ00bi2nHFLQAISkIAEJCCBuBPQROPegsYvAQlIQAISkIAE4kpAE41ryxm3BCQgAQlIQAISiDsBTTTuLWj8EpCABCQgAQlIIK4ENNG4tpxxS0ACEpCABCQggbgT0ETj3oLGLwEJSEACEpCABOJKQBONa8sZtwQkIAEJSEACEog7AU007i1o/BKQgAQkIAEJSCCuBDTRuLaccUtAAhKQgAQkIIG4E9BE496Cxi8BCUhAAhKQgATiSkATjWvLGbcEJCABCUhAAhKIOwFNNO4taPwSkIAEJCABCUggrgQ00bi2nHFLQAISkIAEJCCBuBPQROPegsYvAQlIQAISkIAE4kpAE41ryxm3BCQgAQlIQAISiDsBTTTuLWj8EpCABCQgAQlIIK4ENNG4tpxxS0ACEpCABCQggbgT0ETj3oLGLwEJSEACEpCABOJKQBONa8sZtwQkIAEJSEACEog7AU007i1o/BKQgAQkIAEJSCCuBDTRuLaccUtAAhKQgAQkIIG4E9BE496Cxi8BCUhAAhKQgATiSkATjWvLGbcEJCABCUhAAhKIOwFNNO4taPwSkIAEJCABCUggrgQ00bi2nHFLQAISkIAEJCCBuBPQROPegsYvAQlIQAISkIAE4kpAE41ryxm3BCQgAQlIQAISiDsBTTTuLWj8EpCABCQgAQlIIK4ENNG4tpxxS0ACEpCABCQggbgT0ETj3oLGLwEJSEACEpCABOJKQBONa8sZtwQkIAEJSEACEog7AU007i1o/BKQgAQkIAEJSCCuBDTRuLaccUtAAhKQgAQkIIG4E9BE496Cxi8BCUhAAhKQgATiSkATjWvLGbcEJCABCUhAAhKIOwFNNO4taPwSkIAEJCABCUggrgQ00bi2nHFLQAISkIAEJCCBuBPQROPegsYvAQlIQAISkIAE4kpAE41ryxm3BCQgAQlIQAISiDuBvLhXwPglIAEJzC+B4eHhgYGBVAx9fX39/f382tvb29PTE7YvWLCgoKBg0aJF8xuqV5eABCQQNQKaaNRaxHgkIIGYEcA7b926NTo6GuJubW3t6Ojg80T1zMvLq6mpKSkpiVndDFcCEpBAhgloohkGbPESkECuEyDfiWh++OGH58+fp65dXV2kRfmAdwb13Lp164svvrhwoaOhcv1WsH4SkMDcCWiic2fmGRKQgAQmEKDPvbS0tKmpaf/+/XTH379/P7UT+0RGq6qqeLdr3rtGAhKQwFQCfkefysQtEpCABOZAYPHixZWVlZvHXyRHJ55ZWFi4ZcuWhoaGioqKSbvmcAEPlYAEJJC7BDTR3G1bayYBCWSFAIlPLHPZsmXV1dWTEp9sr62tXbp0KR/snc9Ka3gRCUggZgQ00Zg1mOFKQALRJEAXPDI6STcRUPSUjGk0YzYqCUhAAvNOQBOd9yYwAAlIIBcIYJwrV66clBPNz89nIznRXKihdZCABCSQAQKaaAagWqQEJJA8AowERTo3bNjAh1B7sqTr169nY3l5efJ4WGMJSEACsyKgic4KkwdJQAISmJkAs+MZErp9+/bly5eHI/l127ZtLCNaXFw887nulYAEJJBYAppoYpveiktAAmkmwCR6NDTlnSztRL88HfRpvozFSUACEsghAppoDjWmVZGABOaVAGs21dfXp/ri6aZfsWIFejqvQXlxCUhAApEm4Mr2kW4eg5OABGJEgGzo2rVrmSnPU5cIm4To6tWr0dMYVcFQJSABCWSZgCaaZeBeTgISyFkCpD9ZyGnTpk08hp5KMntpyZIlLmifs+1txSQggXQQ0ETTQdEyJCABCTz2GEs4kRZlqCipUHhgpc5V8r6QgAQkMDMBTXRmPu6VgAQkMDcCJEELCgo4x2zo3MB5tAQkkEgCmmgimz3BlR4Zfw0PDyeYgVXPLAF65B9//HGuwYyl3t7ezF7M0hNMgGUZeKbXpIcpJJiHVY8rgQX379+Pa+zGLYFZExgaGurr6+vq6hocHERDkdFZn+qBEpgbgXv37vX09HAOqziVlZXN7WSPlsCsCeCgIQHPbcbEONcLmzU5D4wWAXOi0WoPo8kQARy0qanp2LFjKMLo6Cidp2F2c4YuZ7FJJsDXe+4xCJCv8jZL8p2Q0bpzjw0MDCCjrBq2a9cuHuXFM70yekULl0CGCJgTzRBYi40KAbpH29vbr169SqaKtAEOygRnEgkqQlRayDgkIIG5E8BE6dtBRnn19/czJmTNmjW8FxUVzb0wz5DAfBIwJzqf9L12RgmQmuJ19+7dCxcutLW18Q/05s2b+Zfa6cwZxW7hEpBA1gh0d3ffvn37iy++aG5uZtwRX7P5sk0yPmsBeCEJPDoBTfTRGVpCdAmQLeCf6RMnTjz77LMNDQ2MpnIoVXRby8gkIIE5EuALdl1dHSOST4+/WEEsjBmdYzEeLoH5JOA3p/mk77UzSoDeKxYYv3PnTnV1Nf9A8+QbEgZmCzLK3MIlIIFsEmCcKElQRojyrxwdPoxEam1tzWYAXksCj05AE310hpYQUQKY6PXr1+m9Ykmd8Kgbx4ZGtKkMSwISeFgC/LPGwHceo8AzvfjiffPmzYctyfMkMD8ENNH54e5Vs0AgDBJl/ab6+nrHhmYBuJeQgATmiwAd9HTTs1YdI+PnKwavK4GHI+A40Yfj5lnxIMDqoSQM+Dfap93Eo8GMUgISeCgCjIDn+zaz6fnu/VAFeJIE5o2AOdF5Q++Fs0AgPLiBoVQOD80CbS8hAQnMF4HUw5Z8Ws18NYHXfWgCmuhDo/NECUhAAhKQgAQkIIFHImDv/CPh82QJSCDuBOjQZGhdZ2dnR0cHz0EInZs8BIFBHUxJZq6bT+yMexMbvwQkEGUCmmiUW8fYJCCBzBKgK5P1wHkE1/Hjx1kenHnHPIuLS7ImDk+s2b59+5NPPomSssWFFzLbEpYuAQkklYAmmtSWt94SkMBjj7H+4pUrV9577z2Wv2Hq8aZNm1h0FjBkSdmyd+9eJr0x3W3FihVhu8wkIAEJSCC9BDTR9PK0NAlIIE4EMFGeTNPU1FRRUbFjx46ampqSkhIqwDMReEgs711dXXTco6EsTIueMvuNNCpL1bKcOB33yCsPkiWNyuo5dOuznYkjHMDx7KJbn8+Uw95wIiWTW2XpR/r9y8vLuS4BpKaYsIvnL1AsWViKZS9bKJAXQswVly5dyt4QYZwoG6sEJCCBryagiX41G/dIQAK5ToCHwZ49exZl3Llz5+uvv475hV749evXr1u3jmVxsEb88uLFi59++unRo0exQHrz8UKe2vXiiy+++eabx44d43GyN27cQFjZztMXeUcZv/vd7z7xxBMc/Ld/+7c8YQGPpBxwkmF99dVXd+/ezd4PPvjgwIEDYWQq18VWGQywZ8+ejRs3Hjly5Kc//SkbWZ2HcxnDyhVfeuml5557jthyvVmsnwQkkCACmmiCGtuqSkACkwj09PSQleTZB+Qacb7UXqQQB0UKsUCyoTgo7zzD5qmnniKXyWfElNGlaCinDwwMkBbFETmAExlvinqeOXOGPCv6yF62f/3rXyf3idEePHgQZz137hxjUvFXsrCciL+yEfuknMbGxlWrVlEsH77//e9v3rwZH6XMlpYWBrM2NDRoot7GEpBALhHQRHOpNa2LBCQwNwLkI+k6Z6b81KdwsSU4H8ZJRzmHMVqUPnfynfgraog70vPe398fpj1t2bLllVde4fKoJylMTsEaMVG2oKTIKIehsHTc84HOd86lBErDg0m1IqPnz5+n5ObmZrKq4WE527Zto0xm93MW7vv5558zWmBuNfRoCUhAAtEmoIlGu32MTgISyCQBhmDSXT7zgw+wVTKUqCEG+bOf/YysJ/3sKCPuiHFyehjNmQoTrWSgJ0KJpIaNpELffvtthJKUJ6djn5zFRkpubW1lFwGwl0tQMlo89TE5ZEnJs37yyScclkkeli0BCUgg2wQ00WwT93oSkEB0CKB99LajgJjlpKiwTHrY2ctEJdKcjCVduXLlRG2lNx8ZZVcYXRoGmFIIWolu8iE1FYkjcVMkkoN5Z1Y+B6CbXB1tZZZSSoU5hQQq2/mQOp2SuTqRRIebkUhAAhJIFwFNNF0kLUcCEogfAQSRDnTUkBQm6kkneJBI+scZprlv3z7mLSGLmCJHMqaTg8PcIzrWmY2EYoYkZZDRUH+288JZQ1FsxDVZH4p8JytGMTaUC3FieLGLbn0+cwrKyzFIJ79yOsMDUobKXi5EgSnfjR9rI5aABCQwHQFNdDoqbpOABJJBgNWUWMGe6fM8XYkpSgzZDKlHusJPnjzJFCLSk8xkZxc8MMVnn30WHyWB+s477+CvfJ7aXc5eXpSTGnvKYUyWJ8eJxV66dAmtRDHZSNc8youJornM4mf5UpKmyChlEhijVEMJnMgMJ3rzcWIkNRktYy0lIIGkENBEk9LS1lMCEphKAMVkVtC1a9eQQqYEsbYoaVHyjqgkbkpCFB1EVZknRIqUSUgff/wx1og+kkNluCcrMV2+fJnpR2QrmU7E9HbOxWsRSnbV1tZyRbZw4rvvvotQcgC7mPmE8lIs4z4Zgfqb3/wG3+WKTI0iHnKilIZxYquHDh0iNsw1zFXCiem7n1oLt0hAAhKILwFNNL5tZ+QSkMCjEiD1yFhPLJC58CwLivYxfBN3JPvIqFBWcWK5e+wQNcQ+yZIePnw4LAvKiatXr961axfd9BgkB7CXEkKPPA7K6ktkPfFOTsdif/WrX3EiOVFypWvXrkV/OQANxTU/+ugjpJPueF6IZup5TlyR1aNOnTpFipQSmLZP9pTVph61zp4vAQlIIEoENNEotYaxSEACWSdA9hEvxA5Z2R5ZDPOEUEPylKQ/eZElJTlKBvTll19OTSTirElTiFgWlELCgFGMk9QmVUFYf/jDH6Ym0bMX3WQXxXKJ559/fuvWrcF9w4kYMMUix5xLISzhhO9yUVyZKzJKdepqU1kH5gUlIAEJpJOAJppOmpYlAQnEjgBZTKYN8Zoh8qCkUw+g3zxsRBbpcOdBTeHXMK8IleSFxU49MWzBLMOCo9MeQGD04JMHZW9KkTXRaVm5UQISiC8BTTS+bWfkEpDA/BMgVYlukkDFZWfQyrkGSrHoLylVcrFzPdfjJSABCcSIgCYao8YyVAlIIFoE6GGnZ58OdKY3Ma40jcHxAHoGhlJyGsu0KAlIQAIRJKCJRrBRDEkCEogHAUyUCUlhjaf0RsxsJ17pLdPSJCABCUSQwMIIxmRIEpCABCQgAQlIQAJJIKCJJqGVraMEJCABCUhAAhKIIgFNNIqtYkwSkIAEJCABCUggCQQ00SS0snWUgAQkIAEJSEACUSSgiUaxVYxJAhKQgAQkIAEJJIGAJpqEVraOEpCABCQgAQlIIIoENNEotooxSUACEpCABCQggSQQ0EST0MrWUQISkIAEJCABCUSRgCYaxVYxJglIQAISkIAEJJAEAppoElrZOkpAAhKQgAQkIIEoEtBEo9gqxiQBCUhAAhKQgASSQEATTUIrW0cJSEACEpCABCQQRQKaaBRbxZgkIAEJSEACEpBAEghookloZesoAQlIQAISkIAEokhAE41iqxiTBCQgAQlIQAISSAIBTTQJrWwdJSABCUhAAhKQQBQJaKJRbBVjkoAEJCABCUhAAkkgoIkmoZWtowQkIAEJSEACEogiAU00iq1iTBKQgAQkIAEJSCAJBDTRJLSydZSABCQgAQlIQAJRJKCJRrFVjEkCEpCABCQgAQkkgYAmmoRWto4SkIAEJCABCUggigQ00Si2ijFJQAISkIAEJCCBJBDQRJPQytZRAhKQgAQkIAEJRJGAJhrFVjEmCUhAAhKQgAQkkAQCmmgSWtk6SkACEpCABCQggSgS0ESj2CrGJAEJSEACEpCABJJAQBNNQitbRwlIQAISkIAEJBBFAnlRDMqYJCABCUhAAmkicP/+fUrifXR0/G107H9jH8d/6x8YGBkZ5YCCgsV5eXkLFjy2YMHChQt44//4MPa/8EpTOBYjAQn8DgFN1BtCAhKQgARymUDQz/7+gZ7evu7unrGf3h4+s6W7q+fw0WOtre245tNPbq9fWZeXn1dcVFRSXFRcXFRWWlpWVlJcXIykLs7Pz2VG1k0C80dAE50/9l5ZAhKQgATSRyDkPvHLe11dp86cb73dHsoO2c+BgcH+/v7e3j4UFAnlMLb09fWdPnvhzp07HNnV3V1TvWzRokWFBQWFhfwUjilpSREf8vPJln7555IPG9evqa2prqos5zPHp68GliSBJBLQRJPY6tZZAhKQQM4QCCnP4eGRoeEhPnd03LnaeO0n/+3vPj96fE51PHvuAj8PPKWoqOit7337hT27NzWsJ29KspRTyJgGVSW3+sASPEACEphIQBP1fpCABCQggRgTGBwcbGy6fuizLz4+dJgRoUNDQ729vZevXstQlbjcvo8Onjh1rrS0hIQoo0i50B//yzef3/NMweJ8TTRD2C02hwloojncuFZNAhKQQM4SoG+9vaOjubnl2o2b167fOHzk+KeHj06sbVlZ2ar6FWWlJWQxyVyOz0OaM42xuU6PPcYEJwS3r6+/+WZL07XrXI6fiWWVl5fduXuPqzy+acPaNasWLvzSUOd8PU+QQPIIaKLJa3NrLAEJSCD+BLp7eo98cfKdX7z/4f5PwkjQSXVauaL2D7/7+w0b162sq62qrMjPzyeDOdd6BxNlVOm9e91o6Du/eA8TnVrI/3vnlz/7+a/Y/ld/8a9/+P0/YmjpY4/NXXunlusWCSSAgCaagEa2ihKQgARyhcDYAkyj9//pl++/v+9AW1s7CVF+D5XD/773nW9t3rS+qLCILRUVZWtX15eVlTKak7nvYznRuSdFg4lS8qKFi5hB/4f/4lu7dmyl8DA49UbzrZOnzx345NORkZEwX+qXv95HpvZrL7/QsHFtTfXyXKFuPSSQQQKaaAbhWrQEJCABCaSXAJ3gZ85e/OV7H7z/m48oubKiomHj+qrKSnrGMc7f/+Zr27ZsKikpSddFQ2KTGfJ5RYuKigqXLqnasX0LhY8L8Whj0426uhrGhjIZ/86du5evNJ49f+F2ezvTp4aHhxgVUFxUmJp0n66QLEcCOUZAE82xBrU6EpCABHKZwOXLjf/hP/719eaboZKbGjZ88/deef65p5csqWQFeuSPhZWyUH/sk+lKa1avXFFX842vv9ze0Xnos6N//V9+cvfu3Y6Ozn/82bt46vJlS9esri8t9e9sFhrES8SYgP+FxLjxDF0CEpBAogicOHn2wMHDrW3tTGBftmzpG69/7ald25gkhA6SsMwmijBHfmyV0bw8Lk3v/57dT+b9+z//+S/eO/TZEcaVfvb5MZ7P9MMfvEWmlmEB2YzNa0kgXgQ00Xi1l9FKQAISSC6B46fOfnr4CzQUBEuqKumLf2LzxpKS4nkngoyuX7eGHxKil682dXbeuXK1ken23/3ON+c9NgOQQMQJ+EUt4g1keBKQgAQk8CWB02fPf370WDBRkpHIaBQ0dGLzPPv0ru/+wRsVFeVjG798Xr2T6L2BJTATAU10Jjruk4AEJCCBaBJoaW377//jbRaZZzmn4ZGReQ/y7r2uz48c//DAocNHjvFM0bF47jPFfuzHlwQkMAMBe+dngOMuCUhAAhKIKIH29vb/+b//sbevr6S4qKyshOnzVVUVTHLP2qDMsGzT0NAwE+e7u7uvNt3Y//GnHx88fO78xYgiMywJRJKAJhrJZjEoCUhAAhKYBYGPDnx65uwFprF/7eXn/+SP3sRHszl1iWVEb7e1HTtx5sP9B0+cPtd1r/teV9csovYQCUjgnwloot4NEpCABCQQVwKd4y+iJxU6PDzMs+B5lhIr2O/ctmX16vqK8tLxR8OnYRxayIAOjj3zs6+9vfPa9eZLV5pYqon1TXnq/akz527ebCGMtWtXV1VUnD1/kcPiytS4JZBdAppodnl7NQlIQAISSAcBZizxZHkmBSGgPT09p8+c4ycUjHr+2Z++9cpLz9WvrM3PXzxphdHFixePP3IpvMbnFY0N6fzyf3y4Pzr29NDR+6ODiOfQUCgzmGhPT19bR8e585cPHvr8/X1jS+uHV0FBQXl5ORL83DNPrqyrY7lTTTQdjWwZiSCgiSaima2kBCQggRwjwJry//bf/FlJcfGVxqa//z/v3GhuTlWQVOWv9370+dHjhYUFPOQzrP2Z2rtj2xNP7trG6NKCAtRxcX4eSdNFzCwaGRmlt53/9fb3M+WIny+Onzp/4cpvTxyTVQ4YHEJ8e0mFTuT51K7tzz6za+sTm2uqlzGVqrCgIMdoWx0JZI6AJpo5tpacIwTIhZAXIelCkmNgYCCkRnKkblbjtwTIopFj4ymRPKSH/NYkd5FTBAmwftPO7VuWL+c5RitJXt5qvT06MsoEdvrNL1y81HzzJj/Tht3ReYeDx1ejzx9bmH68+x4THR25P4LDjoz0Dw6yND0vcp9N165PW0hlZeXO7VuXLq0qLS3Nz88jku1bH9+wbg2FDQwMZuc5T9MG5kYJxI6AJhq7JjPg7BEY66K7f5++PybGNjc33759+86dOyRFsheBV8oWgfEn5RStWLGiurq6qqqKX4OMqqTZaoGHvE5ZacnmTRv44T9V1hm9eOnqu7/+4Nr1G6niwn/FqXf++7146TI/s79euBl+25cfOvMfW79u9bff+PquHVtWr6onhtR94r8PswfrkRIIBDRR7wQJfCUBkiLY5+XLl9va2tCU4uLiurq61B+krzzNHTEkwPcNXo2NjZcuXWIc4ZYtW1auXImCxLAqyQ2Z9qqvX/Gdb7++Y/sTYxTG+i/us9rovXtd5EE7Ou/eaL517Pip3t7e2TMi9/nCc0/Xr6yrqqyoqKwgkxruivLy0rqaalawLyrM6lNGZx+5R0ogLgT8dzYuLWWc2SZAXzwaevHixXv37jH9lukIS5YsYYYEn7MditfLPAE0lC8efM1gIjYt3tTUhMbU19enkqOZD8ErPBIB2o7/NivKy/jZ1LCeskIeFBPt6urq7LzbcWfMRGtrln+57PzsrlZVWb7n2adW1tWipJUV5YWFixlbOrtTPUoCEpgVAU10Vpg8KIEEOjo6rl69evLkyd27d2/fvr2wsJDBZPbV5vCdgLg0NDRgorT7mTNnbt26tXz5ctOisW5x/oOl65yfutqa8dnx99/63h+ESfKzrVeY8TTeFTLbUzxOAhKYCwFNdC60PDZJBNAROuXR0DVr1qChpFv8U5Tb7R/alwkoa9euZWQwY4LPnTu3atUqRo7mdsVztXYT/4NNfbZLI1eb23rFl4AmGt+2M/JMEaCjlsny5ESZAEGSjH55E2OZYh29cpk4zwsBJUXKEGHEVBONXisZkQQkkDsE0vDkidyBYU0kME6A8YKtra30xVdUVDBLyWFhCbwvmERfW1tLBz1jRhNYfassAQlIIGsEzIlmDbUXig0BUqEkRJlAzeqSdsrHptnSGiitzzeQsXXOx1/jowQdJphWxBYmAQlIYJyAOVFvBAlMJoB/MEwQEcFE0/LE6skX8PfIE6DdwwQ1+ugx0cjHa4ASkIAE4kpAE41ryxl3pgmYBss0YcuXgAQkIAEJ2DvvPSCB6QnE3UTJ5LW3tzMBnJGOPKqUIQds2bx5M0sBTF9ht/4ugbjfALanBCQggVgQ0ERj0UwGmSwCTN7HIHlPVZs+Yn6lv5hHPTFmgMndMxMZGBhgNe/z589fv34dH7179y7TsDiFlfk10ZnRuVcCEpCABLJJQBPNJm2vJYFZEUBD/+Ef/qGlpSWMUg0ayq+sKMQa+y+++OKGDRtmLggBPXTo0LFjxxjwumzZMuSVpYjQUB4TM/OJ7pWABCQgAQlkk4Ammk3aXksCsyLAaqY3b94kl7l06VIWtsQjSYjSvc7jf44cOfL4448HE+VhpBxD7pMpVqx4yppTPI8U10RkWZb/1KlTJFApIQhoVVUVyxLx0KCpEXA5nrfO000RX94RX07kqeucwsGUxnXJqpJn5Vd2IbUUFcqhxx/r5QByrqx4xdXr6upY/Iizxh6OWFHB1TmSVbGam5vDKfR6ExUx49ZsYblWVpJnrnrQbmpEvRhOwC4KpPr499SYI7gFblQKmMx1cwHaWTZQWJogzA+b5SkeJgEJ5BgBTTTHGtTq5A4BHG7dunWvvvoqa1tiosgfac7Dhw+T5gzGw7rr6Cbexq+YHAds2bKFDzdu3MAs2R7ORS55RhSSir/ikVMBoZhffPEFsshhLF9FaVz6pZdeQgQpDYM8e/YsuhnsELkkL4s+MkIAjSAYYiASRqOingSMN3M8W9avX89zAfBICsSM9+/fT2kh8ieeeIIwOJESqB0XInFLgdh2eMIqPoqwosKsorV69WoCmxr2vG9BPYmBKlApXmBEQ9lClTXRWbYONza3EK2MvvMeXpzrmlmzBOhhEsgBAppoDjSiVchZAvgNgojf8Ac7fEDOMDYylDwYHbdramrauHEjf8V7e3sPHDjA40mROVKSHM94UI45efIkf92RSDTxueee27p1K1nGSbw4+Nq1a5yFy+KROCViimZx1lNPPYVWfvLJJwgo9klRHIk6IKx79uzhfd++ffxKTguVxFbDUvAcQ06Uq7CRFClRXbp0iUGrO3bsIA+6d+9ePpMHrampCenbn/zkJ9/61rfI9X722WdcjppyVrBSarpz586vfe1rEWzjsMAT0kzA2D/pahrirbfeiksSNwpIocdtHL78cPvxIl8erDQK4RmDBCSQBQKaaBYgewkJtSV1tQAAHTZJREFUPAwBJAyBw/MwGxSQHCfvJBr5lY0YG3/FyXEyHZ6cIlKICOJ8Fy9epL8eiSRXx3ZeOCjmx8H4Jb3zU00Uo8I+eadHHnfkQhSFWqG8nEt6lb1PPvkklkCZaDFXoSjyrxgYOVp2kQpFkUm+soULcRhuio+SE0Uy2MIphIRfUhRZT9Kc1ILMKNdClz/88EPyrFydYqk1F0WvcWuOpEwq+zD4MnAOiHgxDoHYqAiVJWGMTAMfw6YiIJo4zywDIeRakSSSudMYiwI37j1e3KKkyUnhc4eQm+cmNMGca61ufSTwuwQ0Ue8ICUSUAKKDVmKf6CYpSVQPk8PhyE1idVeuXGE7He67d+/mb3YYXonY4X/IH/aGj77xxhtoYn19/fvvv0/P/oULF/g19CZjVFSbPtAwOpON5KKeffZZPAAtYNwn3ev4Kx6AY3F1OuvZhYHRUU7yFevCEQkDjfjBD37w8ssvowvIBOrMAahkGNJKVJgrnzkYJ0ZM+RB8+umnnyZHS8CI3dtvv03AFH7u3DkshCDZS/zUFMkjsHlsoWCf8CGGlIhTa/hg4R999NHE2MjyhuMD3nkMOy6XDrj4tsOtHmImK0+6nQQ5SX0S57gpd05YUYt3wcalZY1TArMnoInOnpVHSiCrBEiw0ZnOexh3iNIhhe+99x5B8LeZnBxWh+qhnlgguSUMkm5NrJFf8UuMkKlFQeMogVOwvdB3/84775DJ4zD2kowkozlxykg4F+viYOyQd5z4b/7mbygQ10QQSXCGYXy8U0hqSB85ThKuiCbqifUSMLlVBoMiGZRGNjeMUqV88ri8ggRPZEr5bER/eUdBwshRIs8q99+9GJEDASEOXfCMdqD6IVNLNScFxsEhY6owzbLJwuJiEw9my4kTJ0iHo6Q0PXcU9xU3Azczom/KeZZgPUwCMSKgicaosQw1WQTomiQDiinSU4nikIDE7cgeMTaUP8x8DroT0nU4KElTXvzBDv3FGORY3/y4xoXZ3ORKw8FTOYacExLJWZQcfqV8jk9JFRsph2C4CsWSsCQ1yEasMSWmQS45gNQm72graU7StxyfMlGuzvEhccs7n9HoYBgEMFFPQxhTo83CllD3kNAlfsSIdzK+iDWV+qoAMFS+GOBS0Zxi9VVhz+N2tJ57YGIAYWw03h82knvmKxY3PPlRvph1d92bx2i9tAQkkAkCmmgmqFqmBNJDADMjD8QASorDjRhDyfRzZBHX4QN/nunv/sY3voHzIXN0ptMtzvEMuySNR8Yu5Z3BQUOulCTrj370o+CXwSNJr3IkCkiZYQQkBhZykxgVGwngxz/+MSWHWlEap7OdPno+cCRxsosA0DV+pXsdh960aROpROwNOaOzFRNNZTfJkqKqHEMhnBiWiOJEDghiSjykezmMErj6vHTQU004Y0JkdhmVS9VQoq9S+UAGkkePHuUrBMqenjsg10vhGwj38wy1RElDDp7Oeu6T262s/MVICZ9TPQMzd0kgZgQ00Zg1mOEmigB/pEnC4UAIH6k4fAg9oqsdm0SSSEkif3RfYqJkTBm2SNc8boo+cgwOx7n8pefX06dP8+ecAaMcgPDxmoQRScWi6HpmKCoXQgFxKdyRkaMYIVf5/PPPMULEkRECHIkvvvDCC5RMipTCiYoPhMcMHjyM1CCDSkliYcNoHJ5KwPwaRBOZw015EQ/vqAbzk3BNSqMuVIQC6ZenECrOQNKQcM1+uxM2IRE2HJi/T5ysDMA7lYItWdKpU6n4JvDMM8+g7MSf/YDjeEXalwUTpo2ce5J+eb6ucC9xd4WZTGcuXj9x5tK0x7tRAhKIKQFNNKYNZ9i5TAD3wvlITKJlDLgMKoYgooBkhtA19AjXREbJ0uF/jKgLc5CRPD7wN5sjsSJUlWMYnRmGkCKpqbzmRHwhMxpmQXE8nft8RgK2bduGI6IClEMYuCx6iopxPOKI43IhlnnieOa84wpcBSVFi7kiDsfwUxQWocQ4uS4Z3HBRTqdqRBhm6JOF5alRVIpaMBSB3vwwoZ5jED6uMi8mGphQX0Y7kNDFSmFCPKg2HIAAAaSc2gE8JJKpHarNHDLqO+26rbl8yz5s3Ug5Y6KpTDNfY7hvwYjKc4eTXOcOJH3OzcOvfIOqqORpCwse9mqeJwEJRJGAJhrFVjGmhBMY+4tbUYHlkH4jG4oVYUKIGrN8+KuMGJFixPnwJBSQtCK6xmdkbteuXeTkOJg/25xIzzgGyZFoE1r5yiuvUOxXsQ12SKoPLSD9STaUUxBiVmuihFAUuyiBie1Mlsc18UtyqL/4xS/opmcAK7vokWe0ADJBDDgE2U0CIKeIz6WuS+2wW1SDGf3hWm+++SZXJGbWDcXhDh48SFKWw/ASYqDMr4o5m9vRo1BlaMCKpwZAnlqTKAUOnfJhwEM2Q8qBa3ED8OUHnqEu3CqsqMB3GO5z7hmAc2NzL/Galy8kOUDYKkgg+gQ00ei3kREmjgBOxqpJofM3mCh/hpFCZJR5QnheGF6JoiF/DJ7jzzl/qtmFGoZsHH/FyVYifKTr2EuByCgn0uM5LU2uwl5Skugv1+JCqAAewME4YkhwYgwcRvnsosBQTuiPJkdLahBXC1fhoiRKeZFMDanTlAGHXCOJQ4wZsUZBQmyIKVWgBDayhQQkR3JdkmFkW6eNOcsbw6iGABCkNAGiDApCJUWKnZMrJdTQNFmOLb6XAxdNzBcbjJMbGJ5klLmpYBvGciig8W1cI5fALAlM/2dplid7mAQkkAkC/A3mcUQPLJnMKK9pD+MPOS9yS9PunbQRv+SFB6C2mEGYbZNyzbEJ+VVVJDinLQp9JEc7aRdpQlKhdNajaBRLkLhFOAaTQ3OxjVBBxDfkw1LCgYvwmvZa0dmIlWLkvEKuFwvnawPaTV2CP0Un1IhHEsYzcIPR6Cgp957qGfEmMzwJpJ2AJpp2pBYogfgRCD3LaCX+GlKhU2c1zb5WjPX84IMPkDOSsuQ+sdiUiSK4+DEyGkojFRqSiLH2D/yJpC9SBUaq8yjoZg85N47kxmAde2680AufG5WyFhKQwJwIaKJzwuXBEshBAqgn3aMoFPlL1PCrevBnX3NG++FkJAhJGYbO1lSZzJrimUwYaigtN6RtYsf97Cl5JAS4MfjyIwoJSCDJBDTRJLe+dZfAGAF6mZkqlEYWTDPiNW2BjBDlNe0uN0pAAhKQQAIJTF5WMIEIrLIEJCABCUhAAhKQwLwQ0ETnBbsXlYAEJCABCUhAAhLwmWneAxKQgAQkIAEJSEAC80TAnOg8gfeyESbABBQm7rAQZlhBM8KRGloGCTDpikXsuUBuTKvKICmLloAEJPAIBDTRR4DnqTlKgAVlWFyGZ77zgM3UcwhztK5Wa3oCLBHKDcDMbp/uMz0gt0pAAhJIEwFNNE0gLSaHCISHOuIiPGc8LLSZQ5WzKrMiwGOieJEaD2utx3q501lV2IMkIAEJzBMBTXSewHvZCBMgE8Yq5ay+TucsD0DHRyMcrKFlhACPkuex8jx6dPny5Rm5gIVKQAISkMA4AdcT9UaQwGQCYaFynlGJiTY2NoYOetbfxlDNjU2GlUO/k/9mcDDPkee7R0tLC+2+Zs2a1NOhcqiiVkUCEpBAhAhoohFqDEOJFIHwEPb333+fp1YydWnLli1kSTXRSLVR2oPp6+u7evXqoUOHENC1a9fW1NSEZ5+m/UIWKAEJSEACgYAm6p0ggekJkAFFRF555ZW2trbbt2/v27ePySvOX5keVvy3kgHlRRacjDhPK62rq6P1eQKq3z3i37bWQAISiDQBTTTSzWNw80gAI+E57KRCSZLxors2aAohaSfz2C4ZunQwUb5+LFu2jOeRMjy0tLQ0Q9eyWAlIQAISSBHQRL0ZJPAAAvX19WHM6NDQEDLqbPoH8Irnbr54kPDmHRllvjyf41kPo5aABCQQMwKaaMwazHCzSSDkPvESXlwXDXV50Wzyz+a1aGs0lHcT3tnE7rUkIAEJaKLeAxKYLYEwTnS2R3ucBCQgAQlIQAIPIuB6og8i5H4JSEACEpCABCQggcwQ0EQzw9VSJSABCUhAAhKQgAQeREATfRAh90tAAhKQgAQkIAEJZIaAJpoZrpYqAQlIQAISkIAEJPAgAprogwi5XwISkIAEJDA7Ar19ffe6ullnY3aHe5QEJPCYJupNIAEJSEAC8SBQWFBQVFQUVtoaHhnB+fr6+yMSOisNE9Lt2x3XbjQPDg2PRbXgMRYGY3GwiERoGBKIJgFNNJrtYlQSkIAEJDCZwLffeO1P//h7JSXF7Lhx4+Z/+s//9Ze/3jf5oHn6vX9goLn51j/9cu/f/f0/dnbemacovKwE4kfA9UTj12ZGLAEJSCCZBDY1bOjrGzh97vz5C5c7OjqPHD1eWVFeUFCwdk19TfXyqqpKsGQ5Azk8PDI4OHjqzPlLVxo7Ojv3f/zp+QuXCKNh44YXn3+msrIimS1lrSUwewKa6OxZeaQEJCABCcwngbLSkvXrVn/z917F/8g70iG+d9/+o8dO/skffefVl54vLy8juLHHZS34Zx1N+0OzUs/75QOv/v7+js47P/1f//fdX+1NoeF5Xa9//aW/+osfZ1mL57NtvLYEHpaAJvqw5DxPAhKQgASyToAs44t7nmHAaF1N9Qf7D967d6+np/e9vfuPnzhTUVFOOJsb1r/2yvPV1cvLy0p5LlraA8Q+u7p7WlpaL125dvzEqevNLUNDg2fPj+VBw2vFiro/+9M/JEg1NO3wLTAnCWiiOdmsVkoCEpBAbhIoLipcs7o+Ly+P/OiivEWNjddvt7Vfu37j0uUrocJXrjYNDw/X1tZUBBP9bX60pnrZ8mVLFy/Oz+fkvLyFi5hK9OUrRer+fT7eHx0dHRkZHRkdHcIxBwcHBgbbOzrbO74c+sneru7umzdbLl5uJB1761ZLOL2srKxhw9ri4mKytr//zddqa6pzswGslQTSTUATTTdRy5OABCQggQwTqKutXr5syQvPP/P5kRN7Pzjw3m/2t7W1hWteuHj5auO14JgTo/jWN1977ZUXli1dQq60tLSkoCBIKUI6ZqQ4aOhtRzRRz4HBwb6+/jt377Z1dN6+3bb/488+Pnh4Ymnjtjr2Sm1cXb/yL//8X21Yu4asLYVnGIDFSyB3CGiiudOW1kQCEpBAQgigj/njr8c3b0Arn9y1ra2t41bL7b37Dtxobh4YGJjK4fCRY7dutRYWFn5poHljDhrSouHg8XzomI+SDyUnSmKVhGh//wBK2nyrpa+vb1KZ+OvTT+584vGNq1etZBgAZry5YUN5WZkaOhW+WyQwAwFNdAY47pKABCQggYgSCFORSI3y89SubXfudtFHPzg4dOnyVSIeE8qR4YHBIRYc7e7uYaL9tWs3+HnoytChX1NTzZAAhqjinWPzohYueO3VF555ckdDw3p6/DMxJvWho/VECcSIgCYao8YyVAlIQAISmJ4Ajrhp4/p/95c/GhoaDhra1dV9q7Wtsen6iVNn3//Nfia5T3/m7LbSo/8Hb7y2c/uWFXW1ZGFJx3JeUVEhYpq/ON/JSbOj6FESmIaAJjoNFDdJQAISkEC8CCxatHDRosWhZxwTZRznkiVVS5curV9Ru2Hdmu1bn2D60dQacSQbwzsfxvOsIdk6+Vikc/vWzcxDYmZSweJ8M6CTAfm7BB6WgCb6sOQ8TwISkIAEIkkAl8QUi4uK+KlevrRh4/qXX3xuaqRBWFHRMRO9j4GOSej4aqTTy+jUEtwiAQk8OgFN9NEZWoIEJCABCcSSAHOWYhm3QUsghwhoojnUmFZFAhKQgARmTcDM56xReaAEMkjAr4MZhGvREpCABCQgAQlIQAIzENBEZ4DjLglIQAISkIAEJCCBDBLQRDMI16IlIAEJSEACEpCABGYgoInOAMddEpCABCQgAQlIQAIZJKCJZhCuRUtAAhKQgAQkIAEJzEBAE50BjrskIAEJSEACEpCABDJIwFWcMgjXoiUgAQlIICIEUg9SmhpPajmnGY4JZ7nw01R6bpHAIxLQRB8RoKdLQAISkEAMCOzdu/fw4cMFBQXYZMo4i4uL33jjjTVr1oQK3Lp168iRI7x3dXWFLXl5eSUlJU+Mv/jArzGoqiFKIFYE/I8qVs1lsBKQgAQk8FAELl68ePDgwfXr15eXly9evDiUwTOWRkZGUuXdvXv3+PHjLS0tPLa+urqaX1FSDsZB161bV1RU9FBX9iQJSGAmAproTHTcJwEJSEACuUGAVGhVVdXrr79OdhPLDJViY8pK2TI8PIx6clhDQwNHYqWfffZZR0dHbhCwFhKIJgFNNJrtYlQSkIAEJJBOAkgnGVC8k9QmnfLTFo2Jdnd3l5WVVVRUkAelK3/RokWODZ2WlRslkC4Cmmi6SFqOBCQgAQlEmsDg4GBzczN+2d7eTqD5+fl8Li0tRUz5MDQ01NfXR0501apVbEFbI10Zg5NArhDQRHOlJa2HBCQgAQnMSKCzs/Pdd98lLcrEo9BZv3Llyh07dmzYsKG+vv7evXsYKmNDyYOSEDUVOiNLd0ogbQQ00bShtCAJSEACEogyATKdW7duJQnK3HkyoKQ/m5qa8E6Soyhpb29vmKLEFnOiUW5HY8sxAppojjWo1ZGABCQggekJ4KBPPfVUXV0dPe8DAwMnT55kXafGxsYwgYkRoqRFmUpPTz0mak50eohulUC6CWii6SZqeRKQgAQkEFUC9MsvXbp0yZIlrNPU399//fp1uuz5QLx0zff09CxfvpxlnpDRqNbAuCSQawQ00VxrUesjAQlIQALTEiDfSf/7zZs3yX3SO0/XfFtbG+lPZjKRHz19+jQLNrHKPZLKLsSUvaGcO3fu4KxMup+45NO0l3CjBCQwVwKa6FyJebwEJCABCcSPAD3yKCbPTyLxyThR8qBBN5kpT0f8J598gomyitPGjRvppuczNWQqPfLKwSjppUuXmNVEujR+NTdiCUSbgCYa7fYxOglIQAISSAcBJJJxotgnHfRhlhIr2JMB3b17d2tr689//nM8lalLfE6tIcoW3BQZJYeKwpJGTUcgliEBCfwOAU3UG0ICEpCABHKfAI9NIrsZnjgflrhnBXvGjK5du5YkKL32K1asYOoSejpxrhKpUxyUd16Iae5jsoYSyDoBTTTryL2gBCQgAQlkncCu8dcMl0VDt23bxrNAyYmmDmO06P79+3kS/QwnuksCEngUAproo9DzXAlIQAISyB0C9M5XVlbSfZ+qEpOZfNhS7jSwNYkkAU00ks1iUBKQgAQkkC0CrNy0Z88exozW1tYyQX5iTpQH0DOHiU58Zs1/1dPqsxWm15FAbhLQRHOzXa2VBCQgAQnMksDm8de0B2Oir7322rS73CgBCaSFgCaaFowWIgEJSEACcSUww+OUZtgV19oatwQiRmBhxOIxHAlIQAISkIAEJCCBpBDQRJPS0tZTAhKQgAQkIAEJRI2AJhq1FjEeCUhAAhKQgAQkkBQCmmhSWtp6SkACEpCABCQggagR0ESj1iLGIwEJSEACEpCABJJCQBNNSktbTwlIQAISkIAEJBA1Appo1FrEeCQgAQlIQAISkEBSCGiiSWlp6ykBCUhAAhKQgASiRkATjVqLGI8EJCABCUhAAhJICgFNNCktbT0lIAEJSEACEpBA1AhoolFrEeORgAQkIAEJSEACSSGgiSalpa2nBCQgAQlIQAISiBoBTTRqLWI8EpCABCQgAQlIICkENNGktLT1lIAEJCABCUhAAlEjoIlGrUWMRwISkIAEJCABCSSFgCaalJa2nhKQgAQkIAEJSCBqBDTRqLWI8UhAAhKQgAQkIIGkENBEk9LS1lMCEpCABCQgAQlEjYAmGrUWMR4JSEACEpCABCSQFAKaaFJa2npKQAISkIAEJCCBqBHQRKPWIsYjAQlIQAISkIAEkkJAE01KS1tPCUhAAhKQgAQkEDUCmmjUWsR40kkgLy9vwYIFvb29w8PD6SzXsiQgAQlEicDQ0FBfX9/ChQv5Ry9KcRmLBB5MQBN9MCOPiCkBHLS4uHjRokXt7e0DAwMxrYVhS0ACEngggf7+/s7OzsWLF/OP3gMP9gAJRIqAJhqp5jCYdBLARGtrawsLC0+fPn3nzp10Fm1ZEpCABKJEgO/bFy5cKC0tXb58eZTiMhYJPJiAJvpgRh4RUwJ0VGGiFRUVra2tLS0tHR0dIyMjMa2LYUtAAhKYlgBDj9ra2m7duoWMLlmypLq6etrD3CiByBJwQElkm8bAHpUAJkp64N69e/fv38dE6beip54UKe/setTSPV8CEpDAvBIYHR3l2zXj4JuampBReoH4F2/p0qXzGpQXl8CcCSzgj/ScT/IECcSHQHd39+3bt8+ePUsHfXl5eX19fU1NTVFRET4an0oYqQQkIIHfIRAc9ObNmzdu3Ojq6sJBN23axLvjRL1RYkfAnGjsmsyA50aAf5dXrVrV09ODeg4ODtKBxWeml5oWnRtHj541ATJVqWO9zWaNzQPnRoDbjH75MF8eAeVfuZUrV3q/zQ2iR0eDgDnRaLSDUWSeAMnR5ubmq1ev8k5/1kRdyPzFvUKCCJCsCncXWmDqPUENn92qcmvxNZtOnrVr165YsYJ+nuxe36tJIG0ENNG0obSgiBMI+QMclOVOcAXHpUS8veIbHh2mTI8jfjJVTh+JbztGPHJGhSKjCCg+6nCjiDeW4c1MwN75mfm4N3cI0CNfNv7KnSpZk0gSYPgHQ5MJrbKycsOGDZGM0aAkIAEJRIWAJhqVljAOCUggNwiwatj58+epiys75kaDWgsJSCCjBDTRjOK1cAlIIEEEwiQSxiJ/+umnVJtJJDyD0VXDEnQHWFUJSGDuBDTRuTPzDAlIQALTEcA7Wb+WcaKNjY3sZ7Hxu3fv8mwFZzRPR8ttEpCABMYIuL6394EEJCCB9BBgMtz169eR0VAcS9iyUMPAwEB6SrcUCUhAArlIQBPNxVa1ThKQwHwQYHFHsqETTRQx1UTnoym8pgQkEBsCmmhsmspAJSCBKBNgkChr1p47d46nJ4Q4mUF/4cIFFg5zybAoN5yxSUAC80tAE51f/l5dAhLIEQIsUsuzvw8ePMjTF0OVyI8ydYk+enblSCWthgQkIIF0E9BE003U8iQggUQSYHIS6zfxzrylAICny4aNqf76RIKx0hKQgARmIqCJzkTHfRKQgARmSYDnKmGik54iy5O9mErf2dk5y0I8TAISkEDSCGiiSWtx6ysBCWSEABqKdE7qiCc/Smd9auRoRi5soRKQgATiTEATjXPrGbsEJBABAkxIQkAvX77MdKVU13yIi3WdTp06xVr3HOC8pQi0lSFIQAKRI+DK9pFrEgOSgATiRQDLRECvXLly6dIlnqjEKxU/9smTP5m6xJjRxYsXT9wVrzoarQQkIIEMEdBEMwTWYiUggaQQYBnRlpaWwsLCjRs3VlVVTXyiEuNEmTufn59Px31NTU1JSUlSoFhPCUhAArMjoInOjpNHSUACEvgKAmQ6yXfu3Lmzvr6+rKysZ/zFsaWlpUVFRUycr6ur4wCf+fkV/NwsAQkkmsAChy4luv2tvAQkkG4C9NGHJUXXjL/SXbzlSUACEsgpAs5YyqnmtDISkIAEJCABCUggRgQ00Rg1lqFKQAISkIAEJCCBnCKgieZUc1oZCUhAAhKQgAQkECMCmmiMGstQJSABCUhAAhKQQE4R0ERzqjmtjAQkIAEJSEACEogRAU00Ro1lqBKQgAQkIAEJSCCnCGiiOdWcVkYCEpCABCQgAQnEiIAmGqPGMlQJSEACEpCABCSQUwQ00ZxqTisjAQlIQAISkIAEYkRAE41RYxmqBCQgAQlIQAISyCkCmmhONaeVkYAEJCABCUhAAjEioInGqLEMVQISkIAEJCABCeQUAU00p5rTykhAAhKQgAQkIIEYEdBEY9RYhioBCUhAAhKQgARyisD/BzWOUjFsXiE1AAAAAElFTkSuQmCC;" parent="1" vertex="1">
          <mxGeometry x="840" y="275" width="339" height="285.08" as="geometry" />
        </mxCell>
        <mxCell id="XadpPIteiNEk6jwh_vKh-31" value="" style="group" parent="1" vertex="1" connectable="0">
          <mxGeometry x="190" y="240" width="120" height="130" as="geometry" />
        </mxCell>
        <mxCell id="XadpPIteiNEk6jwh_vKh-14" value="ПК" style="rounded=1;whiteSpace=wrap;html=1;fillColor=none;" parent="XadpPIteiNEk6jwh_vKh-31" vertex="1">
          <mxGeometry y="70" width="120" height="60" as="geometry" />
        </mxCell>
        <mxCell id="XadpPIteiNEk6jwh_vKh-15" value="" style="rounded=1;whiteSpace=wrap;html=1;fillColor=none;arcSize=7;" parent="XadpPIteiNEk6jwh_vKh-31" vertex="1">
          <mxGeometry width="120" height="130" as="geometry" />
        </mxCell>
        <mxCell id="XadpPIteiNEk6jwh_vKh-19" value="" style="endArrow=none;html=1;rounded=0;exitX=0;exitY=0.155;exitDx=0;exitDy=0;exitPerimeter=0;entryX=1;entryY=0.154;entryDx=0;entryDy=0;entryPerimeter=0;" parent="XadpPIteiNEk6jwh_vKh-31" source="XadpPIteiNEk6jwh_vKh-15" target="XadpPIteiNEk6jwh_vKh-15" edge="1">
          <mxGeometry width="50" height="50" relative="1" as="geometry">
            <mxPoint x="190" y="110" as="sourcePoint" />
            <mxPoint x="240" y="60" as="targetPoint" />
          </mxGeometry>
        </mxCell>
        <mxCell id="XadpPIteiNEk6jwh_vKh-20" value="&lt;font style=&quot;font-size: 8px;&quot;&gt;Техническое звено системы&lt;/font&gt;" style="text;html=1;align=center;verticalAlign=middle;whiteSpace=wrap;rounded=0;" parent="XadpPIteiNEk6jwh_vKh-31" vertex="1">
          <mxGeometry width="120" height="20" as="geometry" />
        </mxCell>
        <mxCell id="XadpPIteiNEk6jwh_vKh-21" value="&lt;font style=&quot;font-size: 8px;&quot;&gt;&amp;nbsp;Операционная система&lt;/font&gt;" style="text;html=1;align=left;verticalAlign=middle;whiteSpace=wrap;rounded=0;" parent="XadpPIteiNEk6jwh_vKh-31" vertex="1">
          <mxGeometry y="20" width="120" height="20" as="geometry" />
        </mxCell>
        <mxCell id="XadpPIteiNEk6jwh_vKh-22" value="&lt;font style=&quot;font-size: 8px;&quot;&gt;&amp;nbsp;Браузер&lt;/font&gt;" style="text;html=1;align=left;verticalAlign=middle;whiteSpace=wrap;rounded=0;" parent="XadpPIteiNEk6jwh_vKh-31" vertex="1">
          <mxGeometry y="40" width="120" height="20" as="geometry" />
        </mxCell>
        <mxCell id="XadpPIteiNEk6jwh_vKh-62" value="" style="group" parent="1" vertex="1" connectable="0">
          <mxGeometry x="440" y="240" width="120" height="130" as="geometry" />
        </mxCell>
        <mxCell id="XadpPIteiNEk6jwh_vKh-54" value="" style="rounded=1;whiteSpace=wrap;html=1;fillColor=none;arcSize=7;" parent="XadpPIteiNEk6jwh_vKh-62" vertex="1">
          <mxGeometry width="120" height="130" as="geometry" />
        </mxCell>
        <mxCell id="XadpPIteiNEk6jwh_vKh-55" value="" style="endArrow=none;html=1;rounded=0;exitX=0;exitY=0.155;exitDx=0;exitDy=0;exitPerimeter=0;entryX=1;entryY=0.154;entryDx=0;entryDy=0;entryPerimeter=0;" parent="XadpPIteiNEk6jwh_vKh-62" source="XadpPIteiNEk6jwh_vKh-54" target="XadpPIteiNEk6jwh_vKh-54" edge="1">
          <mxGeometry width="50" height="50" relative="1" as="geometry">
            <mxPoint x="200" y="-40" as="sourcePoint" />
            <mxPoint x="250" y="-90" as="targetPoint" />
          </mxGeometry>
        </mxCell>
        <mxCell id="XadpPIteiNEk6jwh_vKh-56" value="&lt;font style=&quot;font-size: 8px;&quot;&gt;Окружающая среда&lt;/font&gt;" style="text;html=1;align=center;verticalAlign=middle;whiteSpace=wrap;rounded=0;" parent="XadpPIteiNEk6jwh_vKh-62" vertex="1">
          <mxGeometry width="120" height="20" as="geometry" />
        </mxCell>
        <mxCell id="XadpPIteiNEk6jwh_vKh-57" value="&lt;font style=&quot;font-size: 8px;&quot;&gt;Освещенность&lt;/font&gt;" style="text;html=1;align=left;verticalAlign=middle;whiteSpace=wrap;rounded=0;" parent="XadpPIteiNEk6jwh_vKh-62" vertex="1">
          <mxGeometry y="20" width="120" height="20" as="geometry" />
        </mxCell>
        <mxCell id="XadpPIteiNEk6jwh_vKh-58" value="&lt;font style=&quot;font-size: 8px;&quot;&gt;Шум&lt;/font&gt;" style="text;html=1;align=left;verticalAlign=middle;whiteSpace=wrap;rounded=0;" parent="XadpPIteiNEk6jwh_vKh-62" vertex="1">
          <mxGeometry y="40" width="120" height="20" as="geometry" />
        </mxCell>
        <mxCell id="XadpPIteiNEk6jwh_vKh-59" value="&lt;font style=&quot;font-size: 8px;&quot;&gt;Вибрация&lt;/font&gt;" style="text;html=1;align=left;verticalAlign=middle;whiteSpace=wrap;rounded=0;" parent="XadpPIteiNEk6jwh_vKh-62" vertex="1">
          <mxGeometry y="60" width="120" height="20" as="geometry" />
        </mxCell>
        <mxCell id="XadpPIteiNEk6jwh_vKh-60" value="&lt;font style=&quot;font-size: 8px;&quot;&gt;Микроклимат&lt;/font&gt;" style="text;html=1;align=left;verticalAlign=middle;whiteSpace=wrap;rounded=0;" parent="XadpPIteiNEk6jwh_vKh-62" vertex="1">
          <mxGeometry y="80" width="120" height="20" as="geometry" />
        </mxCell>
        <mxCell id="XadpPIteiNEk6jwh_vKh-61" value="&lt;font style=&quot;font-size: 8px;&quot;&gt;Электромагнитное излучение&lt;/font&gt;" style="text;html=1;align=left;verticalAlign=middle;whiteSpace=wrap;rounded=0;" parent="XadpPIteiNEk6jwh_vKh-62" vertex="1">
          <mxGeometry y="100" width="120" height="20" as="geometry" />
        </mxCell>
        <mxCell id="XadpPIteiNEk6jwh_vKh-91" value="" style="rounded=1;whiteSpace=wrap;html=1;fillColor=none;arcSize=3;" parent="1" vertex="1">
          <mxGeometry x="180" y="405.65999999999997" width="390" height="180" as="geometry" />
        </mxCell>
        <mxCell id="XadpPIteiNEk6jwh_vKh-92" value="&lt;font style=&quot;font-size: 10px;&quot;&gt;Администратор&lt;/font&gt;" style="shape=umlActor;verticalLabelPosition=bottom;verticalAlign=top;html=1;" parent="1" vertex="1">
          <mxGeometry x="360" y="425.65999999999997" width="30" height="60" as="geometry" />
        </mxCell>
        <mxCell id="XadpPIteiNEk6jwh_vKh-93" value="" style="group" parent="1" vertex="1" connectable="0">
          <mxGeometry x="190" y="435.65999999999997" width="180" height="130" as="geometry" />
        </mxCell>
        <mxCell id="XadpPIteiNEk6jwh_vKh-94" value="ПК" style="rounded=1;whiteSpace=wrap;html=1;fillColor=none;" parent="XadpPIteiNEk6jwh_vKh-93" vertex="1">
          <mxGeometry y="70" width="120" height="60" as="geometry" />
        </mxCell>
        <mxCell id="XadpPIteiNEk6jwh_vKh-95" value="" style="rounded=1;whiteSpace=wrap;html=1;fillColor=none;arcSize=7;" parent="XadpPIteiNEk6jwh_vKh-93" vertex="1">
          <mxGeometry width="120" height="130" as="geometry" />
        </mxCell>
        <mxCell id="XadpPIteiNEk6jwh_vKh-96" value="" style="endArrow=none;html=1;rounded=0;exitX=0;exitY=0.155;exitDx=0;exitDy=0;exitPerimeter=0;entryX=1;entryY=0.154;entryDx=0;entryDy=0;entryPerimeter=0;" parent="XadpPIteiNEk6jwh_vKh-93" source="XadpPIteiNEk6jwh_vKh-95" target="XadpPIteiNEk6jwh_vKh-95" edge="1">
          <mxGeometry width="50" height="50" relative="1" as="geometry">
            <mxPoint x="190" y="110" as="sourcePoint" />
            <mxPoint x="240" y="60" as="targetPoint" />
          </mxGeometry>
        </mxCell>
        <mxCell id="XadpPIteiNEk6jwh_vKh-97" value="&lt;font style=&quot;font-size: 8px;&quot;&gt;Техническое звено системы&lt;/font&gt;" style="text;html=1;align=center;verticalAlign=middle;whiteSpace=wrap;rounded=0;" parent="XadpPIteiNEk6jwh_vKh-93" vertex="1">
          <mxGeometry width="120" height="20" as="geometry" />
        </mxCell>
        <mxCell id="XadpPIteiNEk6jwh_vKh-98" value="&lt;font style=&quot;font-size: 8px;&quot;&gt;&amp;nbsp;Операционная система&lt;/font&gt;" style="text;html=1;align=left;verticalAlign=middle;whiteSpace=wrap;rounded=0;" parent="XadpPIteiNEk6jwh_vKh-93" vertex="1">
          <mxGeometry y="20" width="120" height="20" as="geometry" />
        </mxCell>
        <mxCell id="XadpPIteiNEk6jwh_vKh-99" value="&lt;font style=&quot;font-size: 8px;&quot;&gt;&amp;nbsp;Браузер&lt;/font&gt;" style="text;html=1;align=left;verticalAlign=middle;whiteSpace=wrap;rounded=0;" parent="XadpPIteiNEk6jwh_vKh-93" vertex="1">
          <mxGeometry y="40" width="120" height="20" as="geometry" />
        </mxCell>
        <mxCell id="XadpPIteiNEk6jwh_vKh-100" value="" style="group" parent="1" vertex="1" connectable="0">
          <mxGeometry x="440" y="435.65999999999997" width="120" height="130" as="geometry" />
        </mxCell>
        <mxCell id="XadpPIteiNEk6jwh_vKh-101" value="" style="rounded=1;whiteSpace=wrap;html=1;fillColor=none;arcSize=7;" parent="XadpPIteiNEk6jwh_vKh-100" vertex="1">
          <mxGeometry width="120" height="130" as="geometry" />
        </mxCell>
        <mxCell id="XadpPIteiNEk6jwh_vKh-102" value="" style="endArrow=none;html=1;rounded=0;exitX=0;exitY=0.155;exitDx=0;exitDy=0;exitPerimeter=0;entryX=1;entryY=0.154;entryDx=0;entryDy=0;entryPerimeter=0;" parent="XadpPIteiNEk6jwh_vKh-100" source="XadpPIteiNEk6jwh_vKh-101" target="XadpPIteiNEk6jwh_vKh-101" edge="1">
          <mxGeometry width="50" height="50" relative="1" as="geometry">
            <mxPoint x="200" y="-40" as="sourcePoint" />
            <mxPoint x="250" y="-90" as="targetPoint" />
          </mxGeometry>
        </mxCell>
        <mxCell id="XadpPIteiNEk6jwh_vKh-103" value="&lt;font style=&quot;font-size: 8px;&quot;&gt;Окружающая среда&lt;/font&gt;" style="text;html=1;align=center;verticalAlign=middle;whiteSpace=wrap;rounded=0;" parent="XadpPIteiNEk6jwh_vKh-100" vertex="1">
          <mxGeometry width="120" height="20" as="geometry" />
        </mxCell>
        <mxCell id="XadpPIteiNEk6jwh_vKh-104" value="&lt;font style=&quot;font-size: 8px;&quot;&gt;Освещенность&lt;/font&gt;" style="text;html=1;align=left;verticalAlign=middle;whiteSpace=wrap;rounded=0;" parent="XadpPIteiNEk6jwh_vKh-100" vertex="1">
          <mxGeometry y="20" width="120" height="20" as="geometry" />
        </mxCell>
        <mxCell id="XadpPIteiNEk6jwh_vKh-105" value="&lt;font style=&quot;font-size: 8px;&quot;&gt;Шум&lt;/font&gt;" style="text;html=1;align=left;verticalAlign=middle;whiteSpace=wrap;rounded=0;" parent="XadpPIteiNEk6jwh_vKh-100" vertex="1">
          <mxGeometry y="40" width="120" height="20" as="geometry" />
        </mxCell>
        <mxCell id="XadpPIteiNEk6jwh_vKh-106" value="&lt;font style=&quot;font-size: 8px;&quot;&gt;Вибрация&lt;/font&gt;" style="text;html=1;align=left;verticalAlign=middle;whiteSpace=wrap;rounded=0;" parent="XadpPIteiNEk6jwh_vKh-100" vertex="1">
          <mxGeometry y="60" width="120" height="20" as="geometry" />
        </mxCell>
        <mxCell id="XadpPIteiNEk6jwh_vKh-107" value="&lt;font style=&quot;font-size: 8px;&quot;&gt;Микроклимат&lt;/font&gt;" style="text;html=1;align=left;verticalAlign=middle;whiteSpace=wrap;rounded=0;" parent="XadpPIteiNEk6jwh_vKh-100" vertex="1">
          <mxGeometry y="80" width="120" height="20" as="geometry" />
        </mxCell>
        <mxCell id="XadpPIteiNEk6jwh_vKh-108" value="&lt;font style=&quot;font-size: 8px;&quot;&gt;Электромагнитное излучение&lt;/font&gt;" style="text;html=1;align=left;verticalAlign=middle;whiteSpace=wrap;rounded=0;" parent="XadpPIteiNEk6jwh_vKh-100" vertex="1">
          <mxGeometry y="100" width="120" height="20" as="geometry" />
        </mxCell>
        <mxCell id="XadpPIteiNEk6jwh_vKh-111" value="" style="rounded=1;whiteSpace=wrap;html=1;arcSize=5;fillColor=none;" parent="1" vertex="1">
          <mxGeometry x="610" y="245" width="130" height="110" as="geometry" />
        </mxCell>
        <mxCell id="XadpPIteiNEk6jwh_vKh-112" value="&lt;font style=&quot;font-size: 10px;&quot;&gt;Удаленный репозиторий Github&lt;/font&gt;" style="text;html=1;align=center;verticalAlign=middle;whiteSpace=wrap;rounded=0;" parent="1" vertex="1">
          <mxGeometry x="610" y="245" width="130" height="30" as="geometry" />
        </mxCell>
        <mxCell id="XadpPIteiNEk6jwh_vKh-115" value="&lt;font style=&quot;font-size: 8px;&quot;&gt;Исходный код&lt;/font&gt;" style="rounded=1;whiteSpace=wrap;html=1;arcSize=5;fillColor=none;" parent="1" vertex="1">
          <mxGeometry x="620" y="320" width="40" height="31.32" as="geometry" />
        </mxCell>
        <mxCell id="XadpPIteiNEk6jwh_vKh-118" value="&lt;font style=&quot;font-size: 8px;&quot;&gt;Конфигурация репозитория&lt;/font&gt;" style="rounded=1;whiteSpace=wrap;html=1;arcSize=5;fillColor=none;" parent="1" vertex="1">
          <mxGeometry x="670" y="320" width="60" height="31.32" as="geometry" />
        </mxCell>
        <mxCell id="XadpPIteiNEk6jwh_vKh-127" value="&lt;span style=&quot;font-size: 8px;&quot;&gt;Pages cервер с документацией&lt;/span&gt;" style="rounded=1;whiteSpace=wrap;html=1;arcSize=5;fillColor=none;" parent="1" vertex="1">
          <mxGeometry x="620" y="280" width="110" height="30" as="geometry" />
        </mxCell>
        <mxCell id="XadpPIteiNEk6jwh_vKh-133" value="" style="rounded=1;whiteSpace=wrap;html=1;arcSize=5;fillColor=none;" parent="1" vertex="1">
          <mxGeometry x="610" y="440.66" width="130" height="110" as="geometry" />
        </mxCell>
        <mxCell id="XadpPIteiNEk6jwh_vKh-134" value="&lt;font style=&quot;font-size: 8px;&quot;&gt;Сервер&lt;/font&gt;" style="text;html=1;align=center;verticalAlign=middle;whiteSpace=wrap;rounded=0;" parent="1" vertex="1">
          <mxGeometry x="610" y="440.66" width="130" height="30" as="geometry" />
        </mxCell>
        <mxCell id="XadpPIteiNEk6jwh_vKh-148" value="&lt;font style=&quot;font-size: 7px;&quot;&gt;Веб-приложение Админа&lt;/font&gt;" style="rounded=1;whiteSpace=wrap;html=1;arcSize=5;fillColor=none;" parent="1" vertex="1">
          <mxGeometry x="620" y="480.66" width="60" height="54.34" as="geometry" />
        </mxCell>
        <mxCell id="XadpPIteiNEk6jwh_vKh-149" value="&lt;font style=&quot;font-size: 6px;&quot;&gt;БД&lt;/font&gt;" style="strokeWidth=1;html=1;shape=mxgraph.flowchart.database;whiteSpace=wrap;" parent="1" vertex="1">
          <mxGeometry x="694.34" y="485" width="35.66" height="45.66" as="geometry" />
        </mxCell>
        <mxCell id="XadpPIteiNEk6jwh_vKh-150" style="rounded=0;orthogonalLoop=1;jettySize=auto;html=1;entryX=0;entryY=0.5;entryDx=0;entryDy=0;endSize=1;endArrow=block;endFill=1;exitX=1;exitY=0.5;exitDx=0;exitDy=0;entryPerimeter=0;startArrow=block;startFill=1;startSize=1;" parent="1" source="XadpPIteiNEk6jwh_vKh-148" target="XadpPIteiNEk6jwh_vKh-149" edge="1">
          <mxGeometry relative="1" as="geometry">
            <mxPoint x="580" y="506" as="sourcePoint" />
            <mxPoint x="620" y="506" as="targetPoint" />
          </mxGeometry>
        </mxCell>
        <mxCell id="XadpPIteiNEk6jwh_vKh-154" style="rounded=0;orthogonalLoop=1;jettySize=auto;html=1;endSize=1;endArrow=block;endFill=1;exitX=1;exitY=0.5;exitDx=0;exitDy=0;startArrow=block;startFill=1;startSize=1;" parent="1" edge="1">
          <mxGeometry relative="1" as="geometry">
            <mxPoint x="580" y="304.86" as="sourcePoint" />
            <mxPoint x="600" y="305" as="targetPoint" />
          </mxGeometry>
        </mxCell>
        <mxCell id="XadpPIteiNEk6jwh_vKh-155" style="rounded=0;orthogonalLoop=1;jettySize=auto;html=1;endSize=1;endArrow=block;endFill=1;exitX=1;exitY=0.5;exitDx=0;exitDy=0;startArrow=block;startFill=1;startSize=1;" parent="1" edge="1">
          <mxGeometry relative="1" as="geometry">
            <mxPoint x="580" y="500.42" as="sourcePoint" />
            <mxPoint x="600" y="500.56" as="targetPoint" />
          </mxGeometry>
        </mxCell>
        <mxCell id="XadpPIteiNEk6jwh_vKh-156" style="rounded=0;orthogonalLoop=1;jettySize=auto;html=1;endSize=1;endArrow=block;endFill=1;exitX=1;exitY=0.5;exitDx=0;exitDy=0;startArrow=block;startFill=1;startSize=1;" parent="1" edge="1">
          <mxGeometry relative="1" as="geometry">
            <mxPoint x="320" y="460" as="sourcePoint" />
            <mxPoint x="340" y="460.14" as="targetPoint" />
          </mxGeometry>
        </mxCell>
        <mxCell id="XadpPIteiNEk6jwh_vKh-157" style="rounded=0;orthogonalLoop=1;jettySize=auto;html=1;endSize=1;endArrow=block;endFill=1;exitX=1;exitY=0.5;exitDx=0;exitDy=0;startArrow=block;startFill=1;startSize=1;" parent="1" edge="1">
          <mxGeometry relative="1" as="geometry">
            <mxPoint x="405" y="460" as="sourcePoint" />
            <mxPoint x="425" y="460.14" as="targetPoint" />
          </mxGeometry>
        </mxCell>
        <mxCell id="XadpPIteiNEk6jwh_vKh-158" style="rounded=0;orthogonalLoop=1;jettySize=auto;html=1;endSize=1;endArrow=block;endFill=1;exitX=1;exitY=0.5;exitDx=0;exitDy=0;startArrow=block;startFill=1;startSize=1;" parent="1" edge="1">
          <mxGeometry relative="1" as="geometry">
            <mxPoint x="330" y="265" as="sourcePoint" />
            <mxPoint x="350" y="265.14" as="targetPoint" />
          </mxGeometry>
        </mxCell>
        <mxCell id="XadpPIteiNEk6jwh_vKh-159" style="rounded=0;orthogonalLoop=1;jettySize=auto;html=1;endSize=1;endArrow=block;endFill=1;exitX=1;exitY=0.5;exitDx=0;exitDy=0;startArrow=block;startFill=1;startSize=1;" parent="1" edge="1">
          <mxGeometry relative="1" as="geometry">
            <mxPoint x="405" y="265" as="sourcePoint" />
            <mxPoint x="425" y="265.14" as="targetPoint" />
          </mxGeometry>
        </mxCell>
        <mxCell id="3tW5nvcUrMSksaXEO2st-1" value="Text" style="text;html=1;align=center;verticalAlign=middle;resizable=0;points=[];autosize=1;strokeColor=none;fillColor=none;" vertex="1" parent="1">
          <mxGeometry x="865" y="798" width="50" height="30" as="geometry" />
        </mxCell>
      </root>
    </mxGraphModel>
  </diagram>
</mxfile>
